{
.appVersion = "1342";
DisplayStrings = (
"/Aogonek/Eogonek ÌÍÎÏ/Itilde/Imacron/Ibreve/Iogonek/Idotaccent/Jcircumflex/Dcroat/Ldot à/aogonek/dcaron èìíîï/itilde/imacron/ibreve/iogonek/jcircumflex/lacute/lcaron/racute/rcaron/tcedilla/tcaron ù/uhungarumlaut/uogonek/ygrave/ldot ¼½¾%/perthousand/ellipsis ·/fi/fl/Jcircumflex.base/Jcircumflex.base_sc/Aogonek.sc/Egrave.sc/Eogonek.sc/Igrave.sc/Iacute.sc/Icircumflex.sc/Idieresis.sc/Itilde.sc/Imacron.sc/Ibreve.sc/Iogonek.sc/Idotaccent.sc/Jcircumflex.sc/Ugrave.sc/Ygrave.sc/Dcroat.sc/Ldot.sc/germandbls.sc/ordfeminine.lc/ordmasculine.lc",
"ÍÎÏ/Itilde/Imacron/Ibreve/Iogonek/Jcircumflex/Ldot à/aogonek/dcaron èìíîï/itilde/imacron/ibreve/iogonek/jcircumflex/lacute/lcaron/racute/rcaron/tcedilla/tcaron ù/uhungarumlaut/uogonek/ygrave/ldot ¼½¾%/perthousand/ellipsis ·/fi/fl/Jcircumflex.base/Jcircumflex.base_sc/Egrave.sc/Igrave.sc/Iacute.sc/Icircumflex.sc/Idieresis.sc/Itilde.sc/Imacron.sc/Ibreve.sc/Iogonek.sc/Jcircumflex.sc/Ugrave.sc/Ygrave.sc/Ldot.sc/ordfeminine.lc/ordmasculine.lc",
"/Gcommaaccent/Kcommaaccent/Lcommaaccent/Ncommaaccent/Rcommaaccent/Scommaaccent/Tcommaaccent"
);
copyright = "(c) 2017 TYPETR Petr van Blokland (buro@petr.com) Original Design. ";
customParameters = (
{
name = glyphOrder;
value = (
space,
nbspace,
A,
Agrave,
Aacute,
Acircumflex,
Atilde,
Adieresis,
Aring,
Amacron,
Abreve,
Aogonek,
Aringacute,
B,
C,
Ccedilla,
Cacute,
Ccircumflex,
Cdotaccent,
Ccaron,
D,
Dcaron,
E,
Egrave,
Eacute,
Ecircumflex,
Edieresis,
Emacron,
Ebreve,
Edotaccent,
Eogonek,
Ecaron,
F,
G,
Gcircumflex,
Gbreve,
Gdotaccent,
Gcommaaccent,
Gcaron,
H,
Hcircumflex,
I,
Igrave,
Iacute,
Icircumflex,
Idieresis,
Itilde,
Imacron,
Ibreve,
Iogonek,
Idotaccent,
J,
Jcircumflex,
K,
Kcommaaccent,
L,
Lacute,
Lcommaaccent,
Lcaron,
M,
N,
Ntilde,
Nacute,
Ncommaaccent,
Ncaron,
O,
Ograve,
Oacute,
Ocircumflex,
Otilde,
Odieresis,
Omacron,
Obreve,
Ohungarumlaut,
P,
Q,
R,
Racute,
Rcommaaccent,
Rcaron,
S,
Sacute,
Scircumflex,
Scedilla,
Scaron,
Scommaaccent,
T,
Tcedilla,

glyphs = (
{
color = (255,255,0,255);
glyphname = A;
layers = (
{
layerId = master01;
paths = (
{
closed = 1;
nodes = (
"106 0 LINE",
"181 197 LINE",
"161 197 LINE",
"478 197 LINE",
"457 197 LINE",
"532 0 LINE",
"623 0 LINE",
"361 664 LINE",
"282 664 LINE",
"20 0 LINE"
);
},
{
closed = 1;
nodes = (
"292 488 LINE",
"325 582 LINE",
"312 582 LINE",
"345 488 LINE",
"429 271 LINE",
"451 271 LINE",
"182 271 LINE",
"209 271 LINE"
);
}
);
userData = {
axes = {
wdth = {
defaultValue = 500;
enabled = 0;
maxValue = 1000;
minValue = 0;
name = wdth;
tag = wdth;
value = 500;
};
wght = {
defaultValue = 500;
enabled = 1;
maxValue = 1000;
minValue = 0;
name = wght;
tag = wght;
value = 500;
};
};
fbTools.spacingEnvelop = (
(
0,
-3
),
(
96.988,
473.353
),
(
117.875,
584.209
),
(
57.798,
656.442
),
(
457,
666
),
(
457,
-3
)
);
tnScalarpolator = {
scalarpolatorPrefs = {
LSB = "4";
RSB = 0;
baseline = -142.312;
interpolateX = 130.541;
interpolateY = 130.541;
lockScaleXY = 1;
scaleX = 72.537;
scaleY = 72.537;
};
};
};
width = 663;
}
);
leftKerningGroup = "@MMK_R_A";
rightKerningGroup = "@MMK_L_A";
unicode = 0041;
},
{
color = (255,255,0,255);
glyphname = B;
layers = (
{
layerId = master01;
paths = (
{
closed = 1;
nodes = (
"258 0 LINE SMOOTH",
"404 0 OFFCURVE",
"475 65 OFFCURVE",
"475 179 CURVE SMOOTH",
"475 275 OFFCURVE",
"415 342 OFFCURVE",
"275 345 CURVE",
"279 328 LINE",
"399 333 OFFCURVE",
"452 403 OFFCURVE",
"452 494 CURVE SMOOTH",
"452 600 OFFCURVE",
"384 658 OFFCURVE",
"242 658 CURVE SMOOTH",
"72 658 LINE",
"72 0 LINE"
);
},
{
closed = 1;
nodes = (
"156 585 LINE",
"242 585 LINE SMOOTH",
"319 585 OFFCURVE",
"368 552 OFFCURVE",
"368 480 CURVE SMOOTH",
"368 405 OFFCURVE",
"318 368 OFFCURVE",
"240 368 CURVE SMOOTH",
"156 368 LINE"
);
},
{
closed = 1;
nodes = (
"156 298 LINE",
"252 298 LINE SMOOTH",
"340 298 OFFCURVE",
"391 261 OFFCURVE",
"391 186 CURVE SMOOTH",
"391 110 OFFCURVE",
"342 73 OFFCURVE",
"260 73 CURVE SMOOTH",
"156 73 LINE"
);
}
);
userData = {
axes = {
wdth = {
defaultValue = 500;
enabled = 1;
maxValue = 1000;
minValue = 0;
name = wdth;
tag = wdth;
value = 500;
};
wght = {
defaultValue = 500;
enabled = 1;
maxValue = 1000;
minValue = 0;
name = wght;
tag = wght;
value = 500;
};
};
tnScalarpolator = {
scalarpolatorPrefs = {
LSB = "4";
RSB = 0;
baseline = -142.312;
interpolateX = 130.541;
interpolateY = 130.541;
lockScaleXY = 1;
scaleX = 72.537;
scaleY = 72.537;
};
};
};
width = 515;
}
);
leftKerningGroup = "@MMK_R_H";
rightKerningGroup = "@MMK_L_B";
unicode = 0042;
},
{
color = (255,255,0,255);
glyphname = C;
layers = (
{
layerId = master01;
paths = (
{
closed = 1;
nodes = (
"478 -14 OFFCURVE",
"545 3 OFFCURVE",
"611 42 CURVE",
"611 128 LINE",
"545 85 OFFCURVE",
"480 64 OFFCURVE",
"400 64 CURVE SMOOTH",
"241 64 OFFCURVE",
"134 166 OFFCURVE",
"134 329 CURVE SMOOTH",
"134 490 OFFCURVE",
"238 594 OFFCURVE",
"400 594 CURVE SMOOTH",
"477 594 OFFCURVE",
"541 577 OFFCURVE",
"604 538 CURVE",
"604 623 LINE",
"540 656 OFFCURVE",
"477 672 OFFCURVE",
"400 672 CURVE SMOOTH",
"184 672 OFFCURVE",
"48 536 OFFCURVE",
"48 329 CURVE SMOOTH",
"48 119 OFFCURVE",
"187 -14 OFFCURVE",
"400 -14 CURVE SMOOTH"
);
}
);
userData = {
axes = {
DFLT = {
defaultValue = 0;
enabled = 1;
maxValue = 1000;
minValue = 0;
name = DFLT;
tag = DFLT;
value = 0;
};
wdth = {
defaultValue = 0;
enabled = 1;
maxValue = 1000;
minValue = 0;
name = wdth;
tag = wdth;
value = 0;
};
wght = {
defaultValue = 0;
enabled = 1;
maxValue = 1000;
minValue = 0;
name = wght;
tag = wght;
value = 0;
};
};
tnScalarpolator = {
scalarpolatorPrefs = {
LSB = "4";
RSB = 0;
baseline = -142.312;
interpolateX = 130.541;
interpolateY = 130.541;
lockScaleXY = 1;
scaleX = 72.537;
scaleY = 72.537;
};
};
};
width = 651;
}
);
leftKerningGroup = "@MMK_R_O";
rightKerningGroup = "@MMK_L_C";
unicode = 0043;
},
{
color = (255,255,0,255);
glyphname = D;
layers = (
{
layerId = master01;
paths = (
{
closed = 1;
nodes = (
"268 0 LINE SMOOTH",
"493 0 OFFCURVE",
"636 132 OFFCURVE",
"636 337 CURVE SMOOTH",
"636 532 OFFCURVE",
"495 658 OFFCURVE",
"276 658 CURVE SMOOTH",
"72 658 LINE",
"72 0 LINE"
);
},
{
closed = 1;
nodes = (
"156 579 LINE",
"280 579 LINE SMOOTH",
"446 579 OFFCURVE",
"551 484 OFFCURVE",
"551 337 CURVE SMOOTH",
"551 179 OFFCURVE",
"443 79 OFFCURVE",
"272 79 CURVE SMOOTH",
"156 79 LINE"
);
}
);
userData = {
tnScalarpolator = {
scalarpolatorPrefs = {
LSB = "4";
RSB = 0;
baseline = -142.312;
interpolateX = 130.541;
interpolateY = 130.541;
lockScaleXY = 1;
scaleX = 72.537;
scaleY = 72.537;
};
};
};
width = 676;
}
);
leftKerningGroup = "@MMK_R_H";
rightKerningGroup = "@MMK_L_O";
unicode = 0044;
},
{
color = (255,255,0,255);
glyphname = E;
layers = (
{
layerId = master01;
paths = (
{
closed = 1;
nodes = (
"444 0 LINE",
"444 79 LINE",
"156 79 LINE",
"156 294 LINE",
"422 294 LINE",
"422 373 LINE",
"156 373 LINE",
"156 579 LINE",
"434 579 LINE",
"434 658 LINE",
"72 658 LINE",
"72 0 LINE"
);
}
);
userData = {
axes = {
wdth = {
defaultValue = 500;
enabled = 1;
maxValue = 1000;
minValue = 0;
name = wdth;
tag = wdth;
value = 500;
};
wght = {
defaultValue = 500;
enabled = 1;
maxValue = 1000;
minValue = 0;
name = wght;
tag = wght;
value = 500;
};
};
tnScalarpolator = {
scalarpolatorPrefs = {
LSB = "4";
RSB = 0;
baseline = -142.312;
interpolateX = 130.541;
interpolateY = 130.541;
lockScaleXY = 1;
scaleX = 72.537;
scaleY = 72.537;
};
};
};
width = 484;
}
);
leftKerningGroup = "@MMK_R_H";
rightKerningGroup = "@MMK_L_E";
unicode = 0045;
},
{
color = (255,255,0,255);
glyphname = F;
layers = (
{
layerId = master01;
paths = (
{
closed = 1;
nodes = (
"156 0 LINE",
"156 291 LINE",
"390 291 LINE",
"390 369 LINE",
"156 369 LINE",
"156 579 LINE",
"414 579 LINE",
"414 658 LINE",
"72 658 LINE",
"72 0 LINE"
);
}
);
userData = {
tnScalarpolator = {
scalarpolatorPrefs = {
LSB = "4";
RSB = 0;
baseline = -142.312;
interpolateX = 130.541;
interpolateY = 130.541;
lockScaleXY = 1;
scaleX = 72.537;
scaleY = 72.537;
};
};
};
width = 454;
}
);
leftKerningGroup = "@MMK_R_H";
rightKerningGroup = "@MMK_L_F";
unicode = 0046;
},
{
color = (255,255,0,255);
glyphname = G;
layers = (
{
layerId = master01;
paths = (
{
closed = 1;
nodes = (
"472 -14 OFFCURVE",
"557 5 OFFCURVE",
"630 39 CURVE",
"630 337 LINE",
"407 337 LINE",
"407 258 LINE",
"546 258 LINE",
"546 94 LINE",
"497 74 OFFCURVE",
"442 64 OFFCURVE",
"383 64 CURVE SMOOTH",
"232 64 OFFCURVE",
"134 168 OFFCURVE",
"134 331 CURVE SMOOTH",
"134 492 OFFCURVE",
"234 594 OFFCURVE",
"393 594 CURVE SMOOTH",
"471 594 OFFCURVE",
"539 578 OFFCURVE",
"602 545 CURVE",
"602 628 LINE",
"539 656 OFFCURVE",
"463 672 OFFCURVE",
"390 672 CURVE SMOOTH",
"182 672 OFFCURVE",
"48 538 OFFCURVE",
"48 331 CURVE SMOOTH",
"48 122 OFFCURVE",
"181 -14 OFFCURVE",
"388 -14 CURVE SMOOTH"
);
}
);
userData = {
tnScalarpolator = {
scalarpolatorPrefs = {
LSB = "4";
RSB = 0;
baseline = -142.312;
interpolateX = 130.541;
interpolateY = 130.541;
lockScaleXY = 1;
scaleX = 72.537;
scaleY = 72.537;
};
};
};
width = 670;
}
);
leftKerningGroup = "@MMK_R_O";
rightKerningGroup = "@MMK_L_G";
unicode = 0047;
},
{
color = (255,255,0,255);
glyphname = H;
layers = (
{
layerId = master01;
paths = (
{
closed = 1;
nodes = (
"156 0 LINE",
"156 297 LINE",
"528 297 LINE",
"528 0 LINE",
"612 0 LINE",
"612 658 LINE",
"528 658 LINE",
"528 376 LINE",
"156 376 LINE",
"156 658 LINE",
"72 658 LINE",
"72 0 LINE"
);
}
);
userData = {
axes = {
wdth = {
defaultValue = 0;
enabled = 0;
maxValue = 1000;
minValue = 0;
name = wdth;
tag = wdth;
value = 0;
};
wght = {
defaultValue = 0;
enabled = 1;
maxValue = 1000;
minValue = 0;
name = wght;
tag = wght;
value = 0;
};
};
tnScalarpolator = {
scalarpolatorPrefs = {
LSB = "4";
RSB = 0;
autoGlyphSource = 1;
baseline = -142.312;
interpolateX = 130.541;
interpolateY = 130.541;
lockInterpolationXY = 1;
lockScaleXY = 1;
master1 = "Upgrade-Thin.ufo";
master2 = "Upgrade-Middle.ufo";
scaleX = 99.229;
scaleY = 99.229;
};
};
};
width = 652;
}
);
leftKerningGroup = "@MMK_R_H";
rightKerningGroup = "@MMK_L_H";
unicode = 0048;
},
{
color = (255,255,0,255);
glyphname = I;
layers = (
{
layerId = master01;
paths = (
{
closed = 1;
nodes = (
"156 0 LINE",
"156 658 LINE",
"72 658 LINE",
"72 0 LINE"
);
}
);
userData = {
tnScalarpolator = {
scalarpolatorPrefs = {
LSB = "4";
RSB = 0;
baseline = -142.312;
interpolateX = 130.541;
interpolateY = 130.541;
lockScaleXY = 1;
scaleX = 72.537;
scaleY = 72.537;
};
};
};
width = 196;
}
);
leftKerningGroup = "@MMK_R_I";
rightKerningGroup = "@MMK_L_I";
unicode = 0049;
},
{
color = (255,255,0,255);
glyphname = J;
layers = (
{
layerId = master01;
paths = (
{
closed = 1;
nodes = (
"90 -220 OFFCURVE",
"157 -151 OFFCURVE",
"157 -43 CURVE SMOOTH",
"157 658 LINE",
"73 658 LINE",
"73 -43 LINE SMOOTH",
"73 -104 OFFCURVE",
"38 -142 OFFCURVE",
"-18 -142 CURVE SMOOTH",
"-26 -142 LINE",
"-26 -220 LINE",
"-18 -220 LINE SMOOTH"
);
}
);
userData = {
tnScalarpolator = {
scalarpolatorPrefs = {
LSB = "4";
RSB = 0;
baseline = -142.312;
interpolateX = 130.541;
interpolateY = 130.541;
lockScaleXY = 1;
scaleX = 72.537;
scaleY = 72.537;
};
};
};
width = 197;
}
);
leftKerningGroup = "@MMK_R_J";
rightKerningGroup = "@MMK_L_J";
unicode = 004A;
},
{
color = (255,255,0,255);
glyphname = K;
layers = (
{
layerId = master01;
paths = (
{
closed = 1;
nodes = (
"156 0 LINE",
"156 333 LINE",
"141 333 LINE",
"448 0 LINE",
"560 1 LINE",
"224 361 LINE",
"224 323 LINE",
"542 658 LINE",
"438 658 LINE",
"141 339 LINE",
"156 339 LINE",
"156 658 LINE",
"72 658 LINE",
"72 0 LINE"
);
}
);
userData = {
tnScalarpolator = {
scalarpolatorPrefs = {
LSB = "4";
RSB = 0;
baseline = -142.312;
interpolateX = 130.541;
interpolateY = 130.541;
lockScaleXY = 1;
scaleX = 72.537;
scaleY = 72.537;
};
};
};
width = 600;
}
);
leftKerningGroup = "@MMK_R_H";
rightKerningGroup = "@MMK_L_K";
unicode = 004B;
},
{
color = (255,255,0,255);
glyphname = L;
layers = (
{
layerId = master01;
paths = (
{
closed = 1;
nodes = (
"447 0 LINE",
"447 79 LINE",
"156 79 LINE",
"156 658 LINE",
"72 658 LINE",
"72 0 LINE"
);
}
);
userData = {
tnScalarpolator = {
scalarpolatorPrefs = {
LSB = "4";
RSB = 0;
baseline = -142.312;
interpolateX = 130.541;
interpolateY = 130.541;
lockScaleXY = 1;
scaleX = 72.537;
scaleY = 72.537;
};
};
};
width = 487;
}
);
leftKerningGroup = "@MMK_R_H";
rightKerningGroup = "@MMK_L_L";
unicode = 004C;
},
{
color = (255,255,0,255);
glyphname = M;
layers = (
{
layerId = master01;
paths = (
{
closed = 1;
nodes = (
"151 0 LINE",
"151 483 LINE",
"146 649 LINE",
"117 649 LINE",
"184 483 LINE",
"350 127 LINE",
"429 127 LINE",
"595 483 LINE SMOOTH",
"661 649 LINE",
"632 649 LINE",
"627 483 LINE",
"627 0 LINE",
"710 0 LINE",
"710 658 LINE",
"586 658 LINE",
"422 303 LINE",
"373 166 LINE",
"410 166 LINE",
"362 302 LINE",
"198 658 LINE",
"72 658 LINE",
"72 0 LINE"
);
}
);
userData = {
tnScalarpolator = {
scalarpolatorPrefs = {
LSB = "4";
RSB = 0;
baseline = -142.312;
interpolateX = 130.541;
interpolateY = 130.541;
lockScaleXY = 1;
scaleX = 72.537;
scaleY = 72.537;
};
};
};
width = 750;
}
);
leftKerningGroup = "@MMK_R_H";
rightKerningGroup = "@MMK_L_H";
unicode = 004D;
},
{
color = (255,255,0,255);
glyphname = N;
layers = (
{
layerId = master01;
paths = (
{
closed = 1;
nodes = (
"152 0 LINE",
"152 483 LINE",
"150 603 LINE",
"105 603 LINE",
"190 482 LINE",
"547 0 LINE",
"636 0 LINE",
"636 658 LINE",
"556 658 LINE",
"556 178 LINE",
"558 55 LINE",
"603 55 LINE",
"517 179 LINE",
"162 658 LINE",
"72 658 LINE",
"72 0 LINE"
);
}
);
userData = {
axes = {
wdth = {
defaultValue = 500;
enabled = 1;
maxValue = 1000;
minValue = 0;
name = wdth;
tag = wdth;
value = 500;
};
wght = {
defaultValue = 500;
enabled = 1;
maxValue = 1000;
minValue = 0;
name = wght;
tag = wght;
value = 500;
};
};
tnScalarpolator = {
scalarpolatorPrefs = {
LSB = "4";
RSB = 0;
baseline = -142.312;
interpolateX = 130.541;
interpolateY = 130.541;
lockScaleXY = 1;
scaleX = 72.537;
scaleY = 72.537;
};
};
};
width = 676;
}
);
leftKerningGroup = "@MMK_R_H";
rightKerningGroup = "@MMK_L_H";
unicode = 004E;
},
{
color = (255,255,0,255);
glyphname = O;
layers = (
{
layerId = master01;
paths = (
{
closed = 1;
nodes = (
"590 -15 OFFCURVE",
"727 122 OFFCURVE",
"727 329 CURVE SMOOTH",
"727 537 OFFCURVE",
"586 673 OFFCURVE",
"388 673 CURVE SMOOTH",
"189 673 OFFCURVE",
"48 534 OFFCURVE",
"48 329 CURVE SMOOTH",
"48 125 OFFCURVE",
"185 -15 OFFCURVE",
"388 -15 CURVE SMOOTH"
);
},
{
closed = 1;
nodes = (
"238 63 OFFCURVE",
"134 169 OFFCURVE",
"134 329 CURVE SMOOTH",
"134 489 OFFCURVE",
"238 595 OFFCURVE",
"388 595 CURVE SMOOTH",
"538 595 OFFCURVE",
"641 489 OFFCURVE",
"641 329 CURVE SMOOTH",
"641 169 OFFCURVE",
"538 63 OFFCURVE",
"388 63 CURVE SMOOTH"
);
}
);
userData = {
tnScalarpolator = {
scalarpolatorPrefs = {
LSB = 0;
RSB = 0;
autoGlyphSource = 1;
baseline = 0;
interpolateX = 100;
interpolateY = 100;
lockInterpolationXY = 1;
lockScaleXY = 1;
master1 = "Upgrade-Thin.ufo";
master2 = "Upgrade-Middle.ufo";
scaleX = 100;
scaleY = 100;
};
};
};
width = 767;
}
);
leftKerningGroup = "@MMK_R_O";
rightKerningGroup = "@MMK_L_O";
unicode = 004F;
},
{
color = (255,255,0,255);
glyphname = P;
layers = (
{
layerId = master01;
paths = (
{
closed = 1;
nodes = (
"156 0 LINE",
"156 236 LINE",
"209 236 LINE SMOOTH",
"364 236 OFFCURVE",
"453 317 OFFCURVE",
"453 447 CURVE SMOOTH",
"453 576 OFFCURVE",
"364 658 OFFCURVE",
"208 658 CURVE SMOOTH",
"72 658 LINE",
"72 0 LINE"
);
},
{
closed = 1;
nodes = (
"156 580 LINE",
"211 580 LINE SMOOTH",
"306 580 OFFCURVE",
"367 533 OFFCURVE",
"367 447 CURVE SMOOTH",
"367 360 OFFCURVE",
"306 312 OFFCURVE",
"212 312 CURVE SMOOTH",
"156 312 LINE"
);
}
);
userData = {
tnScalarpolator = {
scalarpolatorPrefs = {
LSB = "4";
RSB = 0;
baseline = -142.312;
interpolateX = 130.541;
interpolateY = 130.541;
lockScaleXY = 1;
scaleX = 72.537;
scaleY = 72.537;
};
};
};
width = 493;
}
);
leftKerningGroup = "@MMK_R_H";
rightKerningGroup = "@MMK_L_P";
unicode = 0050;
},
{
color = (255,255,0,255);
glyphname = Q;
layers = (
{
components = (
{
name = O;
}
);
guideLines = (
{
angle = 90;
position = "{726, 369}";
}
);
layerId = master01;
paths = (
{
closed = 1;
nodes = (
"691 -62 LINE",
"610 -50 OFFCURVE",
"548 -16 OFFCURVE",
"505 35 CURVE",
"403 12 LINE",
"469 -64 OFFCURVE",
"559 -116 OFFCURVE",
"667 -141 CURVE"
);
}
);
userData = {
tnScalarpolator = {
scalarpolatorPrefs = {
LSB = "4";
RSB = 0;
baseline = -142.312;
interpolateX = 130.541;
interpolateY = 130.541;
lockScaleXY = 1;
scaleX = 72.537;
scaleY = 72.537;
};
};
};
width = 767;
}
);
leftKerningGroup = "@MMK_R_O";
rightKerningGroup = "@MMK_L_O";
unicode = 0051;
},
{
color = (255,255,0,255);
glyphname = R;
layers = (
{
layerId = master01;
paths = (
{
closed = 1;
nodes = (
"507 0 LINE",
"422 225 LINE SMOOTH",
"397 289 OFFCURVE",
"355 323 OFFCURVE",
"289 326 CURVE",
"288 312 LINE",
"394 324 OFFCURVE",
"451 393 OFFCURVE",
"451 484 CURVE SMOOTH",
"451 589 OFFCURVE",
"374 658 OFFCURVE",
"249 658 CURVE SMOOTH",
"72 658 LINE",
"72 0 LINE",
"156 0 LINE",
"156 288 LINE",
"231 288 LINE SMOOTH",
"284 288 OFFCURVE",
"320 263 OFFCURVE",
"340 206 CURVE SMOOTH",
"416 0 LINE"
);
},
{
closed = 1;
nodes = (
"156 582 LINE",
"246 582 LINE SMOOTH",
"319 582 OFFCURVE",
"366 540 OFFCURVE",
"366 473 CURVE SMOOTH",
"366 403 OFFCURVE",
"322 360 OFFCURVE",
"249 360 CURVE SMOOTH",
"156 360 LINE"
);
}
);
userData = {
tnScalarpolator = {
scalarpolatorPrefs = {
LSB = "4";
RSB = 0;
baseline = -142.312;
interpolateX = 130.541;
interpolateY = 130.541;
lockScaleXY = 1;
scaleX = 72.537;
scaleY = 72.537;
};
};
};
width = 547;
}
);
leftKerningGroup = "@MMK_R_H";
rightKerningGroup = "@MMK_L_R";
unicode = 0052;
},
{
color = (255,255,0,255);
glyphname = S;
layers = (
{
layerId = master01;
paths = (
{
closed = 1;
nodes = (
"369 -15 OFFCURVE",
"449 63 OFFCURVE",
"449 178 CURVE SMOOTH",
"449 273 OFFCURVE",
"396 331 OFFCURVE",
"278 374 CURVE SMOOTH",
"260 380 LINE SMOOTH",
"181 410 OFFCURVE",
"145 440 OFFCURVE",
"145 496 CURVE SMOOTH",
"145 558 OFFCURVE",
"189 595 OFFCURVE",
"264 595 CURVE SMOOTH",
"326 595 OFFCURVE",
"379 574 OFFCURVE",
"429 535 CURVE",
"429 627 LINE",
"374 658 OFFCURVE",
"319 673 OFFCURVE",
"258 673 CURVE SMOOTH",
"137 673 OFFCURVE",
"60 600 OFFCURVE",
"60 494 CURVE SMOOTH",
"60 399 OFFCURVE",
"112 344 OFFCURVE",
"223 303 CURVE SMOOTH",
"241 296 LINE SMOOTH",
"327 264 OFFCURVE",
"364 230 OFFCURVE",
"364 169 CURVE SMOOTH",
"364 104 OFFCURVE",
"315 63 OFFCURVE",
"240 63 CURVE SMOOTH",
"173 63 OFFCURVE",
"111 84 OFFCURVE",
"57 125 CURVE",
"57 35 LINE",
"113 1 OFFCURVE",
"175 -15 OFFCURVE",
"243 -15 CURVE SMOOTH"
);
}
);
userData = {
tnScalarpolator = {
scalarpolatorPrefs = {
LSB = "4";
RSB = 0;
baseline = -142.312;
interpolateX = 130.541;
interpolateY = 130.541;
lockScaleXY = 1;
scaleX = 72.537;
scaleY = 72.537;
};
};
};
width = 489;
}
);
leftKerningGroup = "@MMK_R_S";
rightKerningGroup = "@MMK_L_S";
unicode = 0053;
},
{
color = (255,255,0,255);
glyphname = T;
layers = (
{
layerId = master01;
paths = (
{
closed = 1;
nodes = (
"321 0 LINE",
"321 579 LINE",
"537 579 LINE",
"537 658 LINE",
"20 658 LINE",
"20 579 LINE",
"237 579 LINE",
"237 0 LINE"
);
}
);
userData = {
tnScalarpolator = {
scalarpolatorPrefs = {
LSB = "4";
RSB = 0;
baseline = -142.312;
interpolateX = 130.541;
interpolateY = 130.541;
lockScaleXY = 1;
scaleX = 72.537;
scaleY = 72.537;
};
};
};
width = 577;
}
);
leftKerningGroup = "@MMK_R_T";
rightKerningGroup = "@MMK_L_T";
unicode = 0054;
},
{
color = (255,255,0,255);
glyphname = U;
layers = (
{
layerId = master01;
paths = (
{
closed = 1;
nodes = (
"495 -12 OFFCURVE",
"599 95 OFFCURVE",
"599 260 CURVE SMOOTH",
"599 658 LINE",
"517 658 LINE",
"517 260 LINE SMOOTH",
"517 144 OFFCURVE",
"447 68 OFFCURVE",
"334 68 CURVE SMOOTH",
"223 68 OFFCURVE",
"150 144 OFFCURVE",
"150 260 CURVE SMOOTH",
"150 658 LINE",
"66 658 LINE",
"66 260 LINE SMOOTH",
"66 95 OFFCURVE",
"170 -12 OFFCURVE",
"333 -12 CURVE SMOOTH"
);
}
);
userData = {
tnScalarpolator = {
scalarpolatorPrefs = {
LSB = "4";
RSB = 0;
baseline = -142.312;
interpolateX = 130.541;
interpolateY = 130.541;
lockInterpolationXY = 1;
lockScaleXY = 1;
scaleX = 72.537;
scaleY = 72.537;
};
};
};
width = 639;
}
);
leftKerningGroup = "@MMK_R_U";
rightKerningGroup = "@MMK_L_U";
unicode = 0055;
},
{
color = (255,229,128,255);
glyphname = Uogonek;
layers = (
{
layerId = master01;
paths = (
{
closed = 1;
nodes = (
"506 -153 LINE",
"443 -153 OFFCURVE",
"403 -117 OFFCURVE",
"403 -66 CURVE SMOOTH",
"403 -29 OFFCURVE",
"422 -2 OFFCURVE",
"456 14 CURVE SMOOTH",
"545 52 OFFCURVE",
"599 143 OFFCURVE",
"599 260 CURVE SMOOTH",
"599 658 LINE",
"517 658 LINE",
"517 260 LINE SMOOTH",
"517 144 OFFCURVE",
"447 68 OFFCURVE",
"334 68 CURVE SMOOTH",
"223 68 OFFCURVE",
"150 144 OFFCURVE",
"150 260 CURVE SMOOTH",
"150 658 LINE",
"66 658 LINE",
"66 260 LINE SMOOTH",
"66 95 OFFCURVE",
"170 -12 OFFCURVE",
"333 -12 CURVE SMOOTH",
"370 -12 OFFCURVE",
"404 -6 OFFCURVE",
"436 6 CURVE",
"437 48 LINE",
"374 32 OFFCURVE",
"331 -14 OFFCURVE",
"331 -81 CURVE SMOOTH",
"331 -163 OFFCURVE",
"399 -220 OFFCURVE",
"506 -220 CURVE"
);
}
);
userData = {
tnScalarpolator = {
scalarpolatorPrefs = {
LSB = "4";
RSB = 0;
baseline = -142.312;
interpolateX = 130.541;
interpolateY = 130.541;
lockScaleXY = 1;
scaleX = 72.537;
scaleY = 72.537;
};
};
};
width = 639;
}
);
leftKerningGroup = "@MMK_R_U";
rightKerningGroup = "@MMK_L_U";
unicode = 0172;
},
{
color = (255,255,0,255);
glyphname = V;
layers = (
{
layerId = master01;
paths = (
{
closed = 1;
nodes = (
"359 0 LINE",
"624 658 LINE",
"539 658 LINE",
"349 175 LINE",
"306 56 LINE",
"342 56 LINE",
"299 175 LINE",
"109 658 LINE",
"18 658 LINE",
"283 0 LINE"
);
}
);
userData = {
tnScalarpolator = {
scalarpolatorPrefs = {
LSB = "4";
RSB = 0;
baseline = -142.312;
interpolateX = 130.541;
interpolateY = 130.541;
lockScaleXY = 1;
scaleX = 72.537;
scaleY = 72.537;
};
};
};
width = 664;
}
);
leftKerningGroup = "@MMK_R_V";
rightKerningGroup = "@MMK_L_V";
unicode = 0056;
},
{
color = (255,255,0,255);
glyphname = W;
layers = (
{
layerId = master01;
paths = (
{
closed = 1;
nodes = (
"312 0 LINE",
"457 483 LINE",
"498 650 LINE",
"450 650 LINE",
"491 483 LINE",
"636 0 LINE",
"723 0 LINE",
"929 658 LINE",
"846 658 LINE",
"700 175 LINE",
"661 20 LINE",
"705 20 LINE",
"666 175 LINE",
"520 658 LINE",
"433 658 LINE",
"287 175 LINE",
"248 20 LINE",
"291 20 LINE",
"252 175 LINE",
"106 658 LINE",
"18 658 LINE",
"223 0 LINE"
);
}
);
userData = {
tnScalarpolator = {
scalarpolatorPrefs = {
LSB = "4";
RSB = 0;
baseline = -142.312;
interpolateX = 130.541;
interpolateY = 130.541;
lockScaleXY = 1;
scaleX = 72.537;
scaleY = 72.537;
};
};
};
width = 969;
}
);
leftKerningGroup = "@MMK_R_W";
rightKerningGroup = "@MMK_L_W";
unicode = 0057;
},
{
color = (255,255,0,255);
glyphname = X;
layers = (
{
layerId = master01;
paths = (
{
closed = 1;
nodes = (
"122 0 LINE",
"275 229 LINE",
"322 298 LINE",
"340 319 LINE",
"573 658 LINE",
"478 658 LINE",
"338 450 LINE",
"297 388 LINE",
"274 362 LINE",
"26 0 LINE"
);
},
{
closed = 1;
nodes = (
"592 0 LINE",
"340 364 LINE",
"320 390 LINE",
"280 450 LINE",
"141 658 LINE",
"39 658 LINE",
"271 318 LINE",
"291 291 LINE",
"334 229 LINE",
"490 0 LINE"
);
}
);
userData = {
tnScalarpolator = {
scalarpolatorPrefs = {
LSB = "4";
RSB = 0;
baseline = -142.312;
interpolateX = 130.541;
interpolateY = 130.541;
lockScaleXY = 1;
scaleX = 72.537;
scaleY = 72.537;
};
};
};
width = 632;
}
);
leftKerningGroup = "@MMK_R_X";
rightKerningGroup = "@MMK_L_K";
unicode = 0058;
},
{
color = (255,255,0,255);
glyphname = Y;
layers = (
{
layerId = master01;
paths = (
{
closed = 1;
nodes = (
"337 0 LINE",
"337 301 LINE",
"322 256 LINE",
"577 658 LINE",
"485 658 LINE",
"331 414 LINE",
"272 314 LINE",
"324 314 LINE",
"266 414 LINE",
"111 658 LINE",
"13 658 LINE",
"269 256 LINE",
"253 302 LINE",
"253 0 LINE"
);
}
);
userData = {
tnScalarpolator = {
scalarpolatorPrefs = {
LSB = "4";
RSB = 0;
baseline = -142.312;
interpolateX = 130.541;
interpolateY = 130.541;
lockScaleXY = 1;
scaleX = 72.537;
scaleY = 72.537;
};
};
};
width = 617;
}
);
leftKerningGroup = "@MMK_R_Y";
rightKerningGroup = "@MMK_L_Y";
unicode = 0059;
},
{
color = (255,255,0,255);
glyphname = Z;
layers = (
{
layerId = master01;
paths = (
{
closed = 1;
nodes = (
"537 0 LINE",
"537 79 LINE",
"132 79 LINE",
"132 18 LINE",
"204 124 LINE",
"537 613 LINE",
"537 658 LINE",
"57 658 LINE",
"57 579 LINE",
"456 579 LINE",
"456 641 LINE",
"382 534 LINE",
"50 47 LINE",
"50 0 LINE"
);
}
);
userData = {
tnScalarpolator = {
scalarpolatorPrefs = {
LSB = "4";
RSB = 0;
baseline = -142.312;
interpolateX = 130.541;
interpolateY = 130.541;
lockScaleXY = 1;
scaleX = 72.537;
scaleY = 72.537;
};
};
};
width = 577;
}
);
leftKerningGroup = "@MMK_R_Z";
rightKerningGroup = "@MMK_L_Z";
unicode = 005A;
},
{
color = (255,255,0,255);
glyphname = AE;
layers = (
{
layerId = master01;
paths = (
{
closed = 1;
nodes = (
"97 0 LINE",
"209 202 LINE",
"186 202 LINE",
"409 202 LINE",
"409 0 LINE",
"781 0 LINE",
"781 79 LINE",
"493 79 LINE",
"493 294 LINE",
"759 294 LINE",
"759 373 LINE",
"493 373 LINE",
"493 579 LINE",
"771 579 LINE",
"771 658 LINE",
"367 658 LINE",
"9 0 LINE"
);
},
{
closed = 1;
nodes = (
"376 507 LINE",
"422 599 LINE",
"409 599 LINE",
"409 281 LINE",
"224 281 LINE",
"249 281 LINE"
);
}
);
userData = {
axes = {
wdth = {
defaultValue = 500;
enabled = 1;
maxValue = 1000;
minValue = 0;
name = wdth;
tag = wdth;
value = 500;
};
wght = {
defaultValue = 500;
enabled = 1;
maxValue = 1000;
minValue = 0;
name = wght;
tag = wght;
value = 500;
};
};
com.typemytype.robofont.Image.Brightness = 0;
com.typemytype.robofont.Image.Contrast = 1;
com.typemytype.robofont.Image.Saturation = 1;
com.typemytype.robofont.Image.Sharpness = 0.4;
tnScalarpolator = {
scalarpolatorPrefs = {
LSB = "4";
RSB = 0;
baseline = -142.312;
interpolateX = 130.541;
interpolateY = 130.541;
lockScaleXY = 1;
scaleX = 72.537;
scaleY = 72.537;
};
};
};
width = 821;
}
);
leftKerningGroup = "@MMK_R_AE";
rightKerningGroup = "@MMK_L_E";
unicode = 00C6;
},
{
color = (255,255,0,255);
glyphname = Eth;
layers = (
{
components = (
{
name = D;
transform = "{1, 0, 0, 1, 5, 0}";
}
);
layerId = master01;
paths = (
{
closed = 1;
nodes = (
"284 293 LINE",
"284 366 LINE",
"25 366 LINE",
"25 293 LINE"
);
}
);
userData = {
axes = {
wdth = {
defaultValue = 500;
enabled = 1;
maxValue = 1000;
minValue = 0;
name = wdth;
tag = wdth;
value = 500;
};
wght = {
defaultValue = 500;
enabled = 1;
maxValue = 1000;
minValue = 0;
name = wght;
tag = wght;
value = 500;
};
};
tnScalarpolator = {
scalarpolatorPrefs = {
LSB = "4";
RSB = 0;
baseline = -142.312;
interpolateX = 130.541;
interpolateY = 130.541;
lockScaleXY = 1;
scaleX = 72.537;
scaleY = 72.537;
};
};
};
width = 681;
}
);
leftKerningGroup = "@MMK_R_Dcroat";
rightKerningGroup = "@MMK_L_O";
unicode = 00D0;
},
{
color = (255,255,0,255);
glyphname = Oslash;
layers = (
{
components = (
{
name = O;
}
);
layerId = master01;
paths = (
{
closed = 1;
nodes = (
"198 -48 LINE",
"661 706 LINE",
"579 706 LINE",
"116 -48 LINE"
);
}
);
userData = {
axes = {
wdth = {
defaultValue = 500;
enabled = 1;
maxValue = 1000;
minValue = 0;
name = wdth;
tag = wdth;
value = 500;
};
wght = {
defaultValue = 500;
enabled = 1;
maxValue = 1000;
minValue = 0;
name = wght;
tag = wght;
value = 500;
};
};
tnScalarpolator = {
scalarpolatorPrefs = {
LSB = "4";
RSB = 0;
baseline = -142.312;
interpolateX = 130.541;
interpolateY = 130.541;
lockScaleXY = 1;
scaleX = 72.537;
scaleY = 72.537;
};
};
};
width = 767;
}
);
leftKerningGroup = "@MMK_R_O";
rightKerningGroup = "@MMK_L_O";
unicode = 00D8;
},
{
color = (0,0,0,128);
glyphname = Oslashacute;
layers = (
{
components = (
{
name = O;
},
{
name = acutecmb.uc;
transform = "{1, 0, 0, 1, 392, 12}";
}
);
layerId = master01;
paths = (
{
closed = 1;
nodes = (
"198 -48 LINE",
"661 706 LINE",
"579 706 LINE",
"116 -48 LINE"
);
}
);
userData = {
axes = {
wdth = {
defaultValue = 500;
enabled = 1;
maxValue = 1000;
minValue = 0;
name = wdth;
tag = wdth;
value = 500;
};
wght = {
defaultValue = 500;
enabled = 1;
maxValue = 1000;
minValue = 0;
name = wght;
tag = wght;
value = 500;
};
};
com.typenetwork.accentbuilder.locked = 0;
tnScalarpolator = {
scalarpolatorPrefs = {
LSB = "4";
RSB = 0;
baseline = -142.312;
interpolateX = 130.541;
interpolateY = 130.541;
lockScaleXY = 1;
scaleX = 72.537;
scaleY = 72.537;
};
};
};
width = 767;
}
);
leftKerningGroup = "@MMK_R_O";
rightKerningGroup = "@MMK_L_O";
unicode = 01FE;
},
{
color = (255,255,0,255);
glyphname = Thorn;
layers = (
{
layerId = master01;
paths = (
{
closed = 1;
nodes = (
"156 0 LINE",
"156 125 LINE",
"216 125 LINE SMOOTH",
"358 125 OFFCURVE",
"449 205 OFFCURVE",
"449 334 CURVE SMOOTH",
"449 463 OFFCURVE",
"358 543 OFFCURVE",
"216 543 CURVE SMOOTH",
"156 543 LINE",
"156 658 LINE",
"72 658 LINE",
"72 0 LINE"
);
},
{
closed = 1;
nodes = (
"156 466 LINE",
"216 466 LINE SMOOTH",
"304 466 OFFCURVE",
"364 415 OFFCURVE",
"364 334 CURVE SMOOTH",
"364 253 OFFCURVE",
"305 202 OFFCURVE",
"217 202 CURVE SMOOTH",
"156 202 LINE"
);
}
);
userData = {
axes = {
wdth = {
defaultValue = 500;
enabled = 1;
maxValue = 1000;
minValue = 0;
name = wdth;
tag = wdth;
value = 500;
};
wght = {
defaultValue = 500;
enabled = 1;
maxValue = 1000;
minValue = 0;
name = wght;
tag = wght;
value = 500;
};
};
tnScalarpolator = {
scalarpolatorPrefs = {
LSB = "4";
RSB = 0;
baseline = -142.312;
interpolateX = 130.541;
interpolateY = 130.541;
lockScaleXY = 1;
scaleX = 72.537;
scaleY = 72.537;
};
};
};
width = 489;
}
);
leftKerningGroup = "@MMK_R_H";
rightKerningGroup = "@MMK_L_Thorn";
unicode = 00DE;
},
{
color = (204,255,204,255);
glyphname = Hbar;
layers = (
{
layerId = master01;
paths = (
{
closed = 1;
nodes = (
"167 0 LINE",
"167 293 LINE",
"539 293 LINE",
"539 0 LINE",
"623 0 LINE",
"623 658 LINE",
"539 658 LINE",
"539 372 LINE",
"167 372 LINE",
"167 658 LINE",
"83 658 LINE",
"83 0 LINE"
);
},
{
closed = 1;
nodes = (
"677 474 LINE",
"677 547 LINE",
"30 547 LINE",
"30 474 LINE"
);
}
);
userData = {
tnScalarpolator = {
scalarpolatorPrefs = {
LSB = "4";
RSB = 0;
baseline = -142.312;
interpolateX = 130.541;
interpolateY = 130.541;
lockScaleXY = 1;
scaleX = 72.537;
scaleY = 72.537;
};
};
};
width = 717;
}
);
unicode = 0126;
},
{
color = (255,255,0,255);
glyphname = Lslash;
layers = (
{
components = (
{
name = L;
transform = "{1, 0, 0, 1, -1, 0}";
}
);
layerId = master01;
paths = (
{
closed = 1;
nodes = (
"262 355 LINE",
"262 430 LINE",
"16 352 LINE",
"16 277 LINE"
);
}
);
userData = {
tnScalarpolator = {
scalarpolatorPrefs = {
LSB = "4";
RSB = 0;
baseline = -142.312;
interpolateX = 130.541;
interpolateY = 130.541;
lockScaleXY = 1;
scaleX = 72.537;
scaleY = 72.537;
};
};
};
width = 486;
}
);
rightKerningGroup = "@MMK_L_Lslash";
unicode = 0141;
},
{
color = (255,255,0,255);
glyphname = Eng;
layers = (
{
layerId = master01;
paths = (
{
closed = 1;
nodes = (
"570 -215 OFFCURVE",
"636 -152 OFFCURVE",
"636 -47 CURVE SMOOTH",
"636 42 LINE",
"559 42 LINE",
"559 -47 LINE SMOOTH",
"559 -107 OFFCURVE",
"521 -141 OFFCURVE",
"463 -141 CURVE SMOOTH",
"455 -141 LINE",
"455 -215 LINE",
"463 -215 LINE SMOOTH"
);
},
{
closed = 1;
nodes = (
"152 0 LINE",
"152 482 LINE",
"150 603 LINE",
"101 603 LINE",
"186 481 LINE",
"559 0 LINE",
"636 0 LINE",
"636 658 LINE",
"556 658 LINE",
"556 182 LINE",
"558 55 LINE",
"614 55 LINE",
"524 182 LINE",
"155 658 LINE",
"72 658 LINE",
"72 0 LINE"
);
}
);
userData = {
tnScalarpolator = {
scalarpolatorPrefs = {
LSB = "4";
RSB = 0;
baseline = -142.312;
interpolateX = 130.541;
interpolateY = 130.541;
lockScaleXY = 1;
scaleX = 72.537;
scaleY = 72.537;
};
};
};
width = 676;
}
);
leftKerningGroup = "@MMK_R_H";
rightKerningGroup = "@MMK_L_H";
unicode = 014A;
},
{
color = (255,255,0,255);
glyphname = OE;
layers = (
{
layerId = master01;
paths = (
{
closed = 1;
nodes = (
"832 0 LINE",
"832 79 LINE",
"545 79 LINE",
"545 294 LINE",
"810 294 LINE",
"810 373 LINE",
"545 373 LINE",
"545 579 LINE",
"822 579 LINE",
"822 658 LINE",
"396 658 LINE SMOOTH",
"183 658 OFFCURVE",
"48 531 OFFCURVE",
"48 331 CURVE SMOOTH",
"48 129 OFFCURVE",
"182 0 OFFCURVE",
"393 0 CURVE SMOOTH"
);
},
{
closed = 1;
nodes = (
"233 79 OFFCURVE",
"134 176 OFFCURVE",
"134 331 CURVE SMOOTH",
"134 483 OFFCURVE",
"235 579 OFFCURVE",
"393 579 CURVE SMOOTH",
"460 579 LINE",
"460 79 LINE",
"390 79 LINE SMOOTH"
);
}
);
userData = {
tnScalarpolator = {
scalarpolatorPrefs = {
LSB = "4";
RSB = 0;
baseline = -142.312;
interpolateX = 130.541;
interpolateY = 130.541;
lockScaleXY = 1;
scaleX = 72.537;
scaleY = 72.537;
};
};
};
width = 872;
}
);
leftKerningGroup = "@MMK_R_O";
rightKerningGroup = "@MMK_L_E";
unicode = 0152;
},
{
color = (255,255,0,255);
glyphname = Tbar;
layers = (
{
components = (
{
name = T;
}
);
layerId = master01;
paths = (
{
closed = 1;
nodes = (
"445 310 LINE",
"445 383 LINE",
"113 383 LINE",
"113 310 LINE"
);
}
);
userData = {
tnScalarpolator = {
scalarpolatorPrefs = {
LSB = "4";
RSB = 0;
baseline = -142.312;
interpolateX = 130.541;
interpolateY = 130.541;
lockScaleXY = 1;
scaleX = 72.537;
scaleY = 72.537;
};
};
};
width = 577;
}
);
leftKerningGroup = "@MMK_R_T";
rightKerningGroup = "@MMK_L_T";
unicode = 0166;
},
{
color = (255,255,0,255);
glyphname = Omega;
layers = (
{
layerId = master01;
paths = (
{
closed = 1;
nodes = (
"301 0 LINE",
"301 167 LINE",
"193 180 OFFCURVE",
"123 269 OFFCURVE",
"123 378 CURVE SMOOTH",
"123 505 OFFCURVE",
"206 593 OFFCURVE",
"337 593 CURVE SMOOTH",
"469 593 OFFCURVE",
"551 504 OFFCURVE",
"551 376 CURVE SMOOTH",
"551 266 OFFCURVE",
"479 178 OFFCURVE",
"367 167 CURVE",
"367 0 LINE",
"611 0 LINE",
"611 80 LINE",
"406 80 LINE",
"430 64 LINE",
"430 139 LINE",
"413 108 LINE",
"541 129 OFFCURVE",
"637 233 OFFCURVE",
"637 379 CURVE SMOOTH",
"637 563 OFFCURVE",
"511 672 OFFCURVE",
"337 672 CURVE SMOOTH",
"163 672 OFFCURVE",
"38 562 OFFCURVE",
"38 377 CURVE SMOOTH",
"38 234 OFFCURVE",
"130 131 OFFCURVE",
"254 110 CURVE",
"238 128 LINE",
"238 68 LINE",
"255 80 LINE",
"56 80 LINE",
"56 0 LINE"
);
}
);
userData = {
axes = {
wdth = {
defaultValue = 500;
enabled = 1;
maxValue = 1000;
minValue = 0;
name = wdth;
tag = wdth;
value = 500;
};
wght = {
defaultValue = 500;
enabled = 1;
maxValue = 1000;
minValue = 0;
name = wght;
tag = wght;
value = 500;
};
};
tnScalarpolator = {
scalarpolatorPrefs = {
LSB = "4";
RSB = 0;
baseline = -142.312;
interpolateX = 130.541;
interpolateY = 130.541;
lockScaleXY = 1;
scaleX = 72.537;
scaleY = 72.537;
};
};
};
width = 677;
}
);
leftKerningGroup = "@MMK_R_Omega";
rightKerningGroup = "@MMK_L_Omega";
unicode = "A7B6,2126";
},
{
glyphname = Delta;
layers = (
{
layerId = master01;
paths = (
{
closed = 1;
nodes = (
"257 670 LINE",
"353 670 LINE",
"584 0 LINE",
"26 0 LINE"
);
},
{
closed = 1;
nodes = (
"467 77 LINE",
"300 572 LINE",
"132 77 LINE"
);
}
);
userData = {
tnScalarpolator = {
scalarpolatorPrefs = {
LSB = "4";
RSB = 0;
baseline = -142.312;
interpolateX = 130.541;
interpolateY = 130.541;
lockScaleXY = 1;
scaleX = 72.537;
scaleY = 72.537;
};
};
};
width = 624;
}
);
leftKerningGroup = "@MMK_R_Delta";
rightKerningGroup = "@MMK_L_Delta";
unicode = "0394,2206";
},
{
color = (255,255,0,255);
glyphname = a;
layers = (
{
layerId = master01;
paths = (
{
closed = 1;
nodes = (
"238 -10 OFFCURVE",
"286 16 OFFCURVE",
"315 63 CURVE",
"321 0 LINE",
"396 0 LINE",
"396 323 LINE SMOOTH",
"396 424 OFFCURVE",
"333 479 OFFCURVE",
"219 479 CURVE SMOOTH",
"167 479 OFFCURVE",
"111 463 OFFCURVE",
"59 440 CURVE",
"59 359 LINE",
"106 389 OFFCURVE",
"155 404 OFFCURVE",
"209 404 CURVE SMOOTH",
"276 404 OFFCURVE",
"314 378 OFFCURVE",
"314 321 CURVE SMOOTH",
"314 294 LINE",
"215 281 LINE SMOOTH",
"100 264 OFFCURVE",
"38 208 OFFCURVE",
"38 124 CURVE SMOOTH",
"38 42 OFFCURVE",
"94 -10 OFFCURVE",
"181 -10 CURVE SMOOTH"
);
},
{
closed = 1;
nodes = (
"151 57 OFFCURVE",
"119 86 OFFCURVE",
"119 132 CURVE SMOOTH",
"119 181 OFFCURVE",
"157 214 OFFCURVE",
"225 223 CURVE SMOOTH",
"314 235 LINE",
"314 128 LINE",
"296 86 OFFCURVE",
"255 57 OFFCURVE",
"204 57 CURVE SMOOTH"
);
}
);
userData = {
axes = {
DFLT = {
defaultValue = 0;
enabled = 1;
maxValue = 1000;
minValue = 0;
name = DFLT;
tag = DFLT;
value = 0;
};
wdth = {
defaultValue = 500;
enabled = 1;
maxValue = 1000;
minValue = 0;
name = wdth;
tag = wdth;
value = 500;
};
wght = {
defaultValue = 500;
enabled = 1;
maxValue = 1000;
minValue = 0;
name = wght;
tag = wght;
value = 500;
};
wght800 = {
defaultValue = 0;
enabled = 1;
maxValue = 1000;
minValue = 0;
name = wght800;
tag = wght800;
value = 0;
};
};
tnScalarpolator = {
scalarpolatorPrefs = {
LSB = 0;
RSB = 0;
baseline = -142.744;
baselineMax = 750;
baselineMin = -250;
glyphSource = a;
interpolateX = 119.422;
interpolateXMax = 150;
interpolateXMin = -50;
interpolateY = 119.422;
interpolateYMax = 150;
interpolateYMin = -50;
lockInterpolationXY = 1;
lockScaleXY = 1;
scaleX = 81.888;
scaleXMax = 200;
scaleXMin = 0;
scaleY = 81.888;
scaleYMax = 200;
scaleYMin = 0;
};
};
};
width = 436;
}
);
leftKerningGroup = "@MMK_R_a";
rightKerningGroup = "@MMK_L_a";
unicode = 0061;
},
{
color = (255,255,0,255);
glyphname = b;
layers = (
{
layerId = master01;
paths = (
{
closed = 1;
nodes = (
"380 -10 OFFCURVE",
"473 86 OFFCURVE",
"473 242 CURVE SMOOTH",
"473 386 OFFCURVE",
"394 476 OFFCURVE",
"273 476 CURVE SMOOTH",
"226 476 OFFCURVE",
"177 458 OFFCURVE",
"144 426 CURVE",
"144 720 LINE",
"63 720 LINE",
"63 22 LINE",
"119 0 OFFCURVE",
"176 -10 OFFCURVE",
"236 -10 CURVE SMOOTH"
);
},
{
closed = 1;
nodes = (
"207 61 OFFCURVE",
"175 66 OFFCURVE",
"144 76 CURVE",
"144 359 LINE",
"175 389 OFFCURVE",
"213 404 OFFCURVE",
"255 404 CURVE SMOOTH",
"340 404 OFFCURVE",
"391 339 OFFCURVE",
"391 236 CURVE SMOOTH",
"391 130 OFFCURVE",
"331 61 OFFCURVE",
"240 61 CURVE SMOOTH"
);
}
);
userData = {
axes = {
wdth = {
defaultValue = 500;
enabled = 1;
maxValue = 1000;
minValue = 0;
name = wdth;
tag = wdth;
value = 500;
};
wght = {
defaultValue = 500;
enabled = 1;
maxValue = 1000;
minValue = 0;
name = wght;
tag = wght;
value = 500;
};
};
tnScalarpolator = {
scalarpolatorPrefs = {
LSB = "4";
RSB = 0;
baseline = -142.312;
interpolateX = 130.541;
interpolateY = 130.541;
lockScaleXY = 1;
scaleX = 72.537;
scaleY = 72.537;
};
};
};
width = 513;
}
);
leftKerningGroup = "@MMK_R_h";
rightKerningGroup = "@MMK_L_o";
unicode = 0062;
},
{
color = (255,255,0,255);
glyphname = c;
layers = (
{
layerId = master01;
paths = (
{
closed = 1;
nodes = (
"330 -10 OFFCURVE",
"380 5 OFFCURVE",
"422 32 CURVE",
"422 116 LINE",
"383 85 OFFCURVE",
"335 66 OFFCURVE",
"285 66 CURVE SMOOTH",
"187 66 OFFCURVE",
"124 128 OFFCURVE",
"124 233 CURVE SMOOTH",
"124 340 OFFCURVE",
"184 400 OFFCURVE",
"281 400 CURVE SMOOTH",
"332 400 OFFCURVE",
"376 385 OFFCURVE",
"422 355 CURVE",
"422 439 LINE",
"376 464 OFFCURVE",
"327 476 OFFCURVE",
"278 476 CURVE SMOOTH",
"133 476 OFFCURVE",
"41 384 OFFCURVE",
"41 232 CURVE SMOOTH",
"41 83 OFFCURVE",
"134 -10 OFFCURVE",
"280 -10 CURVE SMOOTH"
);
}
);
userData = {
tnScalarpolator = {
scalarpolatorPrefs = {
LSB = "4";
RSB = 0;
baseline = -142.312;
interpolateX = 130.541;
interpolateY = 130.541;
lockScaleXY = 1;
scaleX = 72.537;
scaleY = 72.537;
};
};
};
width = 462;
}
);
leftKerningGroup = "@MMK_R_o";
rightKerningGroup = "@MMK_L_c";
unicode = 0063;
},
{
color = (255,255,0,255);
glyphname = d;
layers = (
{
layerId = master01;
paths = (
{
closed = 1;
nodes = (
"298 -10 OFFCURVE",
"349 17 OFFCURVE",
"378 63 CURVE",
"384 0 LINE",
"459 0 LINE",
"459 720 LINE",
"377 720 LINE",
"377 441 LINE",
"343 463 OFFCURVE",
"300 476 OFFCURVE",
"259 476 CURVE SMOOTH",
"132 476 OFFCURVE",
"41 386 OFFCURVE",
"41 229 CURVE SMOOTH",
"41 76 OFFCURVE",
"125 -10 OFFCURVE",
"245 -10 CURVE SMOOTH"
);
},
{
closed = 1;
nodes = (
"175 62 OFFCURVE",
"124 129 OFFCURVE",
"124 232 CURVE SMOOTH",
"124 336 OFFCURVE",
"180 405 OFFCURVE",
"269 405 CURVE SMOOTH",
"309 405 OFFCURVE",
"347 391 OFFCURVE",
"377 366 CURVE",
"377 132 LINE",
"353 90 OFFCURVE",
"311 62 OFFCURVE",
"261 62 CURVE SMOOTH"
);
}
);
userData = {
tnScalarpolator = {
scalarpolatorPrefs = {
LSB = "4";
RSB = 0;
baseline = -142.312;
interpolateX = 130.541;
interpolateY = 130.541;
lockScaleXY = 1;
scaleX = 72.537;
scaleY = 72.537;
};
};
};
width = 499;
}
);
leftKerningGroup = "@MMK_R_o";
rightKerningGroup = "@MMK_L_l";
unicode = 0064;
},
{
color = (255,255,0,255);
glyphname = e;
layers = (
{
layerId = master01;
paths = (
{
closed = 1;
nodes = (
"332 -10 OFFCURVE",
"390 6 OFFCURVE",
"447 38 CURVE",
"447 116 LINE",
"392 79 OFFCURVE",
"338 60 OFFCURVE",
"283 60 CURVE SMOOTH",
"182 60 OFFCURVE",
"125 119 OFFCURVE",
"125 213 CURVE SMOOTH",
"125 261 LINE SMOOTH",
"125 349 OFFCURVE",
"177 408 OFFCURVE",
"255 408 CURVE SMOOTH",
"332 408 OFFCURVE",
"377 357 OFFCURVE",
"377 274 CURVE",
"111 274 LINE",
"111 211 LINE",
"459 211 LINE",
"459 241 LINE SMOOTH",
"459 393 OFFCURVE",
"382 476 OFFCURVE",
"256 476 CURVE SMOOTH",
"125 476 OFFCURVE",
"41 379 OFFCURVE",
"41 234 CURVE SMOOTH",
"41 82 OFFCURVE",
"126 -10 OFFCURVE",
"274 -10 CURVE SMOOTH"
);
}
);
userData = {
axes = {
wdth = {
defaultValue = 0;
enabled = 1;
maxValue = 1000;
minValue = 0;
name = wdth;
tag = wdth;
value = 0;
};
wght = {
defaultValue = 0;
enabled = 1;
maxValue = 1000;
minValue = 0;
name = wght;
tag = wght;
value = 0;
};
};
tnScalarpolator = {
scalarpolatorPrefs = {
LSB = "4";
RSB = 0;
baseline = -142.312;
interpolateX = 130.541;
interpolateY = 130.541;
lockScaleXY = 1;
scaleX = 72.537;
scaleY = 72.537;
};
};
};
width = 499;
}
);
leftKerningGroup = "@MMK_R_o";
rightKerningGroup = "@MMK_L_e";
unicode = 0065;
},
{
color = (0,0,0,128);
glyphname = eogonek;
layers = (
{
layerId = master01;
paths = (
{
closed = 1;
nodes = (
"430 -151 LINE",
"369 -151 OFFCURVE",
"328 -116 OFFCURVE",
"328 -69 CURVE SMOOTH",
"328 -32 OFFCURVE",
"348 -6 OFFCURVE",
"382 8 CURVE SMOOTH",
"404 17 OFFCURVE",
"426 26 OFFCURVE",
"447 38 CURVE",
"447 116 LINE",
"392 79 OFFCURVE",
"338 60 OFFCURVE",
"283 60 CURVE SMOOTH",
"182 60 OFFCURVE",
"125 119 OFFCURVE",
"125 213 CURVE SMOOTH",
"125 261 LINE SMOOTH",
"125 349 OFFCURVE",
"177 408 OFFCURVE",
"255 408 CURVE SMOOTH",
"332 408 OFFCURVE",
"377 357 OFFCURVE",
"377 274 CURVE",
"111 274 LINE",
"111 211 LINE",
"459 211 LINE",
"459 241 LINE SMOOTH",
"459 393 OFFCURVE",
"382 476 OFFCURVE",
"256 476 CURVE SMOOTH",
"125 476 OFFCURVE",
"41 379 OFFCURVE",
"41 234 CURVE SMOOTH",
"41 82 OFFCURVE",
"126 -10 OFFCURVE",
"274 -10 CURVE SMOOTH",
"310 -10 OFFCURVE",
"337 -6 OFFCURVE",
"373 5 CURVE",
"368 45 LINE",
"302 32 OFFCURVE",
"255 -15 OFFCURVE",
"255 -82 CURVE SMOOTH",
"255 -161 OFFCURVE",
"324 -215 OFFCURVE",
"430 -215 CURVE"
);
}
);
userData = {
com.typenetwork.accentbuilder.locked = 0;
tnScalarpolator = {
scalarpolatorPrefs = {
LSB = "4";
RSB = 0;
baseline = -142.312;
interpolateX = 130.541;
interpolateY = 130.541;
lockScaleXY = 1;
scaleX = 72.537;
scaleY = 72.537;
};
};
};
width = 499;
}
);
leftKerningGroup = "@MMK_R_o";
rightKerningGroup = "@MMK_L_e";
unicode = 0119;
},
{
color = (255,255,0,255);
glyphname = f;
layers = (
{
layerId = master01;
paths = (
{
closed = 1;
nodes = (
"172 0 LINE",
"172 392 LINE",
"258 392 LINE",
"258 466 LINE",
"172 466 LINE",
"172 548 LINE SMOOTH",
"172 617 OFFCURVE",
"206 655 OFFCURVE",
"264 655 CURVE SMOOTH",
"297 655 OFFCURVE",
"331 645 OFFCURVE",
"358 629 CURVE",
"358 709 LINE",
"326 723 OFFCURVE",
"291 730 OFFCURVE",
"257 730 CURVE SMOOTH",
"152 730 OFFCURVE",
"90 658 OFFCURVE",
"90 546 CURVE SMOOTH",
"90 466 LINE",
"20 466 LINE",
"20 392 LINE",
"90 392 LINE",
"90 0 LINE"
);
}
);
userData = {
tnScalarpolator = {
scalarpolatorPrefs = {
LSB = 0;
RSB = 0;
baseline = 0;
interpolateX = 100;
interpolateY = 100;
lockInterpolationXY = 1;
lockScaleXY = 1;
scaleX = 100;
scaleY = 100;
};
};
};
width = 398;
}
);
leftKerningGroup = "@MMK_R_f";
rightKerningGroup = "@MMK_L_f";
unicode = 0066;
},
{
color = (255,255,0,255);
glyphname = g;
layers = (
{
layerId = master01;
paths = (
{
closed = 1;
nodes = (
"174 62 OFFCURVE",
"124 129 OFFCURVE",
"124 232 CURVE SMOOTH",
"124 332 OFFCURVE",
"179 405 OFFCURVE",
"270 405 CURVE SMOOTH",
"309 405 OFFCURVE",
"354 389 OFFCURVE",
"378 364 CURVE",
"378 125 LINE",
"354 88 OFFCURVE",
"314 62 OFFCURVE",
"264 62 CURVE SMOOTH"
);
},
{
closed = 1;
nodes = (
"375 -224 OFFCURVE",
"460 -136 OFFCURVE",
"460 0 CURVE SMOOTH",
"460 466 LINE",
"420 466 LINE",
"401 422 LINE",
"369 455 OFFCURVE",
"311 476 OFFCURVE",
"262 476 CURVE SMOOTH",
"132 476 OFFCURVE",
"41 382 OFFCURVE",
"41 231 CURVE SMOOTH",
"41 75 OFFCURVE",
"123 -10 OFFCURVE",
"248 -10 CURVE SMOOTH",
"299 -10 OFFCURVE",
"347 11 OFFCURVE",
"378 50 CURVE",
"378 -7 LINE SMOOTH",
"378 -97 OFFCURVE",
"321 -149 OFFCURVE",
"234 -149 CURVE SMOOTH",
"176 -149 OFFCURVE",
"117 -128 OFFCURVE",
"66 -98 CURVE",
"66 -182 LINE",
"119 -210 OFFCURVE",
"184 -224 OFFCURVE",
"245 -224 CURVE SMOOTH"
);
}
);
userData = {
tnScalarpolator = {
scalarpolatorPrefs = {
LSB = "4";
RSB = 0;
baseline = -142.312;
interpolateX = 130.541;
interpolateY = 130.541;
lockScaleXY = 1;
scaleX = 72.537;
scaleY = 72.537;
};
};
};
width = 500;
}
);
leftKerningGroup = "@MMK_R_g";
rightKerningGroup = "@MMK_L_g";
unicode = 0067;
},
{
color = (255,255,0,255);
glyphname = h;
layers = (
{
layerId = master01;
paths = (
{
closed = 1;
nodes = (
"146 0 LINE",
"146 333 LINE",
"173 375 OFFCURVE",
"214 402 OFFCURVE",
"262 402 CURVE SMOOTH",
"325 402 OFFCURVE",
"362 364 OFFCURVE",
"362 290 CURVE SMOOTH",
"362 0 LINE",
"444 0 LINE",
"444 304 LINE SMOOTH",
"444 411 OFFCURVE",
"387 476 OFFCURVE",
"285 476 CURVE SMOOTH",
"229 476 OFFCURVE",
"180 449 OFFCURVE",
"146 403 CURVE",
"146 720 LINE",
"64 720 LINE",
"64 0 LINE"
);
}
);
userData = {
tnScalarpolator = {
scalarpolatorPrefs = {
LSB = "4";
RSB = 0;
baseline = -142.312;
interpolateX = 130.541;
interpolateY = 130.541;
lockScaleXY = 1;
scaleX = 72.537;
scaleY = 72.537;
};
};
};
width = 484;
}
);
leftKerningGroup = "@MMK_R_h";
rightKerningGroup = "@MMK_L_n";
unicode = 0068;
},
{
color = (255,255,0,255);
glyphname = i;
layers = (
{
layerId = master01;
paths = (
{
closed = 1;
nodes = (
"146 0 LINE",
"146 466 LINE",
"65 466 LINE",
"65 0 LINE"
);
},
{
closed = 1;
nodes = (
"148 611 LINE",
"148 694 LINE",
"63 694 LINE",
"63 611 LINE"
);
}
);
userData = {
tnScalarpolator = {
scalarpolatorPrefs = {
LSB = "4";
RSB = 0;
baseline = -142.312;
interpolateX = 130.541;
interpolateY = 130.541;
lockScaleXY = 1;
scaleX = 72.537;
scaleY = 72.537;
};
};
};
width = 188;
}
);
leftKerningGroup = "@MMK_R_i";
rightKerningGroup = "@MMK_L_i";
unicode = 0069;
},
{
color = (255,255,0,255);
glyphname = j;
layers = (
{
layerId = master01;
paths = (
{
closed = 1;
nodes = (
"79 -220 OFFCURVE",
"146 -152 OFFCURVE",
"146 -45 CURVE SMOOTH",
"146 466 LINE",
"64 466 LINE",
"64 -45 LINE SMOOTH",
"64 -106 OFFCURVE",
"30 -145 OFFCURVE",
"-24 -145 CURVE SMOOTH",
"-32 -145 LINE",
"-32 -220 LINE",
"-24 -220 LINE SMOOTH"
);
},
{
closed = 1;
nodes = (
"147 611 LINE",
"147 694 LINE",
"62 694 LINE",
"62 611 LINE"
);
}
);
userData = {
tnScalarpolator = {
scalarpolatorPrefs = {
LSB = "4";
RSB = 0;
baseline = -142.312;
interpolateX = 130.541;
interpolateY = 130.541;
lockScaleXY = 1;
scaleX = 72.537;
scaleY = 72.537;
};
};
};
width = 187;
}
);
leftKerningGroup = "@MMK_R_j";
rightKerningGroup = "@MMK_L_j";
unicode = 006A;
},
{
color = (255,255,0,255);
glyphname = k;
layers = (
{
layerId = master01;
paths = (
{
closed = 1;
nodes = (
"144 0 LINE",
"144 238 LINE",
"132 238 LINE",
"350 0 LINE",
"453 0 LINE",
"212 261 LINE",
"211 229 LINE",
"432 466 LINE",
"335 466 LINE",
"132 244 LINE",
"144 244 LINE",
"144 720 LINE",
"63 720 LINE",
"63 0 LINE"
);
}
);
userData = {
tnScalarpolator = {
scalarpolatorPrefs = {
LSB = "4";
RSB = 0;
baseline = -142.312;
interpolateX = 130.541;
interpolateY = 130.541;
lockScaleXY = 1;
scaleX = 72.537;
scaleY = 72.537;
};
};
};
width = 493;
}
);
leftKerningGroup = "@MMK_R_h";
rightKerningGroup = "@MMK_L_k";
unicode = 006B;
},
{
color = (255,255,0,255);
glyphname = l;
layers = (
{
layerId = master01;
paths = (
{
closed = 1;
nodes = (
"144 0 LINE",
"144 720 LINE",
"63 720 LINE",
"63 0 LINE"
);
}
);
userData = {
tnScalarpolator = {
scalarpolatorPrefs = {
LSB = "4";
RSB = 0;
baseline = -142.312;
interpolateX = 130.541;
interpolateY = 130.541;
lockScaleXY = 1;
scaleX = 72.537;
scaleY = 72.537;
};
};
};
width = 184;
}
);
leftKerningGroup = "@MMK_R_h";
rightKerningGroup = "@MMK_L_l";
unicode = 006C;
},
{
color = (255,255,0,255);
glyphname = m;
layers = (
{
layerId = master01;
paths = (
{
closed = 1;
nodes = (
"144 0 LINE",
"144 333 LINE",
"171 376 OFFCURVE",
"212 402 OFFCURVE",
"259 402 CURVE SMOOTH",
"323 402 OFFCURVE",
"358 361 OFFCURVE",
"358 293 CURVE SMOOTH",
"358 0 LINE",
"440 0 LINE",
"440 326 LINE",
"467 381 OFFCURVE",
"508 402 OFFCURVE",
"554 402 CURVE SMOOTH",
"616 402 OFFCURVE",
"654 361 OFFCURVE",
"654 291 CURVE SMOOTH",
"654 0 LINE",
"736 0 LINE",
"736 306 LINE SMOOTH",
"736 413 OFFCURVE",
"673 476 OFFCURVE",
"577 476 CURVE SMOOTH",
"519 476 OFFCURVE",
"466 453 OFFCURVE",
"427 386 CURVE",
"407 438 OFFCURVE",
"360 476 OFFCURVE",
"283 476 CURVE SMOOTH",
"225 476 OFFCURVE",
"178 450 OFFCURVE",
"144 403 CURVE",
"144 466 LINE",
"63 466 LINE",
"63 0 LINE"
);
}
);
userData = {
tnScalarpolator = {
scalarpolatorPrefs = {
LSB = "4";
RSB = 0;
baseline = -142.312;
interpolateX = 130.541;
interpolateY = 130.541;
lockScaleXY = 1;
scaleX = 72.537;
scaleY = 72.537;
};
};
};
width = 776;
}
);
leftKerningGroup = "@MMK_R_n";
rightKerningGroup = "@MMK_L_n";
unicode = 006D;
},
{
color = (255,255,0,255);
glyphname = n;
layers = (
{
layerId = master01;
paths = (
{
closed = 1;
nodes = (
"146 0 LINE",
"146 333 LINE",
"173 375 OFFCURVE",
"214 402 OFFCURVE",
"262 402 CURVE SMOOTH",
"325 402 OFFCURVE",
"362 364 OFFCURVE",
"362 290 CURVE SMOOTH",
"362 0 LINE",
"444 0 LINE",
"444 304 LINE SMOOTH",
"444 411 OFFCURVE",
"387 476 OFFCURVE",
"285 476 CURVE SMOOTH",
"229 476 OFFCURVE",
"180 449 OFFCURVE",
"146 403 CURVE",
"146 466 LINE",
"64 466 LINE",
"64 0 LINE"
);
}
);
userData = {
axes = {
wdth = {
defaultValue = 0;
enabled = 1;
maxValue = 1000;
minValue = 0;
name = wdth;
tag = wdth;
value = 0;
};
wght = {
defaultValue = 0;
enabled = 1;
maxValue = 1000;
minValue = 0;
name = wght;
tag = wght;
value = 0;
};
};
tnScalarpolator = {
scalarpolatorPrefs = {
LSB = "4";
RSB = 0;
autoGlyphSource = 1;
baseline = -142.312;
interpolateX = 130.541;
interpolateY = 130.541;
lockInterpolationXY = 1;
lockScaleXY = 1;
master1 = "Upgrade-Thin.ufo";
master2 = "Upgrade-Middle.ufo";
scaleX = 72.537;
scaleY = 72.537;
};
};
};
width = 484;
}
);
leftKerningGroup = "@MMK_R_n";
rightKerningGroup = "@MMK_L_n";
unicode = 006E;
},
{
color = (255,255,0,255);
glyphname = o;
layers = (
{
layerId = master01;
paths = (
{
closed = 1;
nodes = (
"419 -11 OFFCURVE",
"514 86 OFFCURVE",
"514 233 CURVE SMOOTH",
"514 380 OFFCURVE",
"419 477 OFFCURVE",
"278 477 CURVE SMOOTH",
"136 477 OFFCURVE",
"41 379 OFFCURVE",
"41 232 CURVE SMOOTH",
"41 86 OFFCURVE",
"136 -11 OFFCURVE",
"278 -11 CURVE SMOOTH"
);
},
{
closed = 1;
nodes = (
"186 63 OFFCURVE",
"124 131 OFFCURVE",
"124 233 CURVE SMOOTH",
"124 335 OFFCURVE",
"186 403 OFFCURVE",
"278 403 CURVE SMOOTH",
"370 403 OFFCURVE",
"431 334 OFFCURVE",
"431 232 CURVE SMOOTH",
"431 131 OFFCURVE",
"370 63 OFFCURVE",
"278 63 CURVE SMOOTH"
);
}
);
userData = {
axes = {
wdth = {
defaultValue = 0;
enabled = 1;
maxValue = 1000;
minValue = 0;
name = wdth;
tag = wdth;
value = 0;
};
wght = {
defaultValue = 0;
enabled = 1;
maxValue = 1000;
minValue = 0;
name = wght;
tag = wght;
value = 0;
};
};
tnScalarpolator = {
scalarpolatorPrefs = {
LSB = "4";
RSB = 0;
baseline = -142.312;
interpolateX = 130.541;
interpolateY = 130.541;
lockScaleXY = 1;
scaleX = 72.537;
scaleY = 72.537;
};
};
};
width = 554;
}
);
leftKerningGroup = "@MMK_R_o";
rightKerningGroup = "@MMK_L_o";
unicode = 006F;
},
{
color = (255,255,0,255);
glyphname = p;
layers = (
{
layerId = master01;
paths = (
{
closed = 1;
nodes = (
"144 -212 LINE",
"144 16 LINE",
"176 0 OFFCURVE",
"214 -10 OFFCURVE",
"252 -10 CURVE SMOOTH",
"383 -10 OFFCURVE",
"473 87 OFFCURVE",
"473 242 CURVE SMOOTH",
"473 383 OFFCURVE",
"395 476 OFFCURVE",
"279 476 CURVE SMOOTH",
"223 476 OFFCURVE",
"172 453 OFFCURVE",
"144 411 CURVE",
"144 466 LINE",
"63 466 LINE",
"63 -212 LINE"
);
},
{
closed = 1;
nodes = (
"207 61 OFFCURVE",
"175 71 OFFCURVE",
"144 89 CURVE",
"144 347 LINE",
"168 382 OFFCURVE",
"213 404 OFFCURVE",
"256 404 CURVE SMOOTH",
"340 404 OFFCURVE",
"391 339 OFFCURVE",
"391 236 CURVE SMOOTH",
"391 128 OFFCURVE",
"331 61 OFFCURVE",
"245 61 CURVE SMOOTH"
);
}
);
userData = {
tnScalarpolator = {
scalarpolatorPrefs = {
LSB = "4";
RSB = 0;
baseline = -142.312;
interpolateX = 130.541;
interpolateY = 130.541;
lockScaleXY = 1;
scaleX = 72.537;
scaleY = 72.537;
};
};
};
width = 513;
}
);
leftKerningGroup = "@MMK_R_n";
rightKerningGroup = "@MMK_L_o";
unicode = 0070;
},
{
color = (255,255,0,255);
glyphname = q;
layers = (
{
layerId = master01;
paths = (
{
closed = 1;
nodes = (
"457 -212 LINE",
"457 466 LINE",
"414 466 LINE",
"398 422 LINE",
"366 455 OFFCURVE",
"307 476 OFFCURVE",
"258 476 CURVE SMOOTH",
"129 476 OFFCURVE",
"41 387 OFFCURVE",
"41 229 CURVE SMOOTH",
"41 77 OFFCURVE",
"122 -10 OFFCURVE",
"244 -10 CURVE SMOOTH",
"295 -10 OFFCURVE",
"344 11 OFFCURVE",
"375 50 CURVE",
"375 -212 LINE"
);
},
{
closed = 1;
nodes = (
"173 63 OFFCURVE",
"124 130 OFFCURVE",
"124 232 CURVE SMOOTH",
"124 337 OFFCURVE",
"179 405 OFFCURVE",
"267 405 CURVE SMOOTH",
"306 405 OFFCURVE",
"350 389 OFFCURVE",
"375 364 CURVE",
"375 123 LINE",
"352 88 OFFCURVE",
"311 63 OFFCURVE",
"260 63 CURVE SMOOTH"
);
}
);
userData = {
tnScalarpolator = {
scalarpolatorPrefs = {
LSB = "4";
RSB = 0;
baseline = -142.312;
interpolateX = 130.541;
interpolateY = 130.541;
lockScaleXY = 1;
scaleX = 72.537;
scaleY = 72.537;
};
};
};
width = 497;
}
);
leftKerningGroup = "@MMK_R_o";
rightKerningGroup = "@MMK_L_q";
unicode = 0071;
},
{
color = (255,255,0,255);
glyphname = r;
layers = (
{
layerId = master01;
paths = (
{
closed = 1;
nodes = (
"144 0 LINE",
"144 332 LINE",
"162 366 OFFCURVE",
"196 390 OFFCURVE",
"239 390 CURVE SMOOTH",
"262 390 OFFCURVE",
"283 386 OFFCURVE",
"304 377 CURVE",
"304 468 LINE",
"287 474 OFFCURVE",
"270 476 OFFCURVE",
"252 476 CURVE SMOOTH",
"208 476 OFFCURVE",
"164 448 OFFCURVE",
"144 398 CURVE",
"144 466 LINE",
"63 466 LINE",
"63 0 LINE"
);
}
);
userData = {
tnScalarpolator = {
scalarpolatorPrefs = {
LSB = "4";
RSB = 0;
baseline = -142.312;
interpolateX = 130.541;
interpolateY = 130.541;
lockScaleXY = 1;
scaleX = 72.537;
scaleY = 72.537;
};
};
};
width = 344;
}
);
leftKerningGroup = "@MMK_R_n";
rightKerningGroup = "@MMK_L_r";
unicode = 0072;
},
{
color = (255,255,0,255);
glyphname = s;
layers = (
{
layerId = master01;
paths = (
{
closed = 1;
nodes = (
"289 -10 OFFCURVE",
"348 45 OFFCURVE",
"348 131 CURVE SMOOTH",
"348 201 OFFCURVE",
"308 242 OFFCURVE",
"212 274 CURVE SMOOTH",
"197 279 LINE SMOOTH",
"142 297 OFFCURVE",
"121 318 OFFCURVE",
"121 349 CURVE SMOOTH",
"121 387 OFFCURVE",
"150 409 OFFCURVE",
"200 409 CURVE SMOOTH",
"245 409 OFFCURVE",
"292 396 OFFCURVE",
"331 372 CURVE",
"331 448 LINE",
"289 466 OFFCURVE",
"240 476 OFFCURVE",
"194 476 CURVE SMOOTH",
"94 476 OFFCURVE",
"40 427 OFFCURVE",
"40 344 CURVE SMOOTH",
"40 275 OFFCURVE",
"79 235 OFFCURVE",
"168 205 CURVE SMOOTH",
"183 200 LINE SMOOTH",
"242 181 OFFCURVE",
"267 158 OFFCURVE",
"267 123 CURVE SMOOTH",
"267 82 OFFCURVE",
"235 58 OFFCURVE",
"181 58 CURVE SMOOTH",
"131 58 OFFCURVE",
"82 73 OFFCURVE",
"41 100 CURVE",
"41 25 LINE",
"83 3 OFFCURVE",
"134 -10 OFFCURVE",
"183 -10 CURVE SMOOTH"
);
}
);
userData = {
com.typemytype.robofont.Image.Brightness = 0;
com.typemytype.robofont.Image.Contrast = 1;
com.typemytype.robofont.Image.Saturation = 1;
com.typemytype.robofont.Image.Sharpness = 0.4;
tnScalarpolator = {
scalarpolatorPrefs = {
LSB = "4";
RSB = 0;
baseline = -142.312;
interpolateX = 130.541;
interpolateY = 130.541;
lockScaleXY = 1;
scaleX = 72.537;
scaleY = 72.537;
};
};
};
width = 388;
}
);
leftKerningGroup = "@MMK_R_s";
rightKerningGroup = "@MMK_L_s";
unicode = 0073;
},
{
color = (255,255,0,255);
glyphname = t;
layers = (
{
layerId = master01;
paths = (
{
closed = 1;
nodes = (
"219 -9 OFFCURVE",
"250 -4 OFFCURVE",
"275 10 CURVE",
"275 84 LINE",
"257 71 OFFCURVE",
"238 66 OFFCURVE",
"217 66 CURVE SMOOTH",
"187 66 OFFCURVE",
"167 85 OFFCURVE",
"167 119 CURVE SMOOTH",
"167 392 LINE",
"275 392 LINE",
"275 466 LINE",
"167 466 LINE",
"167 609 LINE",
"85 609 LINE",
"85 466 LINE",
"17 466 LINE",
"17 392 LINE",
"85 392 LINE",
"85 98 LINE SMOOTH",
"85 30 OFFCURVE",
"125 -9 OFFCURVE",
"190 -9 CURVE SMOOTH"
);
}
);
userData = {
tnScalarpolator = {
scalarpolatorPrefs = {
LSB = "4";
RSB = 0;
baseline = -142.312;
interpolateX = 130.541;
interpolateY = 130.541;
lockScaleXY = 1;
scaleX = 72.537;
scaleY = 72.537;
};
};
};
width = 315;
}
);
leftKerningGroup = "@MMK_R_t";
rightKerningGroup = "@MMK_L_t";
unicode = 0074;
},
{
color = (255,255,0,255);
glyphname = u;
layers = (
{
layerId = master01;
paths = (
{
closed = 1;
nodes = (
"281 -10 OFFCURVE",
"326 15 OFFCURVE",
"359 63 CURVE",
"366 0 LINE",
"440 0 LINE",
"440 466 LINE",
"359 466 LINE",
"359 135 LINE",
"336 93 OFFCURVE",
"297 64 OFFCURVE",
"244 64 CURVE SMOOTH",
"182 64 OFFCURVE",
"143 105 OFFCURVE",
"143 175 CURVE SMOOTH",
"143 466 LINE",
"62 466 LINE",
"62 164 LINE SMOOTH",
"62 59 OFFCURVE",
"117 -10 OFFCURVE",
"219 -10 CURVE SMOOTH"
);
}
);
userData = {
tnScalarpolator = {
scalarpolatorPrefs = {
LSB = "4";
RSB = 0;
baseline = -142.182;
baselineMax = "-100";
baselineMin = "-250";
interpolateX = 130.541;
interpolateXMax = "300";
interpolateXMin = "0";
interpolateY = 130.541;
interpolateYMax = "300";
interpolateYMin = "0";
lockScaleXY = 1;
scaleX = 72.537;
scaleXMax = "200";
scaleXMin = "0";
scaleY = 72.537;
scaleYMax = "200";
scaleYMin = "0";
};
};
};
width = 480;
}
);
leftKerningGroup = "@MMK_R_u";
rightKerningGroup = "@MMK_L_u";
unicode = 0075;
},
{
color = (255,255,0,255);
glyphname = v;
layers = (
{
layerId = master01;
paths = (
{
closed = 1;
nodes = (
"282 0 LINE",
"458 466 LINE",
"375 466 LINE",
"259 151 LINE",
"228 57 LINE",
"250 57 LINE",
"220 151 LINE",
"104 466 LINE",
"16 466 LINE",
"192 0 LINE"
);
}
);
userData = {
tnScalarpolator = {
scalarpolatorPrefs = {
LSB = "4";
RSB = 0;
baseline = -142.312;
interpolateX = 130.541;
interpolateY = 130.541;
lockScaleXY = 1;
scaleX = 72.537;
scaleY = 72.537;
};
};
};
width = 498;
}
);
leftKerningGroup = "@MMK_R_v";
rightKerningGroup = "@MMK_L_v";
unicode = 0076;
},
{
color = (255,255,0,255);
glyphname = w;
layers = (
{
layerId = master01;
paths = (
{
closed = 1;
nodes = (
"260 0 LINE",
"355 296 LINE",
"393 445 LINE",
"353 445 LINE",
"390 296 LINE",
"483 0 LINE",
"577 0 LINE",
"727 466 LINE",
"649 466 LINE",
"549 151 LINE",
"516 21 LINE",
"549 21 LINE",
"517 151 LINE",
"418 466 LINE",
"333 466 LINE",
"234 151 LINE",
"202 21 LINE",
"234 21 LINE",
"202 151 LINE",
"101 466 LINE",
"16 466 LINE",
"166 0 LINE"
);
}
);
userData = {
tnScalarpolator = {
scalarpolatorPrefs = {
LSB = "4";
RSB = 0;
baseline = -142.312;
interpolateX = 130.541;
interpolateY = 130.541;
lockScaleXY = 1;
scaleX = 72.537;
scaleY = 72.537;
};
};
};
width = 767;
}
);
leftKerningGroup = "@MMK_R_w";
rightKerningGroup = "@MMK_L_w";
unicode = 0077;
},
{
color = (255,255,0,255);
glyphname = x;
layers = (
{
layerId = master01;
paths = (
{
closed = 1;
nodes = (
"109 0 LINE",
"203 139 LINE",
"242 199 LINE",
"266 226 LINE",
"429 466 LINE",
"337 466 LINE",
"255 343 LINE",
"221 289 LINE",
"200 266 LINE",
"18 0 LINE"
);
},
{
closed = 1;
nodes = (
"442 0 LINE",
"261 263 LINE",
"237 289 LINE",
"203 343 LINE",
"122 466 LINE",
"27 466 LINE",
"194 221 LINE",
"216 199 LINE",
"254 139 LINE",
"348 0 LINE"
);
}
);
userData = {
tnScalarpolator = {
scalarpolatorPrefs = {
LSB = "4";
RSB = 0;
baseline = -142.312;
interpolateX = 130.541;
interpolateY = 130.541;
lockScaleXY = 1;
scaleX = 72.537;
scaleY = 72.537;
};
};
};
width = 482;
}
);
leftKerningGroup = "@MMK_R_x";
rightKerningGroup = "@MMK_L_k";
unicode = 0078;
},
{
color = (255,255,0,255);
glyphname = y;
layers = (
{
layerId = master01;
paths = (
{
closed = 1;
nodes = (
"143 -212 OFFCURVE",
"219 -159 OFFCURVE",
"284 14 CURVE SMOOTH",
"456 466 LINE",
"373 466 LINE",
"257 151 LINE",
"226 56 LINE",
"247 56 LINE",
"218 151 LINE",
"101 466 LINE",
"14 466 LINE",
"184 17 LINE",
"201 -31 LINE",
"202 17 LINE",
"155 -101 OFFCURVE",
"100 -138 OFFCURVE",
"5 -138 CURVE SMOOTH",
"-3 -138 LINE",
"-3 -212 LINE",
"5 -212 LINE SMOOTH"
);
}
);
userData = {
tnScalarpolator = {
scalarpolatorPrefs = {
LSB = "4";
RSB = 0;
baseline = -142.312;
interpolateX = 130.541;
interpolateY = 130.541;
lockScaleXY = 1;
scaleX = 72.537;
scaleY = 72.537;
};
};
};
width = 496;
}
);
leftKerningGroup = "@MMK_R_y";
rightKerningGroup = "@MMK_L_y";
unicode = 0079;
},
{
color = (255,255,0,255);
glyphname = z;
layers = (
{
layerId = master01;
paths = (
{
closed = 1;
nodes = (
"395 0 LINE",
"395 74 LINE",
"112 74 LINE",
"122 39 LINE",
"177 111 LINE",
"390 408 LINE",
"390 466 LINE",
"44 466 LINE",
"44 392 LINE",
"336 392 LINE",
"313 433 LINE",
"252 355 LINE",
"40 58 LINE",
"40 0 LINE"
);
}
);
userData = {
tnScalarpolator = {
scalarpolatorPrefs = {
LSB = "4";
RSB = 0;
baseline = -142.312;
interpolateX = 130.541;
interpolateY = 130.541;
lockScaleXY = 1;
scaleX = 72.537;
scaleY = 72.537;
};
};
};
width = 435;
}
);
leftKerningGroup = "@MMK_R_z";
rightKerningGroup = "@MMK_L_z";
unicode = 007A;
},
{
color = (255,255,0,255);
glyphname = germandbls;
layers = (
{
layerId = master01;
paths = (
{
closed = 1;
nodes = (
"145 0 LINE",
"145 496 LINE SMOOTH",
"145 597 OFFCURVE",
"201 660 OFFCURVE",
"286 660 CURVE SMOOTH",
"396 660 OFFCURVE",
"445 579 OFFCURVE",
"430 466 CURVE",
"404 473 OFFCURVE",
"385 475 OFFCURVE",
"360 475 CURVE SMOOTH",
"276 475 OFFCURVE",
"221 423 OFFCURVE",
"221 344 CURVE SMOOTH",
"221 272 OFFCURVE",
"263 228 OFFCURVE",
"345 204 CURVE SMOOTH",
"356 200 LINE SMOOTH",
"413 184 OFFCURVE",
"441 160 OFFCURVE",
"441 122 CURVE SMOOTH",
"441 82 OFFCURVE",
"410 58 OFFCURVE",
"360 58 CURVE SMOOTH",
"312 58 OFFCURVE",
"267 70 OFFCURVE",
"224 97 CURVE",
"224 21 LINE",
"272 1 OFFCURVE",
"318 -10 OFFCURVE",
"366 -10 CURVE SMOOTH",
"459 -10 OFFCURVE",
"520 43 OFFCURVE",
"520 131 CURVE SMOOTH",
"520 204 OFFCURVE",
"475 250 OFFCURVE",
"388 275 CURVE SMOOTH",
"377 279 LINE SMOOTH",
"325 294 OFFCURVE",
"300 315 OFFCURVE",
"300 349 CURVE SMOOTH",
"300 386 OFFCURVE",
"328 408 OFFCURVE",
"382 408 CURVE SMOOTH",
"423 408 OFFCURVE",
"472 393 OFFCURVE",
"496 384 CURVE",
"502 417 OFFCURVE",
"507 462 OFFCURVE",
"507 498 CURVE SMOOTH",
"507 646 OFFCURVE",
"415 731 OFFCURVE",
"284 731 CURVE SMOOTH",
"153 731 OFFCURVE",
"64 647 OFFCURVE",
"64 492 CURVE SMOOTH",
"64 0 LINE"
);
}
);
userData = {
tnScalarpolator = {
scalarpolatorPrefs = {
LSB = "4";
RSB = 0;
baseline = -142.182;
baselineMax = "-100";
baselineMin = "-250";
interpolateX = 130.541;
interpolateXMax = "300";
interpolateXMin = "0";
interpolateY = 130.541;
interpolateYMax = "300";
interpolateYMin = "0";
lockScaleXY = 1;
scaleX = 72.537;
scaleXMax = "200";
scaleXMin = "0";
scaleY = 72.537;
scaleYMax = "200";
scaleYMin = "0";
};
};
};
width = 560;
}
);
leftKerningGroup = "@MMK_R_germandbls";
rightKerningGroup = "@MMK_L_germandbls";
unicode = 00DF;
},
{
color = (255,255,0,255);
glyphname = ae;
layers = (
{
layerId = master01;
paths = (
{
closed = 1;
nodes = (
"270 -10 OFFCURVE",
"330 32 OFFCURVE",
"359 116 CURVE",
"338 116 LINE",
"371 38 OFFCURVE",
"436 -10 OFFCURVE",
"539 -10 CURVE SMOOTH",
"594 -10 OFFCURVE",
"656 7 OFFCURVE",
"712 38 CURVE",
"712 114 LINE",
"661 80 OFFCURVE",
"602 61 OFFCURVE",
"549 61 CURVE SMOOTH",
"449 61 OFFCURVE",
"396 120 OFFCURVE",
"396 214 CURVE SMOOTH",
"396 262 LINE SMOOTH",
"396 350 OFFCURVE",
"443 407 OFFCURVE",
"519 407 CURVE SMOOTH",
"595 407 OFFCURVE",
"642 358 OFFCURVE",
"642 276 CURVE",
"384 276 LINE",
"384 212 LINE",
"724 212 LINE",
"724 242 LINE SMOOTH",
"724 394 OFFCURVE",
"646 476 OFFCURVE",
"520 476 CURVE SMOOTH",
"439 476 OFFCURVE",
"378 435 OFFCURVE",
"343 362 CURVE",
"379 364 LINE",
"370 431 OFFCURVE",
"310 476 OFFCURVE",
"220 476 CURVE SMOOTH",
"165 476 OFFCURVE",
"106 463 OFFCURVE",
"56 440 CURVE",
"56 365 LINE",
"100 394 OFFCURVE",
"152 407 OFFCURVE",
"205 407 CURVE SMOOTH",
"270 407 OFFCURVE",
"313 381 OFFCURVE",
"313 322 CURVE SMOOTH",
"313 296 LINE",
"214 282 LINE SMOOTH",
"100 264 OFFCURVE",
"38 209 OFFCURVE",
"38 123 CURVE SMOOTH",
"38 42 OFFCURVE",
"95 -10 OFFCURVE",
"188 -10 CURVE SMOOTH"
);
},
{
closed = 1;
nodes = (
"153 57 OFFCURVE",
"121 86 OFFCURVE",
"121 133 CURVE SMOOTH",
"121 181 OFFCURVE",
"158 212 OFFCURVE",
"225 221 CURVE SMOOTH",
"313 234 LINE",
"313 149 LINE",
"303 99 OFFCURVE",
"263 57 OFFCURVE",
"205 57 CURVE SMOOTH"
);
}
);
userData = {
tnScalarpolator = {
scalarpolatorPrefs = {
LSB = "4";
RSB = 0;
baseline = -142.312;
interpolateX = 130.541;
interpolateY = 130.541;
lockScaleXY = 1;
scaleX = 72.537;
scaleY = 72.537;
};
};
};
width = 764;
}
);
leftKerningGroup = "@MMK_R_a";
rightKerningGroup = "@MMK_L_e";
unicode = 00E6;
},
{
color = (255,255,0,255);
glyphname = eth;
layers = (
{
layerId = master01;
paths = (
{
closed = 1;
nodes = (
"417 -11 OFFCURVE",
"517 93 OFFCURVE",
"517 276 CURVE SMOOTH",
"517 469 OFFCURVE",
"417 653 OFFCURVE",
"271 747 CURVE",
"188 715 LINE",
"373 603 OFFCURVE",
"452 430 OFFCURVE",
"450 268 CURVE",
"468 273 LINE",
"459 405 OFFCURVE",
"388 477 OFFCURVE",
"272 477 CURVE SMOOTH",
"140 477 OFFCURVE",
"41 382 OFFCURVE",
"41 235 CURVE SMOOTH",
"41 82 OFFCURVE",
"140 -11 OFFCURVE",
"278 -11 CURVE SMOOTH"
);
},
{
closed = 1;
nodes = (
"184 65 OFFCURVE",
"124 137 OFFCURVE",
"124 235 CURVE SMOOTH",
"124 331 OFFCURVE",
"184 402 OFFCURVE",
"277 402 CURVE SMOOTH",
"362 402 OFFCURVE",
"422 342 OFFCURVE",
"432 241 CURVE SMOOTH",
"432 139 OFFCURVE",
"373 65 OFFCURVE",
"278 65 CURVE SMOOTH"
);
},
{
closed = 1;
nodes = (
"473 637 LINE",
"457 703 LINE",
"217 627 LINE",
"234 560 LINE"
);
}
);
userData = {
tnScalarpolator = {
scalarpolatorPrefs = {
LSB = "4";
RSB = 0;
baseline = -142.312;
interpolateX = 130.541;
interpolateY = 130.541;
lockScaleXY = 1;
scaleX = 72.537;
scaleY = 72.537;
};
};
};
width = 557;
}
);
leftKerningGroup = "@MMK_R_o";
rightKerningGroup = "@MMK_L_eth";
unicode = 00F0;
},
{
color = (255,255,0,255);
glyphname = oslash;
layers = (
{
components = (
{
name = o;
}
);
layerId = master01;
paths = (
{
closed = 1;
nodes = (
"143 -48 LINE",
"482 514 LINE",
"410 514 LINE",
"71 -48 LINE"
);
}
);
userData = {
com.typemytype.robofont.Image.Brightness = 0;
com.typemytype.robofont.Image.Contrast = 1;
com.typemytype.robofont.Image.Saturation = 1;
com.typemytype.robofont.Image.Sharpness = 0.4;
tnScalarpolator = {
scalarpolatorPrefs = {
LSB = "4";
RSB = 0;
baseline = -142.312;
interpolateX = 130.541;
interpolateY = 130.541;
lockScaleXY = 1;
scaleX = 72.537;
scaleY = 72.537;
};
};
};
width = 554;
}
);
leftKerningGroup = "@MMK_R_o";
rightKerningGroup = "@MMK_L_o";
unicode = 00F8;
},
{
color = (0,0,0,128);
glyphname = oslashacute;
layers = (
{
components = (
{
name = o;
},
{
name = acutecmb;
transform = "{1, 0, 0, 1, 278, -1}";
}
);
layerId = master01;
paths = (
{
closed = 1;
nodes = (
"143 -48 LINE",
"482 514 LINE",
"410 514 LINE",
"71 -48 LINE"
);
}
);
userData = {
com.typenetwork.accentbuilder.locked = 0;
tnScalarpolator = {
scalarpolatorPrefs = {
LSB = "4";
RSB = 0;
baseline = -142.312;
interpolateX = 130.541;
interpolateY = 130.541;
lockScaleXY = 1;
scaleX = 72.537;
scaleY = 72.537;
};
};
};
width = 554;
}
);
leftKerningGroup = "@MMK_R_o";
rightKerningGroup = "@MMK_L_o";
unicode = 01FF;
},
{
color = (255,255,0,255);
glyphname = thorn;
layers = (
{
layerId = master01;
paths = (
{
closed = 1;
nodes = (
"144 -215 LINE",
"144 16 LINE",
"176 0 OFFCURVE",
"214 -10 OFFCURVE",
"249 -10 CURVE SMOOTH",
"383 -10 OFFCURVE",
"473 86 OFFCURVE",
"473 241 CURVE SMOOTH",
"473 382 OFFCURVE",
"395 476 OFFCURVE",
"277 476 CURVE SMOOTH",
"223 476 OFFCURVE",
"175 456 OFFCURVE",
"144 416 CURVE",
"144 720 LINE",
"63 720 LINE",
"63 -215 LINE"
);
},
{
closed = 1;
nodes = (
"207 61 OFFCURVE",
"175 71 OFFCURVE",
"144 89 CURVE",
"144 355 LINE",
"173 386 OFFCURVE",
"209 402 OFFCURVE",
"253 402 CURVE SMOOTH",
"336 402 OFFCURVE",
"391 337 OFFCURVE",
"391 235 CURVE SMOOTH",
"391 127 OFFCURVE",
"331 61 OFFCURVE",
"243 61 CURVE SMOOTH"
);
}
);
userData = {
tnScalarpolator = {
scalarpolatorPrefs = {
LSB = "4";
RSB = 0;
baseline = -142.312;
interpolateX = 130.541;
interpolateY = 130.541;
lockScaleXY = 1;
scaleX = 72.537;
scaleY = 72.537;
};
};
};
width = 513;
}
);
leftKerningGroup = "@MMK_R_h";
rightKerningGroup = "@MMK_L_o";
unicode = 00FE;
},
{
color = (255,255,0,255);
glyphname = dcroat;
layers = (
{
components = (
{
name = d;
}
);
layerId = master01;
paths = (
{
closed = 1;
nodes = (
"512 561 LINE",
"512 630 LINE",
"304 630 LINE",
"304 561 LINE"
);
}
);
userData = {
tnScalarpolator = {
scalarpolatorPrefs = {
LSB = "4";
RSB = 0;
baseline = -142.312;
interpolateX = 130.541;
interpolateY = 130.541;
lockScaleXY = 1;
scaleX = 72.537;
scaleY = 72.537;
};
};
};
width = 552;
}
);
leftKerningGroup = "@MMK_R_o";
rightKerningGroup = "@MMK_L_dcroat";
unicode = 0111;
},
{
color = (255,255,0,255);
glyphname = hbar;
layers = (
{
components = (
{
name = h;
}
);
layerId = master01;
paths = (
{
closed = 1;
nodes = (
"223 561 LINE",
"223 630 LINE",
"11 630 LINE",
"11 561 LINE"
);
}
);
userData = {
tnScalarpolator = {
scalarpolatorPrefs = {
LSB = "4";
RSB = 0;
baseline = -142.312;
interpolateX = 130.541;
interpolateY = 130.541;
lockScaleXY = 1;
scaleX = 72.537;
scaleY = 72.537;
};
};
};
width = 484;
}
);
leftKerningGroup = "@MMK_R_hbar";
rightKerningGroup = "@MMK_L_n";
unicode = 0127;
},
{
color = (255,255,0,255);
glyphname = dotlessi;
layers = (
{
layerId = master01;
paths = (
{
closed = 1;
nodes = (
"144 0 LINE",
"144 466 LINE",
"63 466 LINE",
"63 0 LINE"
);
}
);
userData = {
tnScalarpolator = {
scalarpolatorPrefs = {
LSB = "4";
RSB = 0;
baseline = -142.312;
interpolateX = 130.541;
interpolateY = 130.541;
lockScaleXY = 1;
scaleX = 72.537;
scaleY = 72.537;
};
};
};
width = 184;
}
);
leftKerningGroup = "@MMK_R_dotlessi";
rightKerningGroup = "@MMK_L_dotlessi";
unicode = 0131;
},
{
color = (255,255,0,255);
glyphname = lslash;
layers = (
{
components = (
{
name = l;
}
);
layerId = master01;
paths = (
{
closed = 1;
nodes = (
"205 361 LINE",
"205 432 LINE",
"-5 375 LINE",
"-5 304 LINE"
);
}
);
userData = {
tnScalarpolator = {
scalarpolatorPrefs = {
LSB = "4";
RSB = 0;
baseline = -142.312;
interpolateX = 130.541;
interpolateY = 130.541;
lockScaleXY = 1;
scaleX = 72.537;
scaleY = 72.537;
};
};
};
width = 245;
}
);
leftKerningGroup = "@MMK_R_lslash";
rightKerningGroup = "@MMK_L_lslash";
unicode = 0142;
},
{
color = (255,255,0,255);
glyphname = eng;
layers = (
{
layerId = master01;
paths = (
{
closed = 1;
nodes = (
"378 -215 OFFCURVE",
"443 -149 OFFCURVE",
"443 -44 CURVE SMOOTH",
"443 304 LINE SMOOTH",
"443 411 OFFCURVE",
"386 476 OFFCURVE",
"285 476 CURVE SMOOTH",
"227 476 OFFCURVE",
"178 450 OFFCURVE",
"144 403 CURVE",
"144 466 LINE",
"63 466 LINE",
"63 0 LINE",
"144 0 LINE",
"144 333 LINE",
"169 372 OFFCURVE",
"208 399 OFFCURVE",
"256 399 CURVE SMOOTH",
"321 399 OFFCURVE",
"361 360 OFFCURVE",
"361 289 CURVE SMOOTH",
"361 -44 LINE SMOOTH",
"361 -104 OFFCURVE",
"329 -141 OFFCURVE",
"278 -141 CURVE SMOOTH",
"270 -141 LINE",
"270 -215 LINE",
"278 -215 LINE SMOOTH"
);
}
);
userData = {
tnScalarpolator = {
scalarpolatorPrefs = {
LSB = "4";
RSB = 0;
baseline = -142.312;
interpolateX = 130.541;
interpolateY = 130.541;
lockScaleXY = 1;
scaleX = 72.537;
scaleY = 72.537;
};
};
};
width = 483;
}
);
leftKerningGroup = "@MMK_R_n";
rightKerningGroup = "@MMK_L_n";
unicode = 014B;
},
{
color = (255,255,0,255);
glyphname = oe;
layers = (
{
layerId = master01;
paths = (
{
closed = 1;
nodes = (
"707 -10 OFFCURVE",
"764 6 OFFCURVE",
"822 38 CURVE",
"822 116 LINE",
"767 79 OFFCURVE",
"713 60 OFFCURVE",
"658 60 CURVE SMOOTH",
"557 60 OFFCURVE",
"500 118 OFFCURVE",
"500 213 CURVE SMOOTH",
"500 261 LINE SMOOTH",
"500 349 OFFCURVE",
"552 408 OFFCURVE",
"630 408 CURVE SMOOTH",
"707 408 OFFCURVE",
"752 357 OFFCURVE",
"752 274 CURVE",
"486 274 LINE",
"486 211 LINE",
"834 211 LINE",
"834 241 LINE SMOOTH",
"834 393 OFFCURVE",
"757 476 OFFCURVE",
"631 476 CURVE SMOOTH",
"500 476 OFFCURVE",
"421 370 OFFCURVE",
"421 233 CURVE SMOOTH",
"421 89 OFFCURVE",
"501 -10 OFFCURVE",
"649 -10 CURVE SMOOTH"
);
},
{
closed = 1;
nodes = (
"414 -10 OFFCURVE",
"495 94 OFFCURVE",
"495 233 CURVE SMOOTH",
"495 372 OFFCURVE",
"414 476 OFFCURVE",
"273 476 CURVE SMOOTH",
"131 476 OFFCURVE",
"41 379 OFFCURVE",
"41 232 CURVE SMOOTH",
"41 86 OFFCURVE",
"131 -10 OFFCURVE",
"273 -10 CURVE SMOOTH"
);
},
{
closed = 1;
nodes = (
"181 64 OFFCURVE",
"124 131 OFFCURVE",
"124 233 CURVE SMOOTH",
"124 335 OFFCURVE",
"181 402 OFFCURVE",
"273 402 CURVE SMOOTH",
"365 402 OFFCURVE",
"421 335 OFFCURVE",
"421 233 CURVE SMOOTH",
"421 132 OFFCURVE",
"365 64 OFFCURVE",
"273 64 CURVE SMOOTH"
);
}
);
userData = {
tnScalarpolator = {
scalarpolatorPrefs = {
LSB = "4";
RSB = 0;
baseline = -142.312;
interpolateX = 130.541;
interpolateY = 130.541;
lockScaleXY = 1;
scaleX = 72.537;
scaleY = 72.537;
};
};
};
width = 874;
}
);
leftKerningGroup = "@MMK_R_o";
rightKerningGroup = "@MMK_L_e";
unicode = 0153;
},
{
color = (255,255,0,255);
glyphname = tbar;
layers = (
{
components = (
{
name = t;
}
);
layerId = master01;
paths = (
{
closed = 1;
nodes = (
"240 237 LINE",
"240 306 LINE",
"34 306 LINE",
"34 237 LINE"
);
}
);
userData = {
tnScalarpolator = {
scalarpolatorPrefs = {
LSB = "4";
RSB = 0;
baseline = -142.312;
interpolateX = 130.541;
interpolateY = 130.541;
lockScaleXY = 1;
scaleX = 72.537;
scaleY = 72.537;
};
};
};
width = 315;
}
);
leftKerningGroup = "@MMK_R_t";
rightKerningGroup = "@MMK_L_t";
unicode = 0167;
},
{
color = (255,255,0,255);
glyphname = dotlessj;
layers = (
{
layerId = master01;
paths = (
{
closed = 1;
nodes = (
"79 -211 OFFCURVE",
"146 -143 OFFCURVE",
"146 -36 CURVE SMOOTH",
"146 466 LINE",
"65 466 LINE",
"65 -36 LINE SMOOTH",
"65 -97 OFFCURVE",
"30 -137 OFFCURVE",
"-24 -137 CURVE SMOOTH",
"-32 -137 LINE",
"-32 -211 LINE",
"-24 -211 LINE SMOOTH"
);
}
);
userData = {
tnScalarpolator = {
scalarpolatorPrefs = {
LSB = "4";
RSB = 0;
baseline = -142.312;
interpolateX = 130.541;
interpolateY = 130.541;
lockScaleXY = 1;
scaleX = 72.537;
scaleY = 72.537;
};
};
};
width = 186;
}
);
leftKerningGroup = "@MMK_R_dotlessj";
rightKerningGroup = "@MMK_L_dotlessj";
unicode = 0237;
},
{
color = (255,255,0,255);
glyphname = schwa;
layers = (
{
layerId = master01;
paths = (
{
closed = 1;
nodes = (
"376 -10 OFFCURVE",
"459 83 OFFCURVE",
"459 232 CURVE SMOOTH",
"459 383 OFFCURVE",
"374 476 OFFCURVE",
"225 476 CURVE SMOOTH",
"169 476 OFFCURVE",
"106 459 OFFCURVE",
"49 428 CURVE",
"49 354 LINE",
"101 388 OFFCURVE",
"161 406 OFFCURVE",
"215 406 CURVE SMOOTH",
"318 406 OFFCURVE",
"376 348 OFFCURVE",
"376 255 CURVE SMOOTH",
"376 207 LINE SMOOTH",
"376 117 OFFCURVE",
"324 59 OFFCURVE",
"246 59 CURVE SMOOTH",
"167 59 OFFCURVE",
"119 111 OFFCURVE",
"119 196 CURVE",
"390 196 LINE",
"390 261 LINE",
"37 261 LINE",
"37 221 LINE SMOOTH",
"37 80 OFFCURVE",
"116 -10 OFFCURVE",
"245 -10 CURVE SMOOTH"
);
}
);
userData = {
tnScalarpolator = {
scalarpolatorPrefs = {
LSB = "4";
RSB = 0;
baseline = -142.312;
interpolateX = 130.541;
interpolateY = 130.541;
lockScaleXY = 1;
scaleX = 72.537;
scaleY = 72.537;
};
};
};
width = 499;
}
);
leftKerningGroup = "@MMK_R_schwa";
rightKerningGroup = "@MMK_L_schwa";
unicode = 0259;
},
{
color = (255,255,0,255);
glyphname = mu;
layers = (
{
layerId = master01;
paths = (
{
closed = 1;
nodes = (
"120 30 LINE",
"141 4 OFFCURVE",
"174 -10 OFFCURVE",
"219 -10 CURVE SMOOTH",
"281 -10 OFFCURVE",
"326 15 OFFCURVE",
"359 63 CURVE",
"366 0 LINE",
"440 0 LINE",
"440 466 LINE",
"359 466 LINE",
"359 135 LINE",
"336 93 OFFCURVE",
"297 64 OFFCURVE",
"244 64 CURVE SMOOTH",
"182 64 OFFCURVE",
"143 105 OFFCURVE",
"143 175 CURVE SMOOTH",
"143 466 LINE",
"62 466 LINE",
"62 -211 LINE",
"134 -211 LINE"
);
}
);
userData = {
tnScalarpolator = {
scalarpolatorPrefs = {
LSB = "4";
RSB = 0;
baseline = -142.312;
interpolateX = 130.541;
interpolateY = 130.541;
lockScaleXY = 1;
scaleX = 72.537;
scaleY = 72.537;
};
};
};
width = 480;
}
);
leftKerningGroup = "@MMK_R_u";
rightKerningGroup = "@MMK_L_u";
unicode = "03BC,00B5";
},
{
color = (255,255,0,255);
glyphname = pi;
layers = (
{
layerId = master01;
paths = (
{
closed = 1;
nodes = (
"183 0 LINE",
"183 391 LINE",
"339 391 LINE",
"339 0 LINE",
"419 0 LINE",
"419 391 LINE",
"487 391 LINE",
"487 466 LINE",
"35 466 LINE",
"35 391 LINE",
"103 391 LINE",
"103 0 LINE"
);
}
);
userData = {
tnScalarpolator = {
scalarpolatorPrefs = {
LSB = "4";
RSB = 0;
baseline = -142.312;
interpolateX = 130.541;
interpolateY = 130.541;
lockScaleXY = 1;
scaleX = 72.537;
scaleY = 72.537;
};
};
};
width = 527;
}
);
leftKerningGroup = "@MMK_R_pi";
rightKerningGroup = "@MMK_L_pi";
unicode = 03C0;
},
{
color = (255,255,0,255);
glyphname = ordfeminine;
layers = (
{
components = (
{
name = a.sinf;
transform = "{1, 0, 0, 1, 25, 536}";
}
);
layerId = master01;
paths = (
{
closed = 1;
nodes = (
"338 233 LINE",
"338 299 LINE",
"63 299 LINE",
"63 233 LINE"
);
}
);
userData = {
tnScalarpolator = {
scalarpolatorPrefs = {
LSB = 0;
RSB = 0;
baseline = -169.759;
glyphSource = n;
interpolateX = 139.871;
interpolateY = 139.871;
lockInterpolationXY = 1;
lockScaleXY = 1;
scaleX = 76.156;
scaleY = 76.156;
};
};
};
width = 382;
}
);
leftKerningGroup = "@MMK_R_ordfeminine";
rightKerningGroup = "@MMK_L_ordfeminine";
unicode = 00AA;
},
{
color = (255,255,0,255);
glyphname = ordmasculine;
layers = (
{
components = (
{
name = o.sinf;
transform = "{1, 0, 0, 1, 29, 537}";
}
);
layerId = master01;
paths = (
{
closed = 1;
nodes = (
"420 233 LINE",
"420 299 LINE",
"68 299 LINE",
"68 233 LINE"
);
}
);
userData = {
tnScalarpolator = {
scalarpolatorPrefs = {
LSB = 0;
RSB = 0;
baseline = -169.759;
glyphSource = n;
interpolateX = 139.871;
interpolateY = 139.871;
lockInterpolationXY = 1;
lockScaleXY = 1;
scaleX = 76.156;
scaleY = 76.156;
};
};
};
width = 467;
}
);
leftKerningGroup = "@MMK_R_ordfeminine";
rightKerningGroup = "@MMK_L_ordfeminine";
unicode = 00BA;
},
{
color = (255,89,232,255);
glyphname = gravecmb;
layers = (
{
layerId = master01;
paths = (
{
closed = 1;
nodes = (
"234 524 LINE",
"135 661 LINE",
"43 661 LINE",
"152 524 LINE"
);
}
);
userData = {
tnScalarpolator = {
scalarpolatorPrefs = {
LSB = "4";
RSB = 0;
baseline = -142.312;
interpolateX = 130.541;
interpolateY = 130.541;
lockScaleXY = 1;
scaleX = 72.537;
scaleY = 72.537;
};
};
};
width = 274;
}
);
unicode = 0300;
},
{
color = (255,89,232,255);
glyphname = acutecmb;
layers = (
{
layerId = master01;
paths = (
{
closed = 1;
nodes = (
"139 661 LINE",
"46 661 LINE",
"-52 524 LINE",
"30 524 LINE"
);
}
);
userData = {
tnScalarpolator = {
scalarpolatorPrefs = {
LSB = "4";
RSB = 0;
baseline = -142.312;
interpolateX = 130.541;
interpolateY = 130.541;
lockScaleXY = 1;
scaleX = 72.537;
scaleY = 72.537;
};
};
};
width = 179;
}
);
unicode = 0301;
},
{
color = (255,89,232,255);
glyphname = circumflexcmb;
layers = (
{
layerId = master01;
paths = (
{
closed = 1;
nodes = (
"10 613 LINE",
"-9 613 LINE",
"62 524 LINE",
"134 524 LINE",
"35 658 LINE",
"-33 658 LINE",
"-132 524 LINE",
"-60 524 LINE"
);
}
);
userData = {
tnScalarpolator = {
scalarpolatorPrefs = {
LSB = "4";
RSB = 0;
baseline = -142.312;
interpolateX = 130.541;
interpolateY = 130.541;
lockScaleXY = 1;
scaleX = 72.537;
scaleY = 72.537;
};
};
};
width = 174;
}
);
unicode = 0302;
},
{
color = (255,89,232,255);
glyphname = tildecmb;
layers = (
{
layerId = master01;
paths = (
{
closed = 1;
nodes = (
"-95 554 OFFCURVE",
"-80 570 OFFCURVE",
"-58 570 CURVE SMOOTH",
"-43 570 OFFCURVE",
"-28 562 OFFCURVE",
"-9 547 CURVE SMOOTH",
"17 527 OFFCURVE",
"37 517 OFFCURVE",
"62 517 CURVE SMOOTH",
"111 517 OFFCURVE",
"147 555 OFFCURVE",
"151 626 CURVE",
"99 626 LINE",
"96 596 OFFCURVE",
"81 580 OFFCURVE",
"60 580 CURVE SMOOTH",
"43 580 OFFCURVE",
"30 590 OFFCURVE",
"10 603 CURVE SMOOTH",
"-18 624 OFFCURVE",
"-37 633 OFFCURVE",
"-61 633 CURVE SMOOTH",
"-111 633 OFFCURVE",
"-146 594 OFFCURVE",
"-149 524 CURVE",
"-97 524 LINE"
);
}
);
userData = {
tnScalarpolator = {
scalarpolatorPrefs = {
LSB = "4";
RSB = 0;
baseline = -142.312;
interpolateX = 130.541;
interpolateY = 130.541;
lockScaleXY = 1;
scaleX = 72.537;
scaleY = 72.537;
};
};
};
width = 191;
}
);
unicode = 0303;
},
{
color = (255,89,232,255);
glyphname = macroncmb;
layers = (
{
layerId = master01;
paths = (
{
closed = 1;
nodes = (
"115 532 LINE",
"115 598 LINE",
"-112 598 LINE",
"-112 532 LINE"
);
}
);
userData = {
tnScalarpolator = {
scalarpolatorPrefs = {
LSB = "4";
RSB = 0;
baseline = -142.312;
interpolateX = 130.541;
interpolateY = 130.541;
lockScaleXY = 1;
scaleX = 72.537;
scaleY = 72.537;
};
};
};
width = 155;
}
);
},
{
color = (255,89,232,255);
glyphname = brevecmb;
layers = (
{
layerId = master01;
paths = (
{
closed = 1;
nodes = (
"74 516 OFFCURVE",
"121 567 OFFCURVE",
"121 650 CURVE",
"65 650 LINE",
"65 604 OFFCURVE",
"40 575 OFFCURVE",
"1 575 CURVE SMOOTH",
"-37 575 OFFCURVE",
"-62 604 OFFCURVE",
"-62 650 CURVE",
"-119 650 LINE",
"-119 567 OFFCURVE",
"-72 516 OFFCURVE",
"1 516 CURVE SMOOTH"
);
}
);
userData = {
tnScalarpolator = {
scalarpolatorPrefs = {
LSB = "4";
RSB = 0;
baseline = -142.312;
interpolateX = 130.541;
interpolateY = 130.541;
lockScaleXY = 1;
scaleX = 72.537;
scaleY = 72.537;
};
};
};
width = 161;
}
);
unicode = 0306;
},
{
color = (255,89,232,255);
glyphname = dieresiscmb;
layers = (
{
layerId = master01;
paths = (
{
closed = 1;
nodes = (
"-39 532 LINE",
"-39 614 LINE",
"-120 614 LINE",
"-120 532 LINE"
);
},
{
closed = 1;
nodes = (
"121 532 LINE",
"121 614 LINE",
"40 614 LINE",
"40 532 LINE"
);
}
);
userData = {
tnScalarpolator = {
scalarpolatorPrefs = {
LSB = "4";
RSB = 0;
baseline = -142.312;
interpolateX = 130.541;
interpolateY = 130.541;
lockScaleXY = 1;
scaleX = 72.537;
scaleY = 72.537;
};
};
};
width = 161;
}
);
unicode = 0308;
},
{
color = (255,89,232,255);
glyphname = ringcmb;
layers = (
{
layerId = master01;
paths = (
{
closed = 1;
nodes = (
"58 456 OFFCURVE",
"93 496 OFFCURVE",
"93 546 CURVE SMOOTH",
"93 596 OFFCURVE",
"58 637 OFFCURVE",
"2 637 CURVE SMOOTH",
"-53 637 OFFCURVE",
"-88 596 OFFCURVE",
"-88 546 CURVE SMOOTH",
"-88 496 OFFCURVE",
"-53 456 OFFCURVE",
"2 456 CURVE SMOOTH"
);
},
{
closed = 1;
nodes = (
"-20 504 OFFCURVE",
"-39 520 OFFCURVE",
"-39 546 CURVE SMOOTH",
"-39 572 OFFCURVE",
"-20 590 OFFCURVE",
"2 590 CURVE SMOOTH",
"25 590 OFFCURVE",
"44 572 OFFCURVE",
"44 546 CURVE SMOOTH",
"44 520 OFFCURVE",
"25 504 OFFCURVE",
"2 504 CURVE SMOOTH"
);
}
);
userData = {
tnScalarpolator = {
scalarpolatorPrefs = {
LSB = "4";
RSB = 0;
baseline = -142.312;
interpolateX = 130.541;
interpolateY = 130.541;
lockScaleXY = 1;
scaleX = 72.537;
scaleY = 72.537;
};
};
};
width = 133;
}
);
unicode = 030A;
},
{
color = (255,89,232,255);
glyphname = hungarumlautcmb;
layers = (
{
layerId = master01;
paths = (
{
closed = 1;
nodes = (
"-37 523 LINE",
"63 659 LINE",
"-18 659 LINE",
"-109 523 LINE"
);
},
{
closed = 1;
nodes = (
"106 523 LINE",
"211 659 LINE",
"131 659 LINE",
"34 523 LINE"
);
}
);
userData = {
tnScalarpolator = {
scalarpolatorPrefs = {
LSB = "4";
RSB = 0;
baseline = -142.312;
interpolateX = 130.541;
interpolateY = 130.541;
lockScaleXY = 1;
scaleX = 72.537;
scaleY = 72.537;
};
};
};
width = 251;
}
);
leftKerningGroup = "@MMK_R_hungarumlautcmb";
unicode = 030B;
},
{
color = (255,89,232,255);
glyphname = caroncmb;
layers = (
{
layerId = master01;
paths = (
{
closed = 1;
nodes = (
"35 524 LINE",
"134 658 LINE",
"62 658 LINE",
"-9 568 LINE",
"10 568 LINE",
"-60 658 LINE",
"-132 658 LINE",
"-33 524 LINE"
);
}
);
userData = {
tnScalarpolator = {
scalarpolatorPrefs = {
LSB = "4";
RSB = 0;
baseline = -142.312;
interpolateX = 130.541;
interpolateY = 130.541;
lockScaleXY = 1;
scaleX = 72.537;
scaleY = 72.537;
};
};
};
width = 174;
}
);
unicode = 030C;
},
{
glyphname = commaturnedabovecmb;
layers = (
{
layerId = master01;
paths = (
{
closed = 1;
nodes = (
"-18 666 OFFCURVE",
"-35 615 OFFCURVE",
"-35 562 CURVE SMOOTH",
"-35 520 LINE",
"39 520 LINE",
"39 562 LINE SMOOTH",
"39 608 OFFCURVE",
"48 642 OFFCURVE",
"77 685 CURVE",
"19 712 LINE"
);
}
);
width = 117;
}
);
unicode = 0312;
},
{
color = (255,89,232,255);
glyphname = commaaccentcmb;
layers = (
{
layerId = master01;
paths = (
{
closed = 1;
nodes = (
"19 -186 OFFCURVE",
"36 -135 OFFCURVE",
"36 -82 CURVE SMOOTH",
"36 -40 LINE",
"-37 -40 LINE",
"-37 -82 LINE SMOOTH",
"-37 -128 OFFCURVE",
"-47 -162 OFFCURVE",
"-76 -205 CURVE",
"-18 -232 LINE"
);
}
);
userData = {
tnScalarpolator = {
scalarpolatorPrefs = {
LSB = "4";
RSB = 0;
baseline = -142.312;
interpolateX = 130.541;
interpolateY = 130.541;
lockScaleXY = 1;
scaleX = 72.537;
scaleY = 72.537;
};
};
};
width = 76;
}
);
unicode = 0326;
},
{
color = (255,89,232,255);
glyphname = cedillacmb;
layers = (
{
layerId = master01;
paths = (
{
closed = 1;
nodes = (
"66 -212 OFFCURVE",
"100 -179 OFFCURVE",
"100 -128 CURVE SMOOTH",
"100 -77 OFFCURVE",
"60 -44 OFFCURVE",
"0 -44 CURVE SMOOTH",
"-9 -44 LINE",
"-9 -92 LINE",
"-1 -92 LINE SMOOTH",
"23 -92 OFFCURVE",
"39 -106 OFFCURVE",
"39 -128 CURVE SMOOTH",
"39 -149 OFFCURVE",
"25 -163 OFFCURVE",
"4 -163 CURVE SMOOTH",
"-14 -163 OFFCURVE",
"-34 -157 OFFCURVE",
"-51 -146 CURVE",
"-51 -197 LINE",
"-31 -207 OFFCURVE",
"-8 -212 OFFCURVE",
"14 -212 CURVE SMOOTH"
);
}
);
userData = {
tnScalarpolator = {
scalarpolatorPrefs = {
LSB = "4";
RSB = 0;
baseline = -142.312;
interpolateX = 130.541;
interpolateY = 130.541;
lockScaleXY = 1;
scaleX = 72.537;
scaleY = 72.537;
};
};
};
width = 140;
}
);
unicode = 0327;
},
{
color = (255,89,232,255);
glyphname = ogonekcmb;
layers = (
{
layerId = master01;
paths = (
{
closed = 1;
nodes = (
"10 -153 LINE",
"-46 -153 OFFCURVE",
"-81 -122 OFFCURVE",
"-81 -77 CURVE SMOOTH",
"-81 -29 OFFCURVE",
"-47 0 OFFCURVE",
"0 0 CURVE",
"-10 36 LINE",
"-89 36 OFFCURVE",
"-151 -14 OFFCURVE",
"-151 -93 CURVE SMOOTH",
"-151 -168 OFFCURVE",
"-88 -220 OFFCURVE",
"10 -220 CURVE"
);
}
);
userData = {
tnScalarpolator = {
scalarpolatorPrefs = {
LSB = "4";
RSB = 0;
baseline = -142.312;
interpolateX = 130.541;
interpolateY = 130.541;
lockScaleXY = 1;
scaleX = 72.537;
scaleY = 72.537;
};
};
};
width = 50;
}
);
unicode = 0328;
},
{
color = (255,255,0,255);
glyphname = zero;
layers = (
{
layerId = master01;
paths = (
{
closed = 1;
nodes = (
"454 -14 OFFCURVE",
"534 118 OFFCURVE",
"534 329 CURVE SMOOTH",
"534 542 OFFCURVE",
"454 672 OFFCURVE",
"292 672 CURVE SMOOTH",
"131 672 OFFCURVE",
"51 540 OFFCURVE",
"51 327 CURVE SMOOTH",
"51 117 OFFCURVE",
"131 -14 OFFCURVE",
"292 -14 CURVE SMOOTH"
);
},
{
closed = 1;
nodes = (
"193 64 OFFCURVE",
"136 152 OFFCURVE",
"136 329 CURVE SMOOTH",
"136 507 OFFCURVE",
"193 594 OFFCURVE",
"292 594 CURVE SMOOTH",
"392 594 OFFCURVE",
"449 506 OFFCURVE",
"449 327 CURVE SMOOTH",
"449 151 OFFCURVE",
"392 64 OFFCURVE",
"292 64 CURVE SMOOTH"
);
}
);
userData = {
tnScalarpolator = {
scalarpolatorPrefs = {
LSB = "4";
RSB = 0;
baseline = -142.312;
interpolateX = 130.541;
interpolateY = 130.541;
lockScaleXY = 1;
scaleX = 72.537;
scaleY = 72.537;
};
};
};
width = 574;
}
);
leftKerningGroup = "@MMK_R_zero";
rightKerningGroup = "@MMK_L_zero";
unicode = 0030;
},
{
color = (255,255,0,255);
glyphname = one;
layers = (
{
layerId = master01;
paths = (
{
closed = 1;
nodes = (
"242 0 LINE",
"242 675 LINE",
"37 643 LINE",
"37 558 LINE",
"158 578 LINE",
"158 0 LINE"
);
}
);
userData = {
tnScalarpolator = {
scalarpolatorPrefs = {
LSB = "4";
RSB = 0;
baseline = -142.312;
interpolateX = 130.541;
interpolateY = 130.541;
lockScaleXY = 1;
scaleX = 72.537;
scaleY = 72.537;
};
};
};
width = 282;
}
);
leftKerningGroup = "@MMK_R_one";
rightKerningGroup = "@MMK_L_one";
unicode = 0031;
},
{
color = (255,255,0,255);
glyphname = two;
layers = (
{
layerId = master01;
paths = (
{
closed = 1;
nodes = (
"446 0 LINE",
"446 84 LINE",
"81 85 LINE",
"83 56 LINE",
"217 150 LINE SMOOTH",
"341 241 OFFCURVE",
"445 327 OFFCURVE",
"445 469 CURVE SMOOTH",
"445 593 OFFCURVE",
"366 671 OFFCURVE",
"230 671 CURVE SMOOTH",
"166 671 OFFCURVE",
"111 654 OFFCURVE",
"58 619 CURVE",
"58 530 LINE",
"109 573 OFFCURVE",
"162 592 OFFCURVE",
"229 592 CURVE SMOOTH",
"307 592 OFFCURVE",
"362 543 OFFCURVE",
"362 460 CURVE SMOOTH",
"362 355 OFFCURVE",
"275 273 OFFCURVE",
"143 185 CURVE SMOOTH",
"53 114 LINE",
"53 0 LINE"
);
}
);
userData = {
tnScalarpolator = {
scalarpolatorPrefs = {
LSB = "4";
RSB = 0;
baseline = -142.312;
interpolateX = 130.541;
interpolateY = 130.541;
lockScaleXY = 1;
scaleX = 72.537;
scaleY = 72.537;
};
};
};
width = 486;
}
);
leftKerningGroup = "@MMK_R_two";
rightKerningGroup = "@MMK_L_two";
unicode = 0032;
},
{
color = (255,255,0,255);
glyphname = three;
layers = (
{
layerId = master01;
paths = (
{
closed = 1;
nodes = (
"371 -13 OFFCURVE",
"451 58 OFFCURVE",
"451 170 CURVE SMOOTH",
"451 267 OFFCURVE",
"382 329 OFFCURVE",
"281 339 CURVE",
"281 333 LINE",
"384 349 OFFCURVE",
"439 414 OFFCURVE",
"439 506 CURVE SMOOTH",
"439 602 OFFCURVE",
"366 671 OFFCURVE",
"233 671 CURVE SMOOTH",
"176 671 OFFCURVE",
"118 654 OFFCURVE",
"71 622 CURVE",
"71 536 LINE",
"116 572 OFFCURVE",
"174 592 OFFCURVE",
"233 592 CURVE SMOOTH",
"302 592 OFFCURVE",
"354 557 OFFCURVE",
"354 492 CURVE SMOOTH",
"354 415 OFFCURVE",
"292 374 OFFCURVE",
"192 374 CURVE SMOOTH",
"161 374 LINE",
"161 295 LINE",
"197 295 LINE SMOOTH",
"303 295 OFFCURVE",
"367 255 OFFCURVE",
"366 177 CURVE SMOOTH",
"366 106 OFFCURVE",
"315 66 OFFCURVE",
"235 66 CURVE SMOOTH",
"169 66 OFFCURVE",
"99 91 OFFCURVE",
"47 134 CURVE",
"47 45 LINE",
"105 8 OFFCURVE",
"175 -13 OFFCURVE",
"244 -13 CURVE SMOOTH"
);
}
);
userData = {
tnScalarpolator = {
scalarpolatorPrefs = {
LSB = "4";
RSB = 0;
baseline = -142.312;
interpolateX = 130.541;
interpolateY = 130.541;
lockScaleXY = 1;
scaleX = 72.537;
scaleY = 72.537;
};
};
};
width = 491;
}
);
leftKerningGroup = "@MMK_R_three";
rightKerningGroup = "@MMK_L_three";
unicode = 0033;
},
{
color = (255,255,0,255);
glyphname = four;
layers = (
{
layerId = master01;
paths = (
{
closed = 1;
nodes = (
"425 0 LINE",
"425 172 LINE",
"519 172 LINE",
"519 247 LINE",
"425 247 LINE",
"425 666 LINE",
"322 666 LINE",
"42 231 LINE",
"42 172 LINE",
"341 172 LINE",
"341 0 LINE"
);
},
{
closed = 1;
nodes = (
"135 247 LINE",
"341 563 LINE",
"341 247 LINE"
);
}
);
userData = {
tnScalarpolator = {
scalarpolatorPrefs = {
LSB = "4";
RSB = 0;
baseline = -142.312;
interpolateX = 130.541;
interpolateY = 130.541;
lockScaleXY = 1;
scaleX = 72.537;
scaleY = 72.537;
};
};
};
width = 559;
}
);
leftKerningGroup = "@MMK_R_four";
rightKerningGroup = "@MMK_L_four";
unicode = 0034;
},
{
color = (255,255,0,255);
glyphname = five;
layers = (
{
layerId = master01;
paths = (
{
closed = 1;
nodes = (
"373 -12 OFFCURVE",
"463 72 OFFCURVE",
"463 198 CURVE SMOOTH",
"463 324 OFFCURVE",
"375 400 OFFCURVE",
"234 400 CURVE SMOOTH",
"208 400 OFFCURVE",
"178 398 OFFCURVE",
"150 393 CURVE",
"155 385 LINE",
"171 578 LINE",
"442 578 LINE",
"442 658 LINE",
"94 658 LINE",
"68 305 LINE",
"123 315 OFFCURVE",
"169 319 OFFCURVE",
"218 319 CURVE SMOOTH",
"315 319 OFFCURVE",
"377 275 OFFCURVE",
"377 194 CURVE SMOOTH",
"377 110 OFFCURVE",
"315 67 OFFCURVE",
"233 67 CURVE SMOOTH",
"163 67 OFFCURVE",
"104 90 OFFCURVE",
"53 134 CURVE",
"53 46 LINE",
"107 6 OFFCURVE",
"165 -12 OFFCURVE",
"238 -12 CURVE SMOOTH"
);
}
);
userData = {
tnScalarpolator = {
scalarpolatorPrefs = {
LSB = "4";
RSB = 0;
baseline = -142.312;
interpolateX = 130.541;
interpolateY = 130.541;
lockScaleXY = 1;
scaleX = 72.537;
scaleY = 72.537;
};
};
};
width = 503;
}
);
leftKerningGroup = "@MMK_R_five";
rightKerningGroup = "@MMK_L_five";
unicode = 0035;
},
{
color = (255,255,0,255);
glyphname = six;
layers = (
{
layerId = master01;
paths = (
{
closed = 1;
nodes = (
"400 -12 OFFCURVE",
"497 72 OFFCURVE",
"497 216 CURVE SMOOTH",
"497 343 OFFCURVE",
"413 429 OFFCURVE",
"292 429 CURVE SMOOTH",
"206 429 OFFCURVE",
"130 380 OFFCURVE",
"114 277 CURVE",
"135 286 LINE",
"135 492 OFFCURVE",
"215 593 OFFCURVE",
"332 593 CURVE SMOOTH",
"378 593 OFFCURVE",
"427 580 OFFCURVE",
"465 561 CURVE",
"465 645 LINE",
"423 661 OFFCURVE",
"373 671 OFFCURVE",
"326 671 CURVE SMOOTH",
"160 671 OFFCURVE",
"51 532 OFFCURVE",
"51 275 CURVE SMOOTH",
"51 80 OFFCURVE",
"144 -12 OFFCURVE",
"272 -12 CURVE SMOOTH"
);
},
{
closed = 1;
nodes = (
"188 63 OFFCURVE",
"138 132 OFFCURVE",
"137 237 CURVE",
"145 305 OFFCURVE",
"202 355 OFFCURVE",
"278 355 CURVE SMOOTH",
"359 355 OFFCURVE",
"413 292 OFFCURVE",
"413 212 CURVE SMOOTH",
"413 124 OFFCURVE",
"356 63 OFFCURVE",
"272 63 CURVE SMOOTH"
);
}
);
userData = {
tnScalarpolator = {
scalarpolatorPrefs = {
LSB = "4";
RSB = 0;
baseline = -142.312;
interpolateX = 130.541;
interpolateY = 130.541;
lockScaleXY = 1;
scaleX = 72.537;
scaleY = 72.537;
};
};
};
width = 537;
}
);
leftKerningGroup = "@MMK_R_six";
rightKerningGroup = "@MMK_L_six";
unicode = 0036;
},
{
color = (255,255,0,255);
glyphname = seven;
layers = (
{
layerId = master01;
paths = (
{
closed = 1;
nodes = (
"226 0 LINE SMOOTH",
"454 599 LINE SMOOTH",
"454 658 LINE SMOOTH",
"44 658 LINE SMOOTH",
"44 577 LINE SMOOTH",
"397 577 LINE SMOOTH",
"369 600 LINE SMOOTH",
"136 0 LINE SMOOTH"
);
}
);
userData = {
tnScalarpolator = {
scalarpolatorPrefs = {
LSB = "4";
RSB = 0;
baseline = -142.312;
interpolateX = 130.541;
interpolateY = 130.541;
lockScaleXY = 1;
scaleX = 72.537;
scaleY = 72.537;
};
};
};
width = 494;
}
);
leftKerningGroup = "@MMK_R_seven";
rightKerningGroup = "@MMK_L_seven";
unicode = 0037;
},
{
color = (255,255,0,255);
glyphname = eight;
layers = (
{
layerId = master01;
paths = (
{
closed = 1;
nodes = (
"409 -14 OFFCURVE",
"484 66 OFFCURVE",
"484 172 CURVE SMOOTH",
"484 272 OFFCURVE",
"410 331 OFFCURVE",
"286 371 CURVE SMOOTH",
"259 380 LINE SMOOTH",
"194 403 OFFCURVE",
"152 442 OFFCURVE",
"152 496 CURVE SMOOTH",
"152 556 OFFCURVE",
"200 600 OFFCURVE",
"269 600 CURVE SMOOTH",
"339 600 OFFCURVE",
"386 556 OFFCURVE",
"386 497 CURVE SMOOTH",
"386 438 OFFCURVE",
"344 396 OFFCURVE",
"274 375 CURVE SMOOTH",
"261 372 LINE",
"295 323 LINE",
"307 326 LINE SMOOTH",
"415 359 OFFCURVE",
"473 417 OFFCURVE",
"473 505 CURVE SMOOTH",
"473 598 OFFCURVE",
"398 672 OFFCURVE",
"269 672 CURVE SMOOTH",
"139 672 OFFCURVE",
"66 593 OFFCURVE",
"66 495 CURVE SMOOTH",
"66 399 OFFCURVE",
"131 343 OFFCURVE",
"253 303 CURVE SMOOTH",
"279 294 LINE SMOOTH",
"353 268 OFFCURVE",
"397 232 OFFCURVE",
"397 171 CURVE SMOOTH",
"397 108 OFFCURVE",
"352 58 OFFCURVE",
"268 58 CURVE SMOOTH",
"188 58 OFFCURVE",
"138 110 OFFCURVE",
"138 171 CURVE SMOOTH",
"138 237 OFFCURVE",
"187 283 OFFCURVE",
"262 306 CURVE SMOOTH",
"275 310 LINE",
"243 359 LINE",
"230 355 LINE SMOOTH",
"119 322 OFFCURVE",
"53 260 OFFCURVE",
"53 166 CURVE SMOOTH",
"53 66 OFFCURVE",
"126 -14 OFFCURVE",
"269 -14 CURVE SMOOTH"
);
}
);
userData = {
axes = {
wdth = {
defaultValue = 0;
enabled = 1;
maxValue = 1000;
minValue = 0;
name = wdth;
tag = wdth;
value = 0;
};
wght = {
defaultValue = 0;
enabled = 1;
maxValue = 1000;
minValue = 0;
name = wght;
tag = wght;
value = 0;
};
};
tnScalarpolator = {
scalarpolatorPrefs = {
LSB = "4";
RSB = 0;
baseline = -142.312;
interpolateX = 130.541;
interpolateY = 130.541;
lockScaleXY = 1;
scaleX = 72.537;
scaleY = 72.537;
};
};
};
width = 524;
}
);
leftKerningGroup = "@MMK_R_eight";
rightKerningGroup = "@MMK_L_eight";
unicode = 0038;
},
{
color = (204,255,204,255);
glyphname = nine;
layers = (
{
layerId = master01;
paths = (
{
closed = 1;
nodes = (
"387 -12 OFFCURVE",
"497 120 OFFCURVE",
"497 383 CURVE SMOOTH",
"497 582 OFFCURVE",
"404 671 OFFCURVE",
"275 671 CURVE SMOOTH",
"147 671 OFFCURVE",
"51 587 OFFCURVE",
"51 443 CURVE SMOOTH",
"51 315 OFFCURVE",
"135 230 OFFCURVE",
"256 230 CURVE SMOOTH",
"341 230 OFFCURVE",
"417 279 OFFCURVE",
"433 382 CURVE",
"412 374 LINE",
"412 163 OFFCURVE",
"336 66 OFFCURVE",
"216 66 CURVE SMOOTH",
"170 66 OFFCURVE",
"121 80 OFFCURVE",
"83 99 CURVE",
"83 14 LINE",
"125 -2 OFFCURVE",
"175 -12 OFFCURVE",
"222 -12 CURVE SMOOTH"
);
},
{
closed = 1;
nodes = (
"189 303 OFFCURVE",
"135 367 OFFCURVE",
"135 447 CURVE SMOOTH",
"135 534 OFFCURVE",
"191 597 OFFCURVE",
"275 597 CURVE SMOOTH",
"359 597 OFFCURVE",
"409 527 OFFCURVE",
"410 422 CURVE",
"403 354 OFFCURVE",
"346 303 OFFCURVE",
"270 303 CURVE SMOOTH"
);
}
);
userData = {
tnScalarpolator = {
scalarpolatorPrefs = {
LSB = "4";
RSB = 0;
baseline = -142.312;
interpolateX = 130.541;
interpolateY = 130.541;
lockScaleXY = 1;
scaleX = 72.537;
scaleY = 72.537;
};
};
};
width = 537;
}
);
leftKerningGroup = "@MMK_R_nine";
rightKerningGroup = "@MMK_L_nine";
unicode = 0039;
},
{
color = (255,255,0,255);
glyphname = underscore;
layers = (
{
layerId = master01;
paths = (
{
closed = 1;
nodes = (
"422 -215 LINE",
"422 -143 LINE",
"0 -143 LINE",
"0 -215 LINE"
);
}
);
userData = {
tnScalarpolator = {
scalarpolatorPrefs = {
LSB = "4";
RSB = 0;
baseline = -142.312;
interpolateX = 130.541;
interpolateY = 130.541;
lockScaleXY = 1;
scaleX = 72.537;
scaleY = 72.537;
};
};
};
width = 462;
}
);
leftKerningGroup = "@MMK_R_underscore";
rightKerningGroup = "@MMK_L_underscore";
unicode = 005F;
},
{
color = (255,255,0,255);
glyphname = hyphen;
layers = (
{
layerId = master01;
paths = (
{
closed = 1;
nodes = (
"317 200 LINE",
"317 272 LINE",
"46 272 LINE",
"46 200 LINE"
);
}
);
userData = {
tnScalarpolator = {
scalarpolatorPrefs = {
LSB = "4";
RSB = 0;
baseline = -142.312;
interpolateX = 130.541;
interpolateY = 130.541;
lockScaleXY = 1;
scaleX = 72.537;
scaleY = 72.537;
};
};
};
width = 357;
}
);
leftKerningGroup = "@MMK_R_hyphen";
rightKerningGroup = "@MMK_L_hyphen";
unicode = "002D,00AD,2010";
},
{
color = (255,255,0,255);
glyphname = endash;
layers = (
{
layerId = master01;
paths = (
{
closed = 1;
nodes = (
"466 200 LINE",
"466 272 LINE",
"46 272 LINE",
"46 200 LINE"
);
}
);
userData = {
tnScalarpolator = {
scalarpolatorPrefs = {
LSB = "4";
RSB = 0;
baseline = -142.312;
interpolateX = 130.541;
interpolateY = 130.541;
lockScaleXY = 1;
scaleX = 72.537;
scaleY = 72.537;
};
};
};
width = 506;
}
);
leftKerningGroup = "@MMK_R_hyphen";
rightKerningGroup = "@MMK_L_hyphen";
unicode = 2013;
},
{
color = (255,255,0,255);
glyphname = emdash;
layers = (
{
layerId = master01;
paths = (
{
closed = 1;
nodes = (
"966 200 LINE",
"966 272 LINE",
"46 272 LINE",
"46 200 LINE"
);
}
);
userData = {
tnScalarpolator = {
scalarpolatorPrefs = {
LSB = "4";
RSB = 0;
baseline = -142.312;
interpolateX = 130.541;
interpolateY = 130.541;
lockScaleXY = 1;
scaleX = 72.537;
scaleY = 72.537;
};
};
};
width = 1006;
}
);
leftKerningGroup = "@MMK_R_hyphen";
rightKerningGroup = "@MMK_L_hyphen";
unicode = 2014;
},
{
color = (255,255,0,255);
glyphname = parenleft;
layers = (
{
layerId = master01;
paths = (
{
closed = 1;
nodes = (
"319 -215 LINE",
"206 -79 OFFCURVE",
"140 94 OFFCURVE",
"140 252 CURVE SMOOTH",
"140 410 OFFCURVE",
"206 584 OFFCURVE",
"319 720 CURVE",
"224 720 LINE",
"120 593 OFFCURVE",
"58 420 OFFCURVE",
"58 252 CURVE SMOOTH",
"58 86 OFFCURVE",
"120 -88 OFFCURVE",
"224 -215 CURVE"
);
}
);
userData = {
tnScalarpolator = {
scalarpolatorPrefs = {
LSB = "4";
RSB = 0;
baseline = -142.312;
interpolateX = 130.541;
interpolateY = 130.541;
lockScaleXY = 1;
scaleX = 72.537;
scaleY = 72.537;
};
};
};
width = 359;
}
);
leftKerningGroup = "@MMK_R_parenleft";
rightKerningGroup = "@MMK_L_parenleft";
unicode = 0028;
},
{
color = (255,255,0,255);
glyphname = parenright;
layers = (
{
layerId = master01;
paths = (
{
closed = 1;
nodes = (
"111 -215 LINE",
"215 -88 OFFCURVE",
"277 86 OFFCURVE",
"277 252 CURVE SMOOTH",
"277 420 OFFCURVE",
"215 593 OFFCURVE",
"111 720 CURVE",
"16 720 LINE",
"129 584 OFFCURVE",
"195 410 OFFCURVE",
"195 252 CURVE SMOOTH",
"195 94 OFFCURVE",
"129 -79 OFFCURVE",
"16 -215 CURVE"
);
}
);
userData = {
tnScalarpolator = {
scalarpolatorPrefs = {
LSB = "4";
RSB = 0;
baseline = -142.312;
interpolateX = 130.541;
interpolateY = 130.541;
lockScaleXY = 1;
scaleX = 72.537;
scaleY = 72.537;
};
};
};
width = 317;
}
);
leftKerningGroup = "@MMK_R_parenright";
rightKerningGroup = "@MMK_L_parenright";
unicode = 0029;
},
{
color = (255,255,0,255);
glyphname = bracketleft;
layers = (
{
layerId = master01;
paths = (
{
closed = 1;
nodes = (
"302 -220 LINE",
"302 -150 LINE",
"171 -150 LINE",
"171 650 LINE",
"302 650 LINE",
"302 720 LINE",
"90 720 LINE",
"90 -220 LINE"
);
}
);
userData = {
tnScalarpolator = {
scalarpolatorPrefs = {
LSB = "4";
RSB = 0;
baseline = -142.312;
interpolateX = 130.541;
interpolateY = 130.541;
lockScaleXY = 1;
scaleX = 72.537;
scaleY = 72.537;
};
};
};
width = 342;
}
);
leftKerningGroup = "@MMK_R_bracketleft";
rightKerningGroup = "@MMK_L_bracketleft";
unicode = 005B;
},
{
color = (204,255,204,255);
glyphname = bracketright;
layers = (
{
layerId = master01;
paths = (
{
closed = 1;
nodes = (
"251 -220 LINE",
"251 720 LINE",
"40 720 LINE",
"40 650 LINE",
"171 650 LINE",
"171 -150 LINE",
"40 -150 LINE",
"40 -220 LINE"
);
}
);
userData = {
tnScalarpolator = {
scalarpolatorPrefs = {
LSB = "4";
RSB = 0;
baseline = -142.312;
interpolateX = 130.541;
interpolateY = 130.541;
lockScaleXY = 1;
scaleX = 72.537;
scaleY = 72.537;
};
};
};
width = 291;
}
);
leftKerningGroup = "@MMK_R_bracketright";
rightKerningGroup = "@MMK_L_bracketright";
unicode = 005D;
},
{
color = (255,255,0,255);
glyphname = braceleft;
layers = (
{
layerId = master01;
paths = (
{
closed = 1;
nodes = (
"417 -220 LINE",
"417 -148 LINE",
"393 -148 LINE SMOOTH",
"301 -148 OFFCURVE",
"256 -104 OFFCURVE",
"263 -14 CURVE SMOOTH",
"270 89 LINE SMOOTH",
"277 173 OFFCURVE",
"229 226 OFFCURVE",
"151 251 CURVE",
"151 252 LINE",
"229 272 OFFCURVE",
"277 324 OFFCURVE",
"270 412 CURVE SMOOTH",
"263 515 LINE SMOOTH",
"256 605 OFFCURVE",
"301 648 OFFCURVE",
"393 648 CURVE SMOOTH",
"417 648 LINE",
"417 721 LINE",
"394 721 LINE SMOOTH",
"247 721 OFFCURVE",
"169 657 OFFCURVE",
"178 526 CURVE SMOOTH",
"186 412 LINE SMOOTH",
"191 341 OFFCURVE",
"145 301 OFFCURVE",
"58 288 CURVE",
"58 213 LINE",
"145 199 OFFCURVE",
"191 160 OFFCURVE",
"186 89 CURVE SMOOTH",
"178 -25 LINE SMOOTH",
"169 -157 OFFCURVE",
"247 -220 OFFCURVE",
"394 -220 CURVE SMOOTH"
);
}
);
userData = {
tnScalarpolator = {
scalarpolatorPrefs = {
LSB = "4";
RSB = 0;
baseline = -142.312;
interpolateX = 130.541;
interpolateY = 130.541;
lockScaleXY = 1;
scaleX = 72.537;
scaleY = 72.537;
};
};
};
width = 457;
}
);
leftKerningGroup = "@MMK_R_braceleft";
rightKerningGroup = "@MMK_L_braceleft";
unicode = 007B;
},
{
color = (204,255,204,255);
glyphname = braceright;
layers = (
{
layerId = master01;
paths = (
{
closed = 1;
nodes = (
"63 -220 LINE SMOOTH",
"210 -220 OFFCURVE",
"288 -157 OFFCURVE",
"279 -25 CURVE SMOOTH",
"271 88 LINE SMOOTH",
"266 160 OFFCURVE",
"312 199 OFFCURVE",
"399 213 CURVE",
"399 287 LINE",
"312 301 OFFCURVE",
"266 341 OFFCURVE",
"271 412 CURVE SMOOTH",
"279 525 LINE SMOOTH",
"288 657 OFFCURVE",
"210 720 OFFCURVE",
"63 720 CURVE SMOOTH",
"40 720 LINE",
"40 648 LINE",
"64 648 LINE SMOOTH",
"156 648 OFFCURVE",
"201 605 OFFCURVE",
"194 514 CURVE SMOOTH",
"187 412 LINE SMOOTH",
"180 325 OFFCURVE",
"228 273 OFFCURVE",
"306 251 CURVE",
"306 250 LINE",
"228 227 OFFCURVE",
"180 175 OFFCURVE",
"187 88 CURVE SMOOTH",
"194 -14 LINE SMOOTH",
"201 -104 OFFCURVE",
"156 -148 OFFCURVE",
"64 -148 CURVE SMOOTH",
"40 -148 LINE",
"40 -220 LINE"
);
}
);
userData = {
tnScalarpolator = {
scalarpolatorPrefs = {
LSB = "4";
RSB = 0;
baseline = -142.312;
interpolateX = 130.541;
interpolateY = 130.541;
lockScaleXY = 1;
scaleX = 72.537;
scaleY = 72.537;
};
};
};
width = 439;
}
);
leftKerningGroup = "@MMK_R_braceright";
rightKerningGroup = "@MMK_L_braceright";
unicode = 007D;
},
{
color = (255,255,0,255);
glyphname = numbersign;
layers = (
{
layerId = master01;
paths = (
{
closed = 1;
nodes = (
"198 -35 LINE",
"270 515 LINE",
"198 515 LINE",
"127 -35 LINE"
);
},
{
closed = 1;
nodes = (
"375 -35 LINE",
"447 515 LINE",
"376 515 LINE",
"305 -35 LINE"
);
},
{
closed = 1;
nodes = (
"521 304 LINE",
"521 378 LINE",
"66 378 LINE",
"66 304 LINE"
);
},
{
closed = 1;
nodes = (
"506 103 LINE",
"506 177 LINE",
"50 177 LINE",
"50 103 LINE"
);
}
);
userData = {
tnScalarpolator = {
scalarpolatorPrefs = {
LSB = "4";
RSB = 0;
baseline = -142.312;
interpolateX = 130.541;
interpolateY = 130.541;
lockScaleXY = 1;
scaleX = 72.537;
scaleY = 72.537;
};
};
};
width = 561;
}
);
leftKerningGroup = "@MMK_R_numbersign";
rightKerningGroup = "@MMK_L_numbersign";
unicode = 0023;
},
{
color = (255,255,0,255);
glyphname = quotesingle;
layers = (
{
layerId = master01;
paths = (
{
closed = 1;
nodes = (
"130 509 LINE",
"130 720 LINE",
"60 720 LINE",
"60 509 LINE"
);
}
);
userData = {
tnScalarpolator = {
scalarpolatorPrefs = {
LSB = "4";
RSB = 0;
baseline = -142.312;
interpolateX = 130.541;
interpolateY = 130.541;
lockScaleXY = 1;
scaleX = 72.537;
scaleY = 72.537;
};
};
};
width = 170;
}
);
leftKerningGroup = "@MMK_R_quotesingle";
rightKerningGroup = "@MMK_L_quotesingle";
unicode = 0027;
},
{
color = (255,255,0,255);
glyphname = quotedbl;
layers = (
{
layerId = master01;
paths = (
{
closed = 1;
nodes = (
"130 501 LINE",
"130 720 LINE",
"60 720 LINE",
"60 501 LINE"
);
},
{
closed = 1;
nodes = (
"271 501 LINE",
"271 720 LINE",
"201 720 LINE",
"201 501 LINE"
);
}
);
userData = {
tnScalarpolator = {
scalarpolatorPrefs = {
LSB = "4";
RSB = 0;
baseline = -142.312;
interpolateX = 130.541;
interpolateY = 130.541;
lockScaleXY = 1;
scaleX = 72.537;
scaleY = 72.537;
};
};
};
width = 311;
}
);
leftKerningGroup = "@MMK_R_quotesingle";
rightKerningGroup = "@MMK_L_quotesingle";
unicode = 0022;
},
{
color = (255,255,0,255);
glyphname = quoteleft;
layers = (
{
layerId = master01;
paths = (
{
closed = 1;
nodes = (
"129 487 LINE",
"129 567 LINE SMOOTH",
"129 625 OFFCURVE",
"144 665 OFFCURVE",
"171 709 CURVE",
"115 734 LINE",
"76 692 OFFCURVE",
"49 630 OFFCURVE",
"49 562 CURVE SMOOTH",
"49 487 LINE"
);
}
);
userData = {
tnScalarpolator = {
scalarpolatorPrefs = {
LSB = "4";
RSB = 0;
baseline = -142.312;
interpolateX = 130.541;
interpolateY = 130.541;
lockScaleXY = 1;
scaleX = 72.537;
scaleY = 72.537;
};
};
};
width = 211;
}
);
leftKerningGroup = "@MMK_R_quoteleft";
rightKerningGroup = "@MMK_L_quoteleft";
unicode = 2018;
},
{
color = (255,255,0,255);
glyphname = quoteright;
layers = (
{
layerId = master01;
paths = (
{
closed = 1;
nodes = (
"122 515 OFFCURVE",
"149 577 OFFCURVE",
"149 644 CURVE SMOOTH",
"149 720 LINE",
"69 720 LINE",
"69 640 LINE SMOOTH",
"69 581 OFFCURVE",
"55 542 OFFCURVE",
"28 497 CURVE",
"83 473 LINE"
);
}
);
userData = {
tnScalarpolator = {
scalarpolatorPrefs = {
LSB = "4";
RSB = 0;
baseline = -142.312;
interpolateX = 130.541;
interpolateY = 130.541;
lockScaleXY = 1;
scaleX = 72.537;
scaleY = 72.537;
};
};
};
width = 189;
}
);
leftKerningGroup = "@MMK_R_quoteright";
rightKerningGroup = "@MMK_L_quoteright";
unicode = 2019;
},
{
color = (255,255,0,255);
glyphname = quotedblleft;
layers = (
{
layerId = master01;
paths = (
{
closed = 1;
nodes = (
"125 490 LINE",
"125 568 LINE SMOOTH",
"125 627 OFFCURVE",
"140 667 OFFCURVE",
"167 711 CURVE",
"111 735 LINE",
"72 693 OFFCURVE",
"44 631 OFFCURVE",
"44 564 CURVE SMOOTH",
"44 490 LINE"
);
},
{
closed = 1;
nodes = (
"276 490 LINE",
"276 568 LINE SMOOTH",
"276 627 OFFCURVE",
"291 667 OFFCURVE",
"318 711 CURVE",
"262 735 LINE",
"223 693 OFFCURVE",
"196 631 OFFCURVE",
"196 564 CURVE SMOOTH",
"196 490 LINE"
);
}
);
userData = {
tnScalarpolator = {
scalarpolatorPrefs = {
LSB = "4";
RSB = 0;
baseline = -142.312;
interpolateX = 130.541;
interpolateY = 130.541;
lockScaleXY = 1;
scaleX = 72.537;
scaleY = 72.537;
};
};
};
width = 358;
}
);
leftKerningGroup = "@MMK_R_quoteleft";
rightKerningGroup = "@MMK_L_quoteleft";
unicode = 201C;
},
{
color = (255,255,0,255);
glyphname = quotedblright;
layers = (
{
layerId = master01;
paths = (
{
closed = 1;
nodes = (
"122 515 OFFCURVE",
"149 577 OFFCURVE",
"149 644 CURVE SMOOTH",
"149 720 LINE",
"69 720 LINE",
"69 640 LINE SMOOTH",
"69 581 OFFCURVE",
"55 542 OFFCURVE",
"28 497 CURVE",
"83 473 LINE"
);
},
{
closed = 1;
nodes = (
"268 515 OFFCURVE",
"295 577 OFFCURVE",
"295 644 CURVE SMOOTH",
"295 720 LINE",
"216 720 LINE",
"216 640 LINE SMOOTH",
"216 581 OFFCURVE",
"201 542 OFFCURVE",
"174 497 CURVE",
"229 473 LINE"
);
}
);
userData = {
tnScalarpolator = {
scalarpolatorPrefs = {
LSB = "4";
RSB = 0;
baseline = -142.312;
interpolateX = 130.541;
interpolateY = 130.541;
lockScaleXY = 1;
scaleX = 72.537;
scaleY = 72.537;
};
};
};
width = 335;
}
);
leftKerningGroup = "@MMK_R_quoteright";
rightKerningGroup = "@MMK_L_quoteright";
unicode = 201D;
},
{
color = (255,255,0,255);
glyphname = quotesinglbase;
layers = (
{
layerId = master01;
paths = (
{
closed = 1;
nodes = (
"69 95 LINE",
"69 15 LINE SMOOTH",
"69 -44 OFFCURVE",
"55 -83 OFFCURVE",
"28 -127 CURVE",
"83 -152 LINE",
"122 -110 OFFCURVE",
"149 -48 OFFCURVE",
"149 19 CURVE SMOOTH",
"149 95 LINE"
);
}
);
userData = {
tnScalarpolator = {
scalarpolatorPrefs = {
LSB = "4";
RSB = 0;
baseline = -142.312;
interpolateX = 130.541;
interpolateY = 130.541;
lockScaleXY = 1;
scaleX = 72.537;
scaleY = 72.537;
};
};
};
width = 189;
}
);
leftKerningGroup = "@MMK_R_comma";
rightKerningGroup = "@MMK_L_comma";
unicode = 201A;
},
{
color = (255,255,0,255);
glyphname = quotedblbase;
layers = (
{
layerId = master01;
paths = (
{
closed = 1;
nodes = (
"69 95 LINE",
"69 15 LINE SMOOTH",
"69 -44 OFFCURVE",
"55 -83 OFFCURVE",
"28 -127 CURVE",
"83 -152 LINE",
"122 -110 OFFCURVE",
"149 -48 OFFCURVE",
"149 19 CURVE SMOOTH",
"149 95 LINE"
);
},
{
closed = 1;
nodes = (
"213 95 LINE",
"213 15 LINE SMOOTH",
"213 -44 OFFCURVE",
"198 -83 OFFCURVE",
"171 -127 CURVE",
"226 -152 LINE",
"265 -110 OFFCURVE",
"292 -48 OFFCURVE",
"292 19 CURVE SMOOTH",
"292 95 LINE"
);
}
);
userData = {
tnScalarpolator = {
scalarpolatorPrefs = {
LSB = "4";
RSB = 0;
baseline = -142.312;
interpolateX = 130.541;
interpolateY = 130.541;
lockScaleXY = 1;
scaleX = 72.537;
scaleY = 72.537;
};
};
};
width = 332;
}
);
leftKerningGroup = "@MMK_R_comma";
rightKerningGroup = "@MMK_L_comma";
unicode = 201E;
},
{
color = (255,255,0,255);
glyphname = guilsinglleft;
layers = (
{
layerId = master01;
paths = (
{
closed = 1;
nodes = (
"293 67 LINE",
"138 226 LINE SMOOTH",
"293 386 LINE",
"195 386 LINE",
"40 226 LINE",
"195 67 LINE"
);
}
);
userData = {
tnScalarpolator = {
scalarpolatorPrefs = {
LSB = "4";
RSB = 0;
baseline = -142.312;
interpolateX = 130.541;
interpolateY = 130.541;
lockScaleXY = 1;
scaleX = 72.537;
scaleY = 72.537;
};
};
};
width = 333;
}
);
leftKerningGroup = "@MMK_R_guillemotleft";
rightKerningGroup = "@MMK_L_guillemotleft";
unicode = 2039;
},
{
color = (255,255,0,255);
glyphname = guilsinglright;
layers = (
{
layerId = master01;
paths = (
{
closed = 1;
nodes = (
"138 67 LINE",
"293 226 LINE",
"138 386 LINE",
"40 386 LINE",
"194 226 LINE SMOOTH",
"40 67 LINE"
);
}
);
userData = {
tnScalarpolator = {
scalarpolatorPrefs = {
LSB = "4";
RSB = 0;
baseline = -142.312;
interpolateX = 130.541;
interpolateY = 130.541;
lockScaleXY = 1;
scaleX = 72.537;
scaleY = 72.537;
};
};
};
width = 333;
}
);
leftKerningGroup = "@MMK_R_guillemotright";
rightKerningGroup = "@MMK_L_guillemotright";
unicode = 203A;
},
{
color = (204,255,204,255);
glyphname = guillemotleft;
layers = (
{
layerId = master01;
paths = (
{
closed = 1;
nodes = (
"293 67 LINE",
"138 226 LINE SMOOTH",
"293 386 LINE",
"195 386 LINE",
"40 226 LINE",
"195 67 LINE"
);
},
{
closed = 1;
nodes = (
"481 67 LINE",
"326 226 LINE SMOOTH",
"481 386 LINE",
"383 386 LINE",
"228 226 LINE",
"383 67 LINE"
);
}
);
userData = {
tnScalarpolator = {
scalarpolatorPrefs = {
LSB = "4";
RSB = 0;
baseline = -142.312;
interpolateX = 130.541;
interpolateY = 130.541;
lockScaleXY = 1;
scaleX = 72.537;
scaleY = 72.537;
};
};
};
width = 521;
}
);
leftKerningGroup = "@MMK_R_guillemotleft";
rightKerningGroup = "@MMK_L_guillemotleft";
unicode = 00AB;
},
{
color = (204,255,204,255);
glyphname = guillemotright;
layers = (
{
layerId = master01;
paths = (
{
closed = 1;
nodes = (
"138 67 LINE",
"293 226 LINE",
"138 386 LINE",
"40 386 LINE",
"194 226 LINE SMOOTH",
"40 67 LINE"
);
},
{
closed = 1;
nodes = (
"326 67 LINE",
"481 226 LINE",
"326 386 LINE",
"228 386 LINE",
"382 226 LINE SMOOTH",
"228 67 LINE"
);
}
);
userData = {
tnScalarpolator = {
scalarpolatorPrefs = {
LSB = "4";
RSB = 0;
baseline = -142.312;
interpolateX = 130.541;
interpolateY = 130.541;
lockScaleXY = 1;
scaleX = 72.537;
scaleY = 72.537;
};
};
};
width = 521;
}
);
leftKerningGroup = "@MMK_R_guillemotright";
rightKerningGroup = "@MMK_L_guillemotright";
unicode = 00BB;
},
{
color = (255,255,0,255);
glyphname = asterisk;
layers = (
{
layerId = master01;
paths = (
{
closed = 1;
nodes = (
"292 203 LINE",
"397 30 LINE",
"473 85 LINE",
"342 239 LINE",
"535 285 LINE",
"506 374 LINE",
"323 298 LINE",
"339 495 LINE",
"245 495 LINE",
"261 298 LINE",
"78 374 LINE",
"49 285 LINE",
"242 239 LINE",
"111 85 LINE",
"187 30 LINE"
);
}
);
userData = {
tnScalarpolator = {
scalarpolatorPrefs = {
LSB = "4";
RSB = 0;
baseline = -142.312;
interpolateX = 130.541;
interpolateY = 130.541;
lockScaleXY = 1;
scaleX = 72.537;
scaleY = 72.537;
};
};
};
width = 575;
}
);
leftKerningGroup = "@MMK_R_asterisk";
rightKerningGroup = "@MMK_L_asterisk";
unicode = 002A;
},
{
color = (255,255,0,255);
glyphname = dagger;
layers = (
{
layerId = master01;
paths = (
{
closed = 1;
nodes = (
"270 0 LINE",
"266 461 LINE",
"414 457 LINE",
"414 532 LINE",
"266 528 LINE",
"270 720 LINE",
"187 720 LINE",
"191 528 LINE",
"43 532 LINE",
"43 457 LINE",
"191 461 LINE",
"187 0 LINE"
);
}
);
userData = {
tnScalarpolator = {
scalarpolatorPrefs = {
LSB = "4";
RSB = 0;
baseline = -142.312;
interpolateX = 130.541;
interpolateY = 130.541;
lockScaleXY = 1;
scaleX = 72.537;
scaleY = 72.537;
};
};
};
width = 454;
}
);
leftKerningGroup = "@MMK_R_dagger";
rightKerningGroup = "@MMK_L_dagger";
unicode = 2020;
},
{
color = (255,255,0,255);
glyphname = daggerdbl;
layers = (
{
layerId = master01;
paths = (
{
closed = 1;
nodes = (
"270 0 LINE",
"266 199 LINE",
"414 195 LINE",
"414 270 LINE",
"266 266 LINE",
"266 461 LINE",
"414 457 LINE",
"414 532 LINE",
"266 528 LINE",
"270 720 LINE",
"187 720 LINE",
"191 528 LINE",
"43 532 LINE",
"43 457 LINE",
"191 461 LINE",
"191 266 LINE",
"43 270 LINE",
"43 195 LINE",
"191 199 LINE",
"187 0 LINE"
);
}
);
userData = {
tnScalarpolator = {
scalarpolatorPrefs = {
LSB = "4";
RSB = 0;
baseline = -142.312;
interpolateX = 130.541;
interpolateY = 130.541;
lockScaleXY = 1;
scaleX = 72.537;
scaleY = 72.537;
};
};
};
width = 454;
}
);
leftKerningGroup = "@MMK_R_daggerdbl";
rightKerningGroup = "@MMK_L_daggerdbl";
unicode = 2021;
},
{
color = (255,255,0,255);
glyphname = period;
layers = (
{
layerId = master01;
paths = (
{
closed = 1;
nodes = (
"136 0 LINE",
"136 85 LINE",
"51 85 LINE",
"51 0 LINE"
);
}
);
userData = {
tnScalarpolator = {
scalarpolatorPrefs = {
LSB = "4";
RSB = 0;
baseline = -142.312;
interpolateX = 130.541;
interpolateY = 130.541;
lockScaleXY = 1;
scaleX = 72.537;
scaleY = 72.537;
};
};
};
width = 176;
}
);
leftKerningGroup = "@MMK_R_period";
rightKerningGroup = "@MMK_L_period";
unicode = 002E;
},
{
color = (255,255,0,255);
glyphname = comma;
layers = (
{
layerId = master01;
paths = (
{
closed = 1;
nodes = (
"69 95 LINE",
"69 15 LINE SMOOTH",
"69 -44 OFFCURVE",
"55 -83 OFFCURVE",
"28 -127 CURVE",
"83 -152 LINE",
"122 -110 OFFCURVE",
"149 -48 OFFCURVE",
"149 19 CURVE SMOOTH",
"149 95 LINE"
);
}
);
userData = {
tnScalarpolator = {
scalarpolatorPrefs = {
LSB = "4";
RSB = 0;
baseline = -142.312;
interpolateX = 130.541;
interpolateY = 130.541;
lockScaleXY = 1;
scaleX = 72.537;
scaleY = 72.537;
};
};
};
width = 189;
}
);
leftKerningGroup = "@MMK_R_comma";
rightKerningGroup = "@MMK_L_comma";
unicode = 002C;
},
{
color = (255,255,0,255);
glyphname = exclam;
layers = (
{
layerId = master01;
paths = (
{
closed = 1;
nodes = (
"150 189 LINE",
"150 720 LINE",
"71 720 LINE",
"71 189 LINE"
);
},
{
closed = 1;
nodes = (
"153 0 LINE",
"153 84 LINE",
"69 84 LINE",
"69 0 LINE"
);
}
);
userData = {
tnScalarpolator = {
scalarpolatorPrefs = {
LSB = "4";
RSB = 0;
baseline = -142.312;
interpolateX = 130.541;
interpolateY = 130.541;
lockScaleXY = 1;
scaleX = 72.537;
scaleY = 72.537;
};
};
};
width = 193;
}
);
leftKerningGroup = "@MMK_R_exclam";
rightKerningGroup = "@MMK_L_exclam";
unicode = 0021;
},
{
color = (255,255,0,255);
glyphname = exclamdown;
layers = (
{
layerId = master01;
paths = (
{
closed = 1;
nodes = (
"150 -241 LINE",
"150 277 LINE",
"71 277 LINE",
"71 -241 LINE"
);
},
{
closed = 1;
nodes = (
"152 382 LINE",
"152 466 LINE",
"68 466 LINE",
"68 382 LINE"
);
}
);
userData = {
tnScalarpolator = {
scalarpolatorPrefs = {
LSB = "4";
RSB = 0;
baseline = -142.312;
interpolateX = 130.541;
interpolateY = 130.541;
lockScaleXY = 1;
scaleX = 72.537;
scaleY = 72.537;
};
};
};
width = 192;
}
);
leftKerningGroup = "@MMK_R_exclamdown";
rightKerningGroup = "@MMK_L_exclamdown";
unicode = 00A1;
},
{
color = (255,255,0,255);
glyphname = question;
layers = (
{
layerId = master01;
paths = (
{
closed = 1;
nodes = (
"250 189 LINE",
"250 254 OFFCURVE",
"275 301 OFFCURVE",
"329 351 CURVE SMOOTH",
"395 411 OFFCURVE",
"419 464 OFFCURVE",
"419 537 CURVE SMOOTH",
"419 640 OFFCURVE",
"343 720 OFFCURVE",
"204 720 CURVE SMOOTH",
"147 720 OFFCURVE",
"87 703 OFFCURVE",
"40 675 CURVE",
"40 591 LINE",
"80 626 OFFCURVE",
"135 646 OFFCURVE",
"191 646 CURVE SMOOTH",
"279 646 OFFCURVE",
"335 598 OFFCURVE",
"335 530 CURVE SMOOTH",
"335 474 OFFCURVE",
"314 434 OFFCURVE",
"266 389 CURVE SMOOTH",
"197 326 OFFCURVE",
"172 266 OFFCURVE",
"172 189 CURVE"
);
},
{
closed = 1;
nodes = (
"254 0 LINE",
"254 84 LINE",
"170 84 LINE",
"170 0 LINE"
);
}
);
userData = {
tnScalarpolator = {
scalarpolatorPrefs = {
LSB = "4";
RSB = 0;
baseline = -142.312;
interpolateX = 130.541;
interpolateY = 130.541;
lockScaleXY = 1;
scaleX = 72.537;
scaleY = 72.537;
};
};
};
width = 459;
}
);
leftKerningGroup = "@MMK_R_question";
rightKerningGroup = "@MMK_L_question";
unicode = 003F;
},
{
color = (255,255,0,255);
glyphname = questiondown;
layers = (
{
layerId = master01;
paths = (
{
closed = 1;
nodes = (
"289 382 LINE",
"289 466 LINE",
"205 466 LINE",
"205 382 LINE"
);
},
{
closed = 1;
nodes = (
"312 -240 OFFCURVE",
"372 -223 OFFCURVE",
"419 -196 CURVE",
"419 -112 LINE",
"379 -146 OFFCURVE",
"324 -166 OFFCURVE",
"268 -166 CURVE SMOOTH",
"180 -166 OFFCURVE",
"124 -121 OFFCURVE",
"124 -48 CURVE SMOOTH",
"124 0 OFFCURVE",
"145 39 OFFCURVE",
"194 82 CURVE SMOOTH",
"262 144 OFFCURVE",
"287 201 OFFCURVE",
"287 277 CURVE",
"209 277 LINE",
"209 214 OFFCURVE",
"184 169 OFFCURVE",
"130 120 CURVE SMOOTH",
"65 61 OFFCURVE",
"40 10 OFFCURVE",
"40 -54 CURVE SMOOTH",
"40 -162 OFFCURVE",
"117 -240 OFFCURVE",
"255 -240 CURVE SMOOTH"
);
}
);
userData = {
tnScalarpolator = {
scalarpolatorPrefs = {
LSB = "4";
RSB = 0;
baseline = -142.312;
interpolateX = 130.541;
interpolateY = 130.541;
lockScaleXY = 1;
scaleX = 72.537;
scaleY = 72.537;
};
};
};
width = 459;
}
);
leftKerningGroup = "@MMK_R_questiondown";
rightKerningGroup = "@MMK_L_questiondown";
unicode = 00BF;
},
{
color = (255,255,0,255);
glyphname = slash;
layers = (
{
layerId = master01;
paths = (
{
closed = 1;
nodes = (
"96 0 LINE",
"392 720 LINE",
"315 720 LINE",
"18 0 LINE"
);
}
);
userData = {
tnScalarpolator = {
scalarpolatorPrefs = {
LSB = "4";
RSB = 0;
baseline = -142.312;
interpolateX = 130.541;
interpolateY = 130.541;
lockScaleXY = 1;
scaleX = 72.537;
scaleY = 72.537;
};
};
};
width = 432;
}
);
leftKerningGroup = "@MMK_R_slash";
rightKerningGroup = "@MMK_L_slash";
unicode = 002F;
},
{
color = (255,255,0,255);
glyphname = backslash;
layers = (
{
layerId = master01;
paths = (
{
closed = 1;
nodes = (
"393 0 LINE",
"96 720 LINE",
"18 720 LINE",
"315 0 LINE"
);
}
);
userData = {
tnScalarpolator = {
scalarpolatorPrefs = {
LSB = "4";
RSB = 0;
baseline = -142.312;
interpolateX = 130.541;
interpolateY = 130.541;
lockScaleXY = 1;
scaleX = 72.537;
scaleY = 72.537;
};
};
};
width = 433;
}
);
leftKerningGroup = "@MMK_R_backslash";
rightKerningGroup = "@MMK_L_backslash";
unicode = 005C;
},
{
color = (255,255,0,255);
glyphname = fraction;
layers = (
{
layerId = master01;
paths = (
{
closed = 1;
nodes = (
"-38 0 LINE",
"246 720 LINE",
"177 720 LINE",
"-108 0 LINE"
);
}
);
userData = {
tnScalarpolator = {
scalarpolatorPrefs = {
LSB = "4";
RSB = 0;
baseline = -142.312;
interpolateX = 130.541;
interpolateY = 130.541;
lockScaleXY = 1;
scaleX = 72.537;
scaleY = 72.537;
};
};
};
width = 286;
}
);
leftKerningGroup = "@MMK_R_fraction";
rightKerningGroup = "@MMK_L_fraction";
unicode = "2044,2215";
},
{
color = (255,255,0,255);
glyphname = bar;
layers = (
{
layerId = master01;
paths = (
{
closed = 1;
nodes = (
"151 -215 LINE",
"151 720 LINE",
"80 720 LINE",
"80 -215 LINE"
);
}
);
userData = {
tnScalarpolator = {
scalarpolatorPrefs = {
LSB = "4";
RSB = 0;
baseline = -142.312;
interpolateX = 130.541;
interpolateY = 130.541;
lockScaleXY = 1;
scaleX = 72.537;
scaleY = 72.537;
};
};
};
width = 191;
}
);
leftKerningGroup = "@MMK_R_bar";
rightKerningGroup = "@MMK_L_bar";
unicode = 007C;
},
{
color = (255,255,0,255);
glyphname = brokenbar;
layers = (
{
layerId = master01;
paths = (
{
closed = 1;
nodes = (
"151 312 LINE",
"151 720 LINE",
"80 720 LINE",
"80 312 LINE"
);
},
{
closed = 1;
nodes = (
"150 -215 LINE",
"150 193 LINE",
"80 193 LINE",
"80 -215 LINE"
);
}
);
userData = {
tnScalarpolator = {
scalarpolatorPrefs = {
LSB = "4";
RSB = 0;
baseline = -142.312;
interpolateX = 130.541;
interpolateY = 130.541;
lockScaleXY = 1;
scaleX = 72.537;
scaleY = 72.537;
};
};
};
width = 191;
}
);
leftKerningGroup = "@MMK_R_bar";
rightKerningGroup = "@MMK_L_bar";
unicode = 00A6;
},
{
color = (255,255,0,255);
glyphname = at;
layers = (
{
layerId = master01;
paths = (
{
closed = 1;
nodes = (
"453 -71 OFFCURVE",
"514 -58 OFFCURVE",
"572 -32 CURVE",
"572 28 LINE",
"517 -1 OFFCURVE",
"456 -16 OFFCURVE",
"394 -16 CURVE SMOOTH",
"221 -16 OFFCURVE",
"105 117 OFFCURVE",
"105 276 CURVE SMOOTH",
"105 435 OFFCURVE",
"222 571 OFFCURVE",
"399 571 CURVE SMOOTH",
"577 571 OFFCURVE",
"696 452 OFFCURVE",
"696 312 CURVE SMOOTH",
"696 214 OFFCURVE",
"659 160 OFFCURVE",
"600 160 CURVE SMOOTH",
"546 160 OFFCURVE",
"516 205 OFFCURVE",
"526 279 CURVE SMOOTH",
"546 435 LINE",
"513 446 OFFCURVE",
"469 452 OFFCURVE",
"436 452 CURVE SMOOTH",
"315 452 OFFCURVE",
"225 368 OFFCURVE",
"225 245 CURVE SMOOTH",
"225 158 OFFCURVE",
"275 107 OFFCURVE",
"348 107 CURVE SMOOTH",
"399 107 OFFCURVE",
"455 135 OFFCURVE",
"482 216 CURVE",
"473 221 LINE",
"488 141 OFFCURVE",
"537 107 OFFCURVE",
"597 107 CURVE SMOOTH",
"689 107 OFFCURVE",
"753 188 OFFCURVE",
"753 313 CURVE SMOOTH",
"753 501 OFFCURVE",
"590 626 OFFCURVE",
"399 626 CURVE SMOOTH",
"209 626 OFFCURVE",
"47 484 OFFCURVE",
"47 275 CURVE SMOOTH",
"47 66 OFFCURVE",
"206 -71 OFFCURVE",
"394 -71 CURVE SMOOTH"
);
},
{
closed = 1;
nodes = (
"314 161 OFFCURVE",
"285 195 OFFCURVE",
"285 251 CURVE SMOOTH",
"285 338 OFFCURVE",
"349 400 OFFCURVE",
"428 400 CURVE SMOOTH",
"448 400 OFFCURVE",
"465 397 OFFCURVE",
"481 393 CURVE",
"474 340 LINE SMOOTH",
"452 176 OFFCURVE",
"400 161 OFFCURVE",
"362 161 CURVE SMOOTH"
);
}
);
userData = {
tnScalarpolator = {
scalarpolatorPrefs = {
LSB = "4";
RSB = 0;
baseline = -142.312;
interpolateX = 130.541;
interpolateY = 130.541;
lockScaleXY = 1;
scaleX = 72.537;
scaleY = 72.537;
};
};
};
width = 793;
}
);
leftKerningGroup = "@MMK_R_at";
rightKerningGroup = "@MMK_L_at";
unicode = 0040;
},
{
color = (255,255,0,255);
glyphname = ampersand;
layers = (
{
layerId = master01;
paths = (
{
closed = 1;
nodes = (
"326 -14 OFFCURVE",
"385 32 OFFCURVE",
"427 85 CURVE",
"444 111 LINE",
"494 173 OFFCURVE",
"518 271 OFFCURVE",
"518 385 CURVE",
"442 385 LINE",
"442 288 OFFCURVE",
"425 217 OFFCURVE",
"394 170 CURVE",
"378 145 LINE",
"348 98 OFFCURVE",
"304 60 OFFCURVE",
"241 60 CURVE SMOOTH",
"161 60 OFFCURVE",
"110 111 OFFCURVE",
"110 185 CURVE SMOOTH",
"110 253 OFFCURVE",
"144 298 OFFCURVE",
"219 330 CURVE",
"181 391 LINE",
"77 351 OFFCURVE",
"25 274 OFFCURVE",
"25 181 CURVE SMOOTH",
"25 66 OFFCURVE",
"103 -14 OFFCURVE",
"231 -14 CURVE SMOOTH"
);
},
{
closed = 1;
nodes = (
"575 0 LINE",
"254 371 LINE SMOOTH",
"215 417 OFFCURVE",
"194 457 OFFCURVE",
"194 498 CURVE SMOOTH",
"194 558 OFFCURVE",
"237 598 OFFCURVE",
"303 598 CURVE SMOOTH",
"351 598 OFFCURVE",
"399 578 OFFCURVE",
"443 538 CURVE",
"443 623 LINE",
"398 656 OFFCURVE",
"346 673 OFFCURVE",
"294 673 CURVE SMOOTH",
"182 673 OFFCURVE",
"110 605 OFFCURVE",
"110 504 CURVE SMOOTH",
"110 446 OFFCURVE",
"131 387 OFFCURVE",
"178 332 CURVE SMOOTH",
"463 0 LINE"
);
}
);
userData = {
tnScalarpolator = {
scalarpolatorPrefs = {
LSB = "4";
RSB = 0;
baseline = -142.312;
interpolateX = 130.541;
interpolateY = 130.541;
lockScaleXY = 1;
scaleX = 72.537;
scaleY = 72.537;
};
};
};
width = 615;
}
);
leftKerningGroup = "@MMK_R_ampersand";
rightKerningGroup = "@MMK_L_ampersand";
unicode = 0026;
},
{
color = (255,255,0,255);
glyphname = section;
layers = (
{
layerId = master01;
paths = (
{
closed = 1;
nodes = (
"299 -11 OFFCURVE",
"355 50 OFFCURVE",
"355 126 CURVE SMOOTH",
"355 200 OFFCURVE",
"311 249 OFFCURVE",
"227 273 CURVE SMOOTH",
"214 278 LINE SMOOTH",
"161 294 OFFCURVE",
"138 319 OFFCURVE",
"138 355 CURVE SMOOTH",
"138 387 OFFCURVE",
"161 416 OFFCURVE",
"196 422 CURVE",
"169 465 LINE",
"110 448 OFFCURVE",
"59 403 OFFCURVE",
"59 339 CURVE SMOOTH",
"59 276 OFFCURVE",
"95 229 OFFCURVE",
"177 207 CURVE SMOOTH",
"192 203 LINE SMOOTH",
"251 186 OFFCURVE",
"275 162 OFFCURVE",
"275 123 CURVE SMOOTH",
"275 80 OFFCURVE",
"241 57 OFFCURVE",
"192 57 CURVE SMOOTH",
"144 57 OFFCURVE",
"96 73 OFFCURVE",
"56 101 CURVE",
"56 24 LINE",
"98 2 OFFCURVE",
"149 -11 OFFCURVE",
"198 -11 CURVE SMOOTH"
);
},
{
closed = 1;
nodes = (
"375 390 OFFCURVE",
"336 441 OFFCURVE",
"245 466 CURVE SMOOTH",
"231 470 LINE SMOOTH",
"179 485 OFFCURVE",
"158 506 OFFCURVE",
"158 538 CURVE SMOOTH",
"158 578 OFFCURVE",
"189 601 OFFCURVE",
"235 601 CURVE SMOOTH",
"278 601 OFFCURVE",
"324 588 OFFCURVE",
"362 564 CURVE",
"362 639 LINE",
"320 659 OFFCURVE",
"271 669 OFFCURVE",
"226 669 CURVE SMOOTH",
"130 669 OFFCURVE",
"78 612 OFFCURVE",
"78 537 CURVE SMOOTH",
"78 474 OFFCURVE",
"120 424 OFFCURVE",
"195 403 CURVE SMOOTH",
"209 399 LINE SMOOTH",
"269 381 OFFCURVE",
"298 354 OFFCURVE",
"298 316 CURVE SMOOTH",
"298 277 OFFCURVE",
"280 258 OFFCURVE",
"239 248 CURVE",
"268 205 LINE",
"329 226 OFFCURVE",
"375 251 OFFCURVE",
"375 331 CURVE SMOOTH"
);
}
);
userData = {
com.typemytype.robofont.Image.Brightness = 0;
com.typemytype.robofont.Image.Contrast = 1;
com.typemytype.robofont.Image.Saturation = 1;
com.typemytype.robofont.Image.Sharpness = 0.4;
tnScalarpolator = {
scalarpolatorPrefs = {
LSB = "4";
RSB = 0;
baseline = -142.312;
interpolateX = 130.541;
interpolateY = 130.541;
lockScaleXY = 1;
scaleX = 72.537;
scaleY = 72.537;
};
};
};
width = 415;
}
);
leftKerningGroup = "@MMK_R_section";
rightKerningGroup = "@MMK_L_section";
unicode = 00A7;
},
{
color = (255,255,0,255);
glyphname = paragraph;
layers = (
{
layerId = master01;
paths = (
{
closed = 1;
nodes = (
"209 0 LINE",
"209 586 LINE",
"298 586 LINE",
"298 0 LINE",
"374 0 LINE",
"374 658 LINE",
"141 658 LINE SMOOTH",
"71 658 OFFCURVE",
"26 618 OFFCURVE",
"26 556 CURVE SMOOTH",
"26 494 OFFCURVE",
"67 455 OFFCURVE",
"132 455 CURVE",
"132 0 LINE"
);
}
);
userData = {
tnScalarpolator = {
scalarpolatorPrefs = {
LSB = "4";
RSB = 0;
baseline = -142.312;
interpolateX = 130.541;
interpolateY = 130.541;
lockScaleXY = 1;
scaleX = 72.537;
scaleY = 72.537;
};
};
};
width = 414;
}
);
leftKerningGroup = "@MMK_R_paragraph";
rightKerningGroup = "@MMK_L_paragraph";
unicode = 00B6;
},
{
color = (255,255,0,255);
glyphname = bullet;
layers = (
{
layerId = master01;
paths = (
{
closed = 1;
nodes = (
"215 170 LINE",
"215 321 LINE",
"60 321 LINE",
"60 170 LINE"
);
}
);
userData = {
tnScalarpolator = {
scalarpolatorPrefs = {
LSB = "4";
RSB = 0;
baseline = -142.312;
interpolateX = 130.541;
interpolateY = 130.541;
lockScaleXY = 1;
scaleX = 72.537;
scaleY = 72.537;
};
};
};
width = 255;
}
);
leftKerningGroup = "@MMK_R_bullet";
rightKerningGroup = "@MMK_L_bullet";
unicode = 2022;
},
{
color = (255,229,128,255);
glyphname = minute;
layers = (
{
layerId = master01;
paths = (
{
closed = 1;
nodes = (
"130 513 LINE",
"130 724 LINE",
"60 724 LINE",
"60 513 LINE"
);
}
);
userData = {
tnScalarpolator = {
scalarpolatorPrefs = {
LSB = "4";
RSB = 0;
baseline = -142.312;
interpolateX = 130.541;
interpolateY = 130.541;
lockScaleXY = 1;
scaleX = 72.537;
scaleY = 72.537;
};
};
};
width = 170;
}
);
leftKerningGroup = "@MMK_R_quotesingle";
rightKerningGroup = "@MMK_L_quotesingle";
unicode = 2032;
},
{
color = (255,229,128,255);
glyphname = second;
layers = (
{
layerId = master01;
paths = (
{
closed = 1;
nodes = (
"130 513 LINE",
"130 724 LINE",
"60 724 LINE",
"60 513 LINE"
);
},
{
closed = 1;
nodes = (
"259 513 LINE",
"259 724 LINE",
"189 724 LINE",
"189 513 LINE"
);
}
);
userData = {
tnScalarpolator = {
scalarpolatorPrefs = {
LSB = "4";
RSB = 0;
baseline = -142.312;
interpolateX = 130.541;
interpolateY = 130.541;
lockScaleXY = 1;
scaleX = 72.537;
scaleY = 72.537;
};
};
};
width = 299;
}
);
leftKerningGroup = "@MMK_R_quotesingle";
rightKerningGroup = "@MMK_L_quotesingle";
unicode = 2033;
},
{
color = (255,255,0,255);
glyphname = plus;
layers = (
{
layerId = master01;
paths = (
{
closed = 1;
nodes = (
"305 76 LINE",
"305 255 LINE",
"476 255 LINE",
"476 326 LINE",
"305 326 LINE",
"305 505 LINE",
"231 505 LINE",
"231 326 LINE",
"60 326 LINE",
"60 255 LINE",
"231 255 LINE",
"231 76 LINE"
);
}
);
userData = {
tnScalarpolator = {
scalarpolatorPrefs = {
LSB = "4";
RSB = 0;
baseline = -142.312;
interpolateX = 130.541;
interpolateY = 130.541;
lockScaleXY = 1;
scaleX = 72.537;
scaleY = 72.537;
};
};
};
width = 516;
}
);
leftKerningGroup = "@MMK_R_plus";
rightKerningGroup = "@MMK_L_plus";
unicode = 002B;
},
{
color = (255,255,0,255);
glyphname = minus;
layers = (
{
layerId = master01;
paths = (
{
closed = 1;
nodes = (
"465 255 LINE",
"465 326 LINE",
"49 326 LINE",
"49 255 LINE"
);
}
);
userData = {
tnScalarpolator = {
scalarpolatorPrefs = {
LSB = "4";
RSB = 0;
baseline = -142.312;
interpolateX = 130.541;
interpolateY = 130.541;
lockScaleXY = 1;
scaleX = 72.537;
scaleY = 72.537;
};
};
};
width = 505;
}
);
rightKerningGroup = "@MMK_L_minus";
unicode = 2212;
},
{
color = (255,255,0,255);
glyphname = plusminus;
layers = (
{
components = (
{
name = plus;
transform = "{1, 0, 0, 1, 16, 0}";
}
);
layerId = master01;
paths = (
{
closed = 1;
nodes = (
"476 -72 LINE",
"476 0 LINE",
"60 0 LINE",
"60 -72 LINE"
);
}
);
userData = {
tnScalarpolator = {
scalarpolatorPrefs = {
LSB = "4";
RSB = 0;
baseline = -142.312;
interpolateX = 130.541;
interpolateY = 130.541;
lockScaleXY = 1;
scaleX = 72.537;
scaleY = 72.537;
};
};
};
width = 532;
}
);
leftKerningGroup = "@MMK_R_plusminus";
rightKerningGroup = "@MMK_L_plusminus";
unicode = 00B1;
},
{
color = (255,255,0,255);
glyphname = divide;
layers = (
{
layerId = master01;
paths = (
{
closed = 1;
nodes = (
"476 255 LINE",
"476 326 LINE",
"60 326 LINE",
"60 255 LINE"
);
},
{
closed = 1;
nodes = (
"305 426 LINE",
"305 503 LINE",
"228 503 LINE",
"228 426 LINE"
);
},
{
closed = 1;
nodes = (
"305 78 LINE",
"305 155 LINE",
"228 155 LINE",
"228 78 LINE"
);
}
);
userData = {
tnScalarpolator = {
scalarpolatorPrefs = {
LSB = "4";
RSB = 0;
baseline = -142.312;
interpolateX = 130.541;
interpolateY = 130.541;
lockScaleXY = 1;
scaleX = 72.537;
scaleY = 72.537;
};
};
};
width = 516;
}
);
leftKerningGroup = "@MMK_R_divide";
rightKerningGroup = "@MMK_L_divide";
unicode = 00F7;
},
{
color = (255,255,0,255);
glyphname = multiply;
layers = (
{
layerId = master01;
paths = (
{
closed = 1;
nodes = (
"254 232 LINE",
"396 91 LINE",
"449 144 LINE",
"308 286 LINE",
"447 425 LINE",
"394 478 LINE",
"254 339 LINE",
"113 480 LINE",
"60 427 LINE",
"201 285 LINE",
"62 147 LINE",
"115 93 LINE"
);
}
);
userData = {
com.typemytype.robofont.guideline.magnetic.EBtnxtBYqz = 5;
tnScalarpolator = {
scalarpolatorPrefs = {
LSB = "4";
RSB = 0;
baseline = -142.312;
interpolateX = 130.541;
interpolateY = 130.541;
lockScaleXY = 1;
scaleX = 72.537;
scaleY = 72.537;
};
};
};
width = 489;
}
);
leftKerningGroup = "@MMK_R_multiply";
rightKerningGroup = "@MMK_L_multiply";
unicode = 00D7;
},
{
color = (255,255,0,255);
glyphname = equal;
layers = (
{
layerId = master01;
paths = (
{
closed = 1;
nodes = (
"476 335 LINE",
"476 407 LINE",
"60 407 LINE",
"60 335 LINE"
);
},
{
closed = 1;
nodes = (
"476 171 LINE",
"476 242 LINE",
"60 242 LINE",
"60 171 LINE"
);
}
);
userData = {
tnScalarpolator = {
scalarpolatorPrefs = {
LSB = "4";
RSB = 0;
baseline = -142.312;
interpolateX = 130.541;
interpolateY = 130.541;
lockScaleXY = 1;
scaleX = 72.537;
scaleY = 72.537;
};
};
};
width = 516;
}
);
leftKerningGroup = "@MMK_R_equal";
rightKerningGroup = "@MMK_L_equal";
unicode = 003D;
},
{
color = (255,255,0,255);
glyphname = less;
layers = (
{
layerId = master01;
paths = (
{
closed = 1;
nodes = (
"399 81 LINE",
"174 288 LINE",
"399 495 LINE",
"285 495 LINE",
"60 288 LINE",
"285 81 LINE"
);
}
);
userData = {
tnScalarpolator = {
scalarpolatorPrefs = {
LSB = "4";
RSB = 0;
baseline = -142.312;
interpolateX = 130.541;
interpolateY = 130.541;
lockScaleXY = 1;
scaleX = 72.537;
scaleY = 72.537;
};
};
};
width = 439;
}
);
leftKerningGroup = "@MMK_R_less";
rightKerningGroup = "@MMK_L_less";
unicode = 003C;
},
{
color = (255,255,0,255);
glyphname = greater;
layers = (
{
layerId = master01;
paths = (
{
closed = 1;
nodes = (
"174 81 LINE",
"399 288 LINE",
"174 495 LINE",
"60 495 LINE",
"285 288 LINE",
"60 81 LINE"
);
}
);
userData = {
tnScalarpolator = {
scalarpolatorPrefs = {
LSB = "4";
RSB = 0;
baseline = -142.312;
interpolateX = 130.541;
interpolateY = 130.541;
lockScaleXY = 1;
scaleX = 72.537;
scaleY = 72.537;
};
};
};
width = 439;
}
);
leftKerningGroup = "@MMK_R_greater";
rightKerningGroup = "@MMK_L_greater";
unicode = 003E;
},
{
color = (255,255,0,255);
glyphname = lessequal;
layers = (
{
layerId = master01;
paths = (
{
closed = 1;
nodes = (
"391 -71 LINE",
"391 0 LINE",
"68 0 LINE",
"68 -71 LINE"
);
},
{
closed = 1;
nodes = (
"399 81 LINE",
"174 288 LINE",
"399 495 LINE",
"285 495 LINE",
"60 288 LINE",
"285 81 LINE"
);
}
);
userData = {
tnScalarpolator = {
scalarpolatorPrefs = {
LSB = "4";
RSB = 0;
baseline = -142.312;
interpolateX = 130.541;
interpolateY = 130.541;
lockScaleXY = 1;
scaleX = 72.537;
scaleY = 72.537;
};
};
};
width = 439;
}
);
leftKerningGroup = "@MMK_R_less";
rightKerningGroup = "@MMK_L_less";
unicode = 2264;
},
{
color = (255,255,0,255);
glyphname = greaterequal;
layers = (
{
layerId = master01;
paths = (
{
closed = 1;
nodes = (
"391 -71 LINE",
"391 0 LINE",
"67 0 LINE",
"67 -71 LINE"
);
},
{
closed = 1;
nodes = (
"174 81 LINE",
"399 288 LINE",
"174 495 LINE",
"60 495 LINE",
"285 288 LINE",
"60 81 LINE"
);
}
);
userData = {
tnScalarpolator = {
scalarpolatorPrefs = {
LSB = "4";
RSB = 0;
baseline = -142.312;
interpolateX = 130.541;
interpolateY = 130.541;
lockScaleXY = 1;
scaleX = 72.537;
scaleY = 72.537;
};
};
};
width = 439;
}
);
leftKerningGroup = "@MMK_R_greater";
rightKerningGroup = "@MMK_L_greater";
unicode = 2265;
},
{
color = (255,255,0,255);
glyphname = approxequal;
layers = (
{
layerId = master01;
paths = (
{
closed = 1;
nodes = (
"90 345 OFFCURVE",
"112 355 OFFCURVE",
"136 355 CURVE SMOOTH",
"161 355 OFFCURVE",
"182 347 OFFCURVE",
"202 334 CURVE SMOOTH",
"222 320 OFFCURVE",
"247 315 OFFCURVE",
"270 315 CURVE SMOOTH",
"299 315 OFFCURVE",
"331 331 OFFCURVE",
"347 357 CURVE",
"333 420 LINE",
"317 403 OFFCURVE",
"297 390 OFFCURVE",
"272 390 CURVE SMOOTH",
"247 390 OFFCURVE",
"225 398 OFFCURVE",
"205 411 CURVE SMOOTH",
"185 425 OFFCURVE",
"161 430 OFFCURVE",
"137 430 CURVE SMOOTH",
"108 430 OFFCURVE",
"75 414 OFFCURVE",
"60 388 CURVE",
"74 325 LINE"
);
},
{
closed = 1;
nodes = (
"90 178 OFFCURVE",
"112 188 OFFCURVE",
"136 188 CURVE SMOOTH",
"161 188 OFFCURVE",
"182 180 OFFCURVE",
"202 167 CURVE SMOOTH",
"222 154 OFFCURVE",
"247 148 OFFCURVE",
"270 148 CURVE SMOOTH",
"299 148 OFFCURVE",
"331 164 OFFCURVE",
"347 190 CURVE",
"333 253 LINE",
"317 235 OFFCURVE",
"297 223 OFFCURVE",
"272 223 CURVE SMOOTH",
"247 223 OFFCURVE",
"225 231 OFFCURVE",
"205 244 CURVE SMOOTH",
"185 257 OFFCURVE",
"161 263 OFFCURVE",
"137 263 CURVE SMOOTH",
"108 263 OFFCURVE",
"75 247 OFFCURVE",
"60 221 CURVE",
"74 158 LINE"
);
}
);
userData = {
tnScalarpolator = {
scalarpolatorPrefs = {
LSB = "4";
RSB = 0;
baseline = -142.312;
interpolateX = 130.541;
interpolateY = 130.541;
lockScaleXY = 1;
scaleX = 72.537;
scaleY = 72.537;
};
};
};
width = 387;
}
);
leftKerningGroup = "@MMK_R_approxequal";
rightKerningGroup = "@MMK_L_approxequal";
unicode = 2248;
},
{
color = (255,255,0,255);
glyphname = notequal;
layers = (
{
components = (
{
name = equal;
}
);
layerId = master01;
paths = (
{
closed = 1;
nodes = (
"208 50 LINE",
"389 525 LINE",
"319 525 LINE",
"137 50 LINE"
);
}
);
userData = {
tnScalarpolator = {
scalarpolatorPrefs = {
LSB = "4";
RSB = 0;
baseline = -142.312;
interpolateX = 130.541;
interpolateY = 130.541;
lockScaleXY = 1;
scaleX = 72.537;
scaleY = 72.537;
};
};
};
width = 516;
}
);
leftKerningGroup = "@MMK_R_notequal";
rightKerningGroup = "@MMK_L_notequal";
unicode = 2260;
},
{
color = (255,255,0,255);
glyphname = logicalnot;
layers = (
{
layerId = master01;
paths = (
{
closed = 1;
nodes = (
"393 156 LINE",
"393 329 LINE",
"45 329 LINE",
"45 257 LINE",
"326 257 LINE",
"326 156 LINE"
);
}
);
userData = {
tnScalarpolator = {
scalarpolatorPrefs = {
LSB = "4";
RSB = 0;
baseline = -142.312;
interpolateX = 130.541;
interpolateY = 130.541;
lockScaleXY = 1;
scaleX = 72.537;
scaleY = 72.537;
};
};
};
width = 433;
}
);
leftKerningGroup = "@MMK_R_logicalnot";
rightKerningGroup = "@MMK_L_logicalnot";
unicode = 00AC;
},
{
glyphname = partialdiff;
layers = (
{
layerId = master01;
paths = (
{
closed = 1;
nodes = (
"394 -11 OFFCURVE",
"492 77 OFFCURVE",
"492 277 CURVE SMOOTH",
"492 525 OFFCURVE",
"336 690 OFFCURVE",
"74 690 CURVE",
"74 605 LINE",
"283 605 OFFCURVE",
"407 491 OFFCURVE",
"407 267 CURVE",
"427 272 LINE",
"417 386 OFFCURVE",
"335 446 OFFCURVE",
"246 446 CURVE SMOOTH",
"128 446 OFFCURVE",
"40 357 OFFCURVE",
"40 215 CURVE SMOOTH",
"40 69 OFFCURVE",
"134 -11 OFFCURVE",
"268 -11 CURVE SMOOTH"
);
},
{
closed = 1;
nodes = (
"176 67 OFFCURVE",
"127 131 OFFCURVE",
"127 220 CURVE SMOOTH",
"127 305 OFFCURVE",
"179 369 OFFCURVE",
"263 369 CURVE SMOOTH",
"345 369 OFFCURVE",
"399 315 OFFCURVE",
"406 240 CURVE SMOOTH",
"406 134 OFFCURVE",
"351 67 OFFCURVE",
"265 67 CURVE SMOOTH"
);
}
);
userData = {
com.typemytype.robofont.Image.Brightness = 0;
com.typemytype.robofont.Image.Contrast = 1;
com.typemytype.robofont.Image.Saturation = 1;
com.typemytype.robofont.Image.Sharpness = 0.4;
tnScalarpolator = {
scalarpolatorPrefs = {
LSB = "4";
RSB = 0;
baseline = -142.312;
interpolateX = 130.541;
interpolateY = 130.541;
lockScaleXY = 1;
scaleX = 72.537;
scaleY = 72.537;
};
};
};
width = 532;
}
);
leftKerningGroup = "@MMK_R_partialdiff";
rightKerningGroup = "@MMK_L_partialdiff";
unicode = 2202;
},
{
color = (255,255,0,255);
glyphname = product;
layers = (
{
layerId = master01;
paths = (
{
closed = 1;
nodes = (
"144 0 LINE",
"144 580 LINE",
"374 580 LINE",
"374 0 LINE",
"458 0 LINE",
"458 658 LINE",
"60 658 LINE",
"60 0 LINE"
);
}
);
userData = {
tnScalarpolator = {
scalarpolatorPrefs = {
LSB = "4";
RSB = 0;
baseline = -142.312;
interpolateX = 130.541;
interpolateY = 130.541;
lockScaleXY = 1;
scaleX = 72.537;
scaleY = 72.537;
};
};
};
width = 498;
}
);
leftKerningGroup = "@MMK_R_product";
rightKerningGroup = "@MMK_L_product";
unicode = 220F;
},
{
color = (255,255,0,255);
glyphname = summation;
layers = (
{
layerId = master01;
paths = (
{
closed = 1;
nodes = (
"446 0 LINE",
"446 80 LINE",
"109 80 LINE",
"109 34 LINE",
"384 341 LINE",
"117 623 LINE",
"111 580 LINE",
"441 580 LINE",
"441 658 LINE",
"42 658 LINE",
"42 583 LINE",
"300 309 LINE",
"298 359 LINE",
"42 75 LINE",
"42 0 LINE"
);
}
);
userData = {
tnScalarpolator = {
scalarpolatorPrefs = {
LSB = "4";
RSB = 0;
baseline = -142.312;
interpolateX = 130.541;
interpolateY = 130.541;
lockScaleXY = 1;
scaleX = 72.537;
scaleY = 72.537;
};
};
};
width = 486;
}
);
leftKerningGroup = "@MMK_R_summation";
rightKerningGroup = "@MMK_L_summation";
unicode = 2211;
},
{
color = (255,255,0,255);
glyphname = radical;
layers = (
{
layerId = master01;
paths = (
{
closed = 1;
nodes = (
"288 -5 LINE",
"579 716 LINE",
"499 716 LINE",
"228 43 LINE",
"281 43 LINE",
"99 494 LINE",
"11 494 LINE",
"213 -5 LINE"
);
}
);
userData = {
tnScalarpolator = {
scalarpolatorPrefs = {
LSB = "4";
RSB = 0;
baseline = -142.312;
interpolateX = 130.541;
interpolateY = 130.541;
lockScaleXY = 1;
scaleX = 72.537;
scaleY = 72.537;
};
};
};
width = 619;
}
);
leftKerningGroup = "@MMK_R_radical";
rightKerningGroup = "@MMK_L_radical";
unicode = 221A;
},
{
glyphname = infinity;
layers = (
{
layerId = master01;
paths = (
{
closed = 1;
nodes = (
"292 36 OFFCURVE",
"356 83 OFFCURVE",
"414 185 CURVE",
"374 241 LINE",
"327 147 OFFCURVE",
"277 110 OFFCURVE",
"230 110 CURVE SMOOTH",
"162 110 OFFCURVE",
"116 156 OFFCURVE",
"116 230 CURVE SMOOTH",
"116 302 OFFCURVE",
"162 348 OFFCURVE",
"229 348 CURVE SMOOTH",
"278 348 OFFCURVE",
"319 320 OFFCURVE",
"371 223 CURVE SMOOTH",
"393 177 LINE SMOOTH",
"445 81 OFFCURVE",
"516 36 OFFCURVE",
"594 36 CURVE SMOOTH",
"708 36 OFFCURVE",
"782 110 OFFCURVE",
"782 229 CURVE SMOOTH",
"782 347 OFFCURVE",
"713 421 OFFCURVE",
"605 421 CURVE SMOOTH",
"535 421 OFFCURVE",
"464 375 OFFCURVE",
"405 272 CURVE",
"440 214 LINE",
"492 308 OFFCURVE",
"543 347 OFFCURVE",
"591 347 CURVE SMOOTH",
"657 347 OFFCURVE",
"703 301 OFFCURVE",
"703 229 CURVE SMOOTH",
"703 156 OFFCURVE",
"657 110 OFFCURVE",
"594 110 CURVE SMOOTH",
"541 110 OFFCURVE",
"496 149 OFFCURVE",
"448 237 CURVE SMOOTH",
"425 283 LINE SMOOTH",
"375 376 OFFCURVE",
"307 422 OFFCURVE",
"220 422 CURVE SMOOTH",
"112 422 OFFCURVE",
"37 348 OFFCURVE",
"37 229 CURVE SMOOTH",
"37 111 OFFCURVE",
"107 36 OFFCURVE",
"219 36 CURVE SMOOTH"
);
}
);
userData = {
com.robofont.robohint = {
wingcommands_json = "{\"aa\": {\"id\": \"aa\", \"name\": \"Anti-aliasing\", \"wingorder\": [[\"79298df909c3\", false], [\"79298defe255\", false], [\"79298df0a8b7\", false]]}, \"bw\": {\"id\": \"bw\", \"name\": \"Black & white\", \"wingorder\": [[\"79298df909c3\", false], [\"79298defe255\", false], [\"79298df0a8b7\", false]]}, \"ct\": {\"id\": \"ct\", \"name\": \"Cleartype\", \"wingorder\": [[\"79298df909c3\", false], [\"79298defe255\", false], [\"79298df0a8b7\", false]]}, \"sp\": {\"id\": \"sp\", \"name\": \"Space constraint\", \"wingorder\": [[\"79298df909c3\", false], [\"79298defe255\", false], [\"79298df0a8b7\", false]]}}";
wingset_json = "{\"wings\": {\"79298defe255\": {\"axis\": \"x\", \"id\": \"79298defe255\", \"name\": \"DB B\", \"src\": \"# DB Byyiindirect round @bottom capBaselineiindirect min round black 24 capStemiindirect round @top capHeightiindirect min round black 23 capStemrreference1 @bottomrreference2 @topiinterpolate 15rround super 73ddirect 15rround gridiindirect reference min round black 32 capStemiinterpolate 8xxrreference0 @originiindirect reference round white @bottom capLsbiindirect reference min round black 24 capStemsshift 15rround super 71rreference round gray 28rround gridiindirect reference round black @right capStemiindirect min round white @width capRsbrreference round gray 5iindirect reference round black 19 capStemrreference1 @rightrreference2 15iinterpolate 8## ---iinterpolate xiinterpolate y\\\\"}, \"79298df909c3\": {\"id\": \"79298df909c3\", \"name\": \"(X) Autohints for B\", \"src\": \"/* (X) Autohints for B */SSVTCA[X]SSRP0[] 33MMIRP[M&gt;RWh] 0 capLsbMMIRP[m&gt;rBl] 24 capStemMMIRP[m&gt;rBl] 24 capStemMMDRP[M&gt;RGr] 19MMIRP[m&gt;rBl] 5 capStemMMDRP[M&gt;RGr] 28MMIRP[m&gt;rBl] 5 capStemMMIRP[m&gt;rBl] 11 capStemSSRP0[] 11MMIRP[m&lt;RWh] 34 capRsb//* (Y) Autohints for B */SSVTCA[Y]//* ... */IIUP[X]IIUP[Y]\"}, \"7a1a168fa350\": {\"axis\": \"x\", \"id\": \"7a1a168fa350\", \"name\": \"Simple CT only B\", \"src\": \"# Simple CT only Byyiindirect round @bottom capBaselinerreference black 24 # @capstemtop\iindirect round @top capHeightrreference black 23 # @capstembottom\rreference1 @toprreference2 @bottomiinterpolate 15 # @capstemtop\ddirect round 15rreference black 32 # @capstembottomrreference0 15 # @capstemtoprreference gray 8 # @crotch\iinterpolate y\\"}}}";
};
com.robofont.robohint.assembly = "SVTCA[0]\012PUSHB[001] 0 8\012MIAP[1]\012PUSHB[001] 24 68\012MIRP[01101]\012PUSHB[001] 1 2\012MIAP[1]\012PUSHB[001] 23 68\012MIRP[01101]\012PUSHB[000] 0\012SRP1[]\012PUSHB[000] 1\012SRP2[]\012PUSHB[000] 15\012IP[]\012PUSHB[000] 73\012SROUND[]\012PUSHB[000] 15\012MDAP[0]\012RTG[]\012PUSHB[001] 32 68\012MIRP[11101]\012PUSHB[000] 8\012IP[]\012SVTCA[1]\012PUSHB[000] 33\012SRP0[]\012PUSHB[001] 0 160\012MIRP[10110]\012PUSHB[001] 24 68\012MIRP[11101]\012PUSHB[000] 15\012SHP[0]\012PUSHB[000] 71\012SROUND[]\012PUSHB[000] 28\012MDRP[10100]\012RTG[]\012PUSHB[001] 11 68\012MIRP[10101]\012PUSHB[001] 34 161\012MIRP[01110]\012PUSHB[000] 5\012MDRP[10100]\012PUSHB[001] 19 68\012MIRP[10101]\012PUSHB[000] 11\012SRP1[]\012PUSHB[000] 15\012SRP2[]\012PUSHB[000] 8\012IP[]\012IUP[1]\012IUP[0]";
com.typemytype.roboFont.layerData = {
};
floqMemesList = (
);
floqValues = {
parentID = none;
};
tnScalarpolator = {
scalarpolatorPrefs = {
LSB = "4";
RSB = 0;
baseline = -142.182;
baselineMax = "-100";
baselineMin = "-250";
interpolateX = 130.541;
interpolateXMax = "300";
interpolateXMin = "0";
interpolateY = 130.541;
interpolateYMax = "300";
interpolateYMin = "0";
lockScaleXY = 1;
scaleX = 72.537;
scaleXMax = "200";
scaleXMin = "0";
scaleY = 72.537;
scaleYMax = "200";
scaleYMin = "0";
};
};
};
width = 822;
}
);
leftKerningGroup = "@MMK_R_infinity";
rightKerningGroup = "@MMK_L_infinity";
unicode = 221E;
},
{
color = (255,255,0,255);
glyphname = integral;
layers = (
{
layerId = master01;
paths = (
{
closed = 1;
nodes = (
"151 -223 OFFCURVE",
"216 -167 OFFCURVE",
"230 -50 CURVE SMOOTH",
"304 552 LINE SMOOTH",
"312 616 OFFCURVE",
"343 652 OFFCURVE",
"396 652 CURVE SMOOTH",
"426 652 OFFCURVE",
"454 645 OFFCURVE",
"483 631 CURVE",
"483 710 LINE",
"454 721 OFFCURVE",
"425 727 OFFCURVE",
"395 727 CURVE SMOOTH",
"305 727 OFFCURVE",
"238 670 OFFCURVE",
"223 551 CURVE SMOOTH",
"149 -49 LINE SMOOTH",
"142 -111 OFFCURVE",
"111 -148 OFFCURVE",
"61 -148 CURVE SMOOTH",
"29 -148 OFFCURVE",
"2 -141 OFFCURVE",
"-23 -128 CURVE",
"-23 -204 LINE",
"3 -217 OFFCURVE",
"29 -223 OFFCURVE",
"58 -223 CURVE SMOOTH"
);
}
);
userData = {
tnScalarpolator = {
scalarpolatorPrefs = {
LSB = "4";
RSB = 0;
baseline = -142.312;
interpolateX = 130.541;
interpolateY = 130.541;
lockScaleXY = 1;
scaleX = 72.537;
scaleY = 72.537;
};
};
};
width = 523;
}
);
leftKerningGroup = "@MMK_R_integral";
rightKerningGroup = "@MMK_L_integral";
unicode = 222B;
},
{
glyphname = dollar;
layers = (
{
components = (
{
name = S;
}
);
layerId = master01;
paths = (
{
closed = 1;
nodes = (
"292 346 LINE",
"292 755 LINE",
"218 755 LINE",
"218 346 LINE"
);
},
{
closed = 1;
nodes = (
"292 -96 LINE",
"292 336 LINE",
"218 336 LINE",
"218 -96 LINE"
);
}
);
userData = {
tnScalarpolator = {
scalarpolatorPrefs = {
LSB = "4";
RSB = 0;
baseline = -142.182;
baselineMax = "-100";
baselineMin = "-250";
interpolateX = 130.541;
interpolateXMax = "300";
interpolateXMin = "0";
interpolateY = 130.541;
interpolateYMax = "300";
interpolateYMin = "0";
lockScaleXY = 1;
scaleX = 72.537;
scaleXMax = "200";
scaleXMin = "0";
scaleY = 72.537;
scaleYMax = "200";
scaleYMin = "0";
};
};
};
width = 489;
}
);
leftKerningGroup = "@MMK_R_dollar";
rightKerningGroup = "@MMK_L_dollar";
unicode = 0024;
},
{
glyphname = cent;
layers = (
{
components = (
{
name = c;
}
);
layerId = master01;
paths = (
{
closed = 1;
nodes = (
"302 -109 LINE",
"302 575 LINE",
"232 575 LINE",
"232 -109 LINE"
);
}
);
userData = {
tnScalarpolator = {
scalarpolatorPrefs = {
LSB = "4";
RSB = 0;
baseline = -142.182;
baselineMax = "-100";
baselineMin = "-250";
interpolateX = 130.541;
interpolateXMax = "300";
interpolateXMin = "0";
interpolateY = 130.541;
interpolateYMax = "300";
interpolateYMin = "0";
lockScaleXY = 1;
scaleX = 72.537;
scaleXMax = "200";
scaleXMin = "0";
scaleY = 72.537;
scaleYMax = "200";
scaleYMin = "0";
};
};
};
width = 462;
}
);
leftKerningGroup = "@MMK_R_cent";
rightKerningGroup = "@MMK_L_cent";
unicode = 00A2;
},
{
glyphname = sterling;
layers = (
{
layerId = master01;
paths = (
{
closed = 1;
nodes = (
"470 0 LINE",
"470 80 LINE",
"84 80 LINE",
"128 56 LINE",
"217 110 OFFCURVE",
"249 201 OFFCURVE",
"225 309 CURVE SMOOTH",
"202 412 LINE SMOOTH",
"176 530 OFFCURVE",
"223 599 OFFCURVE",
"319 599 CURVE SMOOTH",
"376 599 OFFCURVE",
"429 585 OFFCURVE",
"478 554 CURVE",
"478 636 LINE",
"425 660 OFFCURVE",
"369 673 OFFCURVE",
"311 673 CURVE SMOOTH",
"149 673 OFFCURVE",
"83 569 OFFCURVE",
"119 409 CURVE SMOOTH",
"142 306 LINE SMOOTH",
"166 197 OFFCURVE",
"131 123 OFFCURVE",
"60 80 CURVE",
"60 0 LINE"
);
},
{
closed = 1;
nodes = (
"369 298 LINE",
"369 373 LINE",
"51 373 LINE",
"51 298 LINE"
);
}
);
userData = {
tnScalarpolator = {
scalarpolatorPrefs = {
LSB = "4";
RSB = 0;
baseline = -142.312;
interpolateX = 130.541;
interpolateY = 130.541;
lockScaleXY = 1;
scaleX = 72.537;
scaleY = 72.537;
};
};
};
width = 518;
}
);
leftKerningGroup = "@MMK_R_sterling";
rightKerningGroup = "@MMK_L_sterling";
unicode = 00A3;
},
{
glyphname = currency;
layers = (
{
layerId = master01;
paths = (
{
closed = 1;
nodes = (
"222 147 LINE",
"251 127 OFFCURVE",
"286 115 OFFCURVE",
"323 115 CURVE SMOOTH",
"356 115 OFFCURVE",
"387 124 OFFCURVE",
"414 139 CURVE",
"514 32 LINE",
"573 89 LINE",
"474 195 LINE",
"497 224 OFFCURVE",
"510 261 OFFCURVE",
"510 303 CURVE SMOOTH",
"510 338 OFFCURVE",
"500 370 OFFCURVE",
"484 398 CURVE",
"602 509 LINE",
"546 567 LINE",
"428 457 LINE",
"399 478 OFFCURVE",
"363 491 OFFCURVE",
"323 491 CURVE SMOOTH",
"289 491 OFFCURVE",
"256 481 OFFCURVE",
"228 464 CURVE",
"129 571 LINE",
"70 513 LINE",
"171 406 LINE",
"150 378 OFFCURVE",
"137 342 OFFCURVE",
"137 303 CURVE SMOOTH",
"137 267 OFFCURVE",
"147 232 OFFCURVE",
"164 204 CURVE",
"47 95 LINE",
"104 36 LINE"
);
},
{
closed = 1;
nodes = (
"259 189 OFFCURVE",
"212 240 OFFCURVE",
"212 303 CURVE SMOOTH",
"212 366 OFFCURVE",
"259 416 OFFCURVE",
"323 416 CURVE SMOOTH",
"387 416 OFFCURVE",
"435 366 OFFCURVE",
"435 303 CURVE SMOOTH",
"435 240 OFFCURVE",
"387 189 OFFCURVE",
"323 189 CURVE SMOOTH"
);
}
);
userData = {
tnScalarpolator = {
scalarpolatorPrefs = {
LSB = "4";
RSB = 0;
baseline = -142.312;
interpolateX = 130.541;
interpolateY = 130.541;
lockScaleXY = 1;
scaleX = 72.537;
scaleY = 72.537;
};
};
};
width = 642;
}
);
leftKerningGroup = "@MMK_R_currency";
rightKerningGroup = "@MMK_L_currency";
unicode = 00A4;
},
{
color = (255,255,0,255);
glyphname = yen;
layers = (
{
components = (
{
name = Y;
}
);
layerId = master01;
paths = (
{
closed = 1;
nodes = (
"442 121 LINE",
"442 180 LINE",
"147 180 LINE",
"147 121 LINE"
);
},
{
closed = 1;
nodes = (
"442 238 LINE",
"442 297 LINE",
"147 297 LINE",
"147 238 LINE"
);
}
);
userData = {
tnScalarpolator = {
scalarpolatorPrefs = {
LSB = "4";
RSB = 0;
baseline = -142.312;
interpolateX = 130.541;
interpolateY = 130.541;
lockScaleXY = 1;
scaleX = 72.537;
scaleY = 72.537;
};
};
};
width = 617;
}
);
leftKerningGroup = "@MMK_R_yen";
rightKerningGroup = "@MMK_L_yen";
unicode = 00A5;
},
{
color = (255,255,0,255);
glyphname = Euro;
layers = (
{
components = (
{
name = C;
transform = "{1, 0, 0, 1, 45, 0}";
}
);
layerId = master01;
paths = (
{
closed = 1;
nodes = (
"353 358 LINE",
"353 417 LINE",
"29 417 LINE",
"29 358 LINE"
);
},
{
closed = 1;
nodes = (
"354 243 LINE",
"354 302 LINE",
"29 302 LINE",
"29 243 LINE"
);
}
);
userData = {
tnScalarpolator = {
scalarpolatorPrefs = {
LSB = "4";
RSB = 0;
baseline = -142.312;
interpolateX = 130.541;
interpolateY = 130.541;
lockScaleXY = 1;
scaleX = 72.537;
scaleY = 72.537;
};
};
};
width = 696;
}
);
leftKerningGroup = "@MMK_R_Euro";
rightKerningGroup = "@MMK_L_Euro";
unicode = 20AC;
},
{
color = (255,255,0,255);
glyphname = florin;
layers = (
{
layerId = master01;
paths = (
{
closed = 1;
nodes = (
"415 391 LINE",
"415 466 LINE",
"116 466 LINE",
"116 391 LINE"
);
},
{
closed = 1;
nodes = (
"158 -215 OFFCURVE",
"223 -159 OFFCURVE",
"237 -42 CURVE SMOOTH",
"310 552 LINE SMOOTH",
"318 616 OFFCURVE",
"349 652 OFFCURVE",
"402 652 CURVE SMOOTH",
"432 652 OFFCURVE",
"461 645 OFFCURVE",
"489 631 CURVE",
"489 710 LINE",
"460 721 OFFCURVE",
"431 727 OFFCURVE",
"401 727 CURVE SMOOTH",
"311 727 OFFCURVE",
"244 670 OFFCURVE",
"230 551 CURVE SMOOTH",
"157 -41 LINE SMOOTH",
"149 -103 OFFCURVE",
"119 -140 OFFCURVE",
"69 -140 CURVE SMOOTH",
"37 -140 OFFCURVE",
"9 -133 OFFCURVE",
"-16 -120 CURVE",
"-16 -196 LINE",
"10 -209 OFFCURVE",
"37 -215 OFFCURVE",
"65 -215 CURVE SMOOTH"
);
}
);
userData = {
tnScalarpolator = {
scalarpolatorPrefs = {
LSB = "4";
RSB = 0;
baseline = -142.312;
interpolateX = 130.541;
interpolateY = 130.541;
lockScaleXY = 1;
scaleX = 72.537;
scaleY = 72.537;
};
};
};
width = 529;
}
);
leftKerningGroup = "@MMK_R_florin";
rightKerningGroup = "@MMK_L_florin";
unicode = 0192;
},
{
color = (255,255,0,255);
glyphname = copyright;
layers = (
{
layerId = master01;
paths = (
{
closed = 1;
nodes = (
"510 107 OFFCURVE",
"638 242 OFFCURVE",
"638 403 CURVE SMOOTH",
"638 564 OFFCURVE",
"510 699 OFFCURVE",
"342 699 CURVE SMOOTH",
"171 699 OFFCURVE",
"46 564 OFFCURVE",
"46 402 CURVE SMOOTH",
"46 242 OFFCURVE",
"171 107 OFFCURVE",
"342 107 CURVE SMOOTH"
);
},
{
closed = 1;
nodes = (
"206 156 OFFCURVE",
"96 261 OFFCURVE",
"96 403 CURVE SMOOTH",
"96 545 OFFCURVE",
"206 650 OFFCURVE",
"342 650 CURVE SMOOTH",
"472 650 OFFCURVE",
"588 546 OFFCURVE",
"588 402 CURVE SMOOTH",
"588 261 OFFCURVE",
"472 156 OFFCURVE",
"342 156 CURVE SMOOTH"
);
},
{
closed = 1;
nodes = (
"377 226 OFFCURVE",
"421 238 OFFCURVE",
"452 255 CURVE",
"452 309 LINE",
"423 291 OFFCURVE",
"380 278 OFFCURVE",
"346 278 CURVE SMOOTH",
"274 278 OFFCURVE",
"228 336 OFFCURVE",
"228 404 CURVE SMOOTH",
"228 472 OFFCURVE",
"274 530 OFFCURVE",
"345 530 CURVE SMOOTH",
"379 530 OFFCURVE",
"420 517 OFFCURVE",
"447 498 CURVE",
"447 553 LINE",
"418 571 OFFCURVE",
"376 582 OFFCURVE",
"345 582 CURVE SMOOTH",
"251 582 OFFCURVE",
"172 511 OFFCURVE",
"172 404 CURVE SMOOTH",
"172 297 OFFCURVE",
"251 226 OFFCURVE",
"346 226 CURVE SMOOTH"
);
}
);
userData = {
tnScalarpolator = {
scalarpolatorPrefs = {
LSB = "4";
RSB = 0;
baseline = -142.312;
interpolateX = 130.541;
interpolateY = 130.541;
lockScaleXY = 1;
scaleX = 72.537;
scaleY = 72.537;
};
};
};
width = 678;
}
);
leftKerningGroup = "@MMK_R_registered";
rightKerningGroup = "@MMK_L_registered";
unicode = 00A9;
},
{
color = (255,255,0,255);
glyphname = registered;
layers = (
{
layerId = master01;
paths = (
{
closed = 1;
nodes = (
"510 107 OFFCURVE",
"638 242 OFFCURVE",
"638 403 CURVE SMOOTH",
"638 564 OFFCURVE",
"510 699 OFFCURVE",
"342 699 CURVE SMOOTH",
"171 699 OFFCURVE",
"46 564 OFFCURVE",
"46 402 CURVE SMOOTH",
"46 242 OFFCURVE",
"171 107 OFFCURVE",
"342 107 CURVE SMOOTH"
);
},
{
closed = 1;
nodes = (
"206 156 OFFCURVE",
"96 261 OFFCURVE",
"96 403 CURVE SMOOTH",
"96 545 OFFCURVE",
"206 650 OFFCURVE",
"342 650 CURVE SMOOTH",
"472 650 OFFCURVE",
"588 546 OFFCURVE",
"588 402 CURVE SMOOTH",
"588 261 OFFCURVE",
"472 156 OFFCURVE",
"342 156 CURVE SMOOTH"
);
},
{
closed = 1;
nodes = (
"295 233 LINE",
"295 379 LINE",
"316 379 LINE SMOOTH",
"343 379 OFFCURVE",
"363 366 OFFCURVE",
"376 335 CURVE SMOOTH",
"424 233 LINE",
"483 233 LINE",
"427 352 LINE SMOOTH",
"414 380 OFFCURVE",
"391 399 OFFCURVE",
"360 403 CURVE",
"360 399 LINE",
"416 404 OFFCURVE",
"447 442 OFFCURVE",
"447 488 CURVE SMOOTH",
"447 542 OFFCURVE",
"404 576 OFFCURVE",
"338 576 CURVE SMOOTH",
"241 576 LINE",
"241 233 LINE"
);
},
{
closed = 1;
nodes = (
"295 529 LINE",
"336 529 LINE SMOOTH",
"371 529 OFFCURVE",
"393 510 OFFCURVE",
"393 478 CURVE SMOOTH",
"393 445 OFFCURVE",
"371 425 OFFCURVE",
"336 425 CURVE SMOOTH",
"295 425 LINE"
);
}
);
userData = {
axes = {
wdth = {
defaultValue = 500;
enabled = 1;
maxValue = 1000;
minValue = 0;
name = wdth;
tag = wdth;
value = 500;
};
wght = {
defaultValue = 500;
enabled = 1;
maxValue = 1000;
minValue = 0;
name = wght;
tag = wght;
value = 500;
};
};
tnScalarpolator = {
scalarpolatorPrefs = {
LSB = "4";
RSB = 0;
baseline = -142.312;
interpolateX = 130.541;
interpolateY = 130.541;
lockScaleXY = 1;
scaleX = 72.537;
scaleY = 72.537;
};
};
};
width = 678;
}
);
leftKerningGroup = "@MMK_R_registered";
rightKerningGroup = "@MMK_L_registered";
unicode = 00AE;
},
{
color = (255,255,0,255);
glyphname = trademark;
layers = (
{
layerId = master01;
paths = (
{
closed = 1;
nodes = (
"160 458 LINE",
"160 672 LINE",
"236 672 LINE",
"236 720 LINE",
"28 720 LINE",
"28 672 LINE",
"104 672 LINE",
"104 458 LINE"
);
},
{
closed = 1;
nodes = (
"314 458 LINE",
"314 717 LINE",
"290 717 LINE",
"389 502 LINE",
"425 502 LINE",
"524 717 LINE",
"500 717 LINE",
"500 458 LINE",
"556 458 LINE",
"556 720 LINE",
"474 720 LINE",
"397 548 LINE",
"428 548 LINE",
"351 720 LINE",
"266 720 LINE",
"266 458 LINE"
);
}
);
userData = {
tnScalarpolator = {
scalarpolatorPrefs = {
LSB = "4";
RSB = 0;
baseline = -142.312;
interpolateX = 130.541;
interpolateY = 130.541;
lockScaleXY = 1;
scaleX = 72.537;
scaleY = 72.537;
};
};
};
width = 596;
}
);
leftKerningGroup = "@MMK_R_trademark";
rightKerningGroup = "@MMK_L_trademark";
unicode = 2122;
},
{
color = (255,255,0,255);
glyphname = degree;
layers = (
{
layerId = master01;
paths = (
{
closed = 1;
nodes = (
"251 473 OFFCURVE",
"300 531 OFFCURVE",
"300 601 CURVE SMOOTH",
"300 671 OFFCURVE",
"251 729 OFFCURVE",
"174 729 CURVE SMOOTH",
"97 729 OFFCURVE",
"48 671 OFFCURVE",
"48 601 CURVE SMOOTH",
"48 531 OFFCURVE",
"97 473 OFFCURVE",
"174 473 CURVE SMOOTH"
);
},
{
closed = 1;
nodes = (
"137 529 OFFCURVE",
"105 558 OFFCURVE",
"105 601 CURVE SMOOTH",
"105 644 OFFCURVE",
"137 673 OFFCURVE",
"174 673 CURVE SMOOTH",
"211 673 OFFCURVE",
"243 644 OFFCURVE",
"243 601 CURVE SMOOTH",
"243 558 OFFCURVE",
"211 529 OFFCURVE",
"174 529 CURVE SMOOTH"
);
}
);
userData = {
tnScalarpolator = {
scalarpolatorPrefs = {
LSB = "4";
RSB = 0;
baseline = -142.312;
interpolateX = 130.541;
interpolateY = 130.541;
lockScaleXY = 1;
scaleX = 72.537;
scaleY = 72.537;
};
};
};
width = 340;
}
);
leftKerningGroup = "@MMK_R_degree";
rightKerningGroup = "@MMK_L_degree";
unicode = 00B0;
},
{
color = (255,255,0,255);
glyphname = copyrightsound;
layers = (
{
layerId = master01;
paths = (
{
closed = 1;
nodes = (
"510 107 OFFCURVE",
"638 242 OFFCURVE",
"638 403 CURVE SMOOTH",
"638 564 OFFCURVE",
"510 699 OFFCURVE",
"342 699 CURVE SMOOTH",
"171 699 OFFCURVE",
"46 564 OFFCURVE",
"46 402 CURVE SMOOTH",
"46 242 OFFCURVE",
"171 107 OFFCURVE",
"342 107 CURVE SMOOTH"
);
},
{
closed = 1;
nodes = (
"206 156 OFFCURVE",
"96 261 OFFCURVE",
"96 403 CURVE SMOOTH",
"96 545 OFFCURVE",
"206 650 OFFCURVE",
"342 650 CURVE SMOOTH",
"472 650 OFFCURVE",
"588 546 OFFCURVE",
"588 402 CURVE SMOOTH",
"588 261 OFFCURVE",
"472 156 OFFCURVE",
"342 156 CURVE SMOOTH"
);
},
{
closed = 1;
nodes = (
"311 233 LINE",
"311 355 LINE",
"347 355 LINE SMOOTH",
"420 355 OFFCURVE",
"471 398 OFFCURVE",
"471 467 CURVE SMOOTH",
"471 534 OFFCURVE",
"421 576 OFFCURVE",
"348 576 CURVE SMOOTH",
"257 576 LINE",
"257 233 LINE"
);
},
{
closed = 1;
nodes = (
"311 529 LINE",
"344 529 LINE SMOOTH",
"389 529 OFFCURVE",
"417 503 OFFCURVE",
"417 466 CURVE SMOOTH",
"417 428 OFFCURVE",
"389 401 OFFCURVE",
"344 401 CURVE SMOOTH",
"311 401 LINE"
);
}
);
userData = {
tnScalarpolator = {
scalarpolatorPrefs = {
LSB = "4";
RSB = 0;
baseline = -142.312;
interpolateX = 130.541;
interpolateY = 130.541;
lockScaleXY = 1;
scaleX = 72.537;
scaleY = 72.537;
};
};
};
width = 678;
}
);
leftKerningGroup = "@MMK_R_registered";
rightKerningGroup = "@MMK_L_registered";
unicode = 2117;
},
{
color = (255,255,0,255);
glyphname = lozenge;
layers = (
{
layerId = master01;
paths = (
{
closed = 1;
nodes = (
"561 315 LINE",
"306 656 LINE",
"47 315 LINE",
"306 -26 LINE"
);
},
{
closed = 1;
nodes = (
"140 315 LINE",
"306 539 LINE",
"474 315 LINE",
"307 91 LINE"
);
}
);
userData = {
tnScalarpolator = {
scalarpolatorPrefs = {
LSB = "4";
RSB = 0;
baseline = -142.312;
interpolateX = 130.541;
interpolateY = 130.541;
lockScaleXY = 1;
scaleX = 72.537;
scaleY = 72.537;
};
};
};
width = 601;
}
);
leftKerningGroup = "@MMK_R_lozenge";
rightKerningGroup = "@MMK_L_lozenge";
unicode = 25CA;
},
{
color = (255,255,0,255);
glyphname = checkmark;
layers = (
{
layerId = master01;
paths = (
{
closed = 1;
nodes = (
"286 -5 LINE",
"576 723 LINE",
"496 723 LINE",
"226 43 LINE",
"278 43 LINE",
"104 472 LINE",
"16 472 LINE",
"211 -5 LINE"
);
}
);
userData = {
tnScalarpolator = {
scalarpolatorPrefs = {
LSB = "4";
RSB = 0;
baseline = -142.312;
interpolateX = 130.541;
interpolateY = 130.541;
lockScaleXY = 1;
scaleX = 72.537;
scaleY = 72.537;
};
};
};
width = 616;
}
);
leftKerningGroup = "@MMK_R_checkmark";
rightKerningGroup = "@MMK_L_checkmark";
unicode = 2713;
},
{
color = (255,255,0,255);
glyphname = apple;
layers = (
{
layerId = master01;
paths = (
{
closed = 1;
nodes = (
"29 658 LINE",
"692 658 LINE",
"692 0 LINE",
"29 0 LINE"
);
},
{
closed = 1;
nodes = (
"286 77 LINE SMOOTH",
"286 528 LINE SMOOTH",
"371 528 LINE",
"371 77 LINE SMOOTH",
"434 77 LINE SMOOTH",
"434 309 LINE SMOOTH",
"457 309 LINE SMOOTH",
"553 309 OFFCURVE",
"609 363 OFFCURVE",
"609 445 CURVE SMOOTH",
"609 528 OFFCURVE",
"554 582 OFFCURVE",
"457 582 CURVE SMOOTH",
"119 582 LINE SMOOTH",
"119 528 LINE SMOOTH",
"223 528 LINE SMOOTH",
"223 77 LINE SMOOTH"
);
}
);
userData = {
com.fontbureau.comments = {
};
com.robofont.robohint = {
wingcommands_json = "{\"aa\": {\"id\": \"aa\", \"name\": \"Anti-aliasing\", \"wingorder\": [[\"7985e2840f90\", 0], [\"7985e27c353e\", 1]]}, \"bw\": {\"id\": \"bw\", \"name\": \"Black & white\", \"wingorder\": [[\"7985e2840f90\", 0], [\"7985e27c353e\", 1]]}, \"ct\": {\"id\": \"ct\", \"name\": \"Cleartype\", \"wingorder\": [[\"7985e2840f90\", 0], [\"7985e27c353e\", 1]]}, \"sp\": {\"id\": \"sp\", \"name\": \"Space constraint\", \"wingorder\": [[\"7985e2840f90\", 0], [\"7985e27c353e\", 1]]}}";
wingset_json = "{\"wings\": {\"7985e27c353e\": {\"axis\": \"x\", \"id\": \"7985e27c353e\", \"name\": \"DB P\", \"src\": \"# DB Pyyiindirect round @bottom capBaselineiindirect round @top capHeightrround black 19rreference1 @bottomrreference2 @topiinterpolate 11rround super 3ddirect round 11rround gridrreference round black 9xxrreference0 @originrreference round white @bottomrreference round black 10sshift 11rround super 71rreference round gray @rightrround gridiindirect round black 15 capStemiindirect reference min round white @width capRsb## ---iinterpolate xiinterpolate y\\\"}, \"7985e2840f90\": {\"id\": \"7985e2840f90\", \"name\": \"(X) Autohints for P\", \"src\": \"/* (X) Autohints for P */SSVTCA[X]SSRP0[] 20MMIRP[M&gt;RWh] 0 capLsbSSHP[0] 1MMIRP[m&gt;rBl] 10 capStemMMIRP[m&gt;rBl] 9 capStemMMIRP[m&gt;rBl] 11 capStemMMIRP[m&gt;rBl] 19 capStemMMDRP[M&gt;RGr] 15MMIRP[m&gt;rBl] 5 capStemRoundSSRP0[] 5MMIRP[m&lt;RWh] 21 capRsbRound//* (Y) Autohints for P */SSVTCA[Y]//* ... */IIUP[X]IIUP[Y]\\"}, \"7a1a1f5467e7\": {\"axis\": \"x\", \"id\": \"7a1a1f5467e7\", \"name\": \"Simple CT only P\", \"src\": \"# Simple CT only Pyyiindirect round @bottom capBaseline\iindirect round @top capHeightrreference black 19 # @capstembottom\rreference1 @toprreference2 @bottom\iinterpolate 11 # @capstemtopddirect round 11rreference black 9 # @capstembottom\iinterpolate y\\"}}}";
};
com.robofont.robohint.assembly.program = "NPUSHB[ ]  /* 39 values pushed */ 0 3 0 1 2 3 1 87 0 4 4 0 79 0 0 0 11 63 5 1 2 2 12 2 64 0 0 19 17 13 11 0 10 0 10 36 33 6 14\012CALL[ ]";
com.typemytype.roboFont.layerData = {
};
fbTools.floqMemesList = (
);
fbTools.spacingEnvelop = (
(
0,
1
),
(
0,
700
),
(
520,
700
),
(
520,
1
)
);
floqMemesList = (
);
floqValues = {
parentID = none;
};
tnScalarpolator = {
scalarpolatorPrefs = {
LSB = "4";
RSB = 0;
baseline = -142.312;
interpolateX = 130.541;
interpolateY = 130.541;
lockScaleXY = 1;
scaleX = 72.537;
scaleY = 72.537;
};
};
};
width = 732;
}
);
leftKerningGroup = "@MMK_R_apple";
leftMetricsKey = H;
rightKerningGroup = "@MMK_L_apple";
unicode = F8FF;
},
{
color = (255,255,0,255);
glyphname = bitcoin;
layers = (
{
components = (
{
name = B;
}
);
layerId = master01;
paths = (
{
closed = 1;
nodes = (
"215 599 LINE",
"215 786 LINE",
"155 786 LINE",
"155 599 LINE"
);
},
{
closed = 1;
nodes = (
"332 599 LINE",
"332 786 LINE",
"273 786 LINE",
"273 599 LINE"
);
},
{
closed = 1;
nodes = (
"215 -124 LINE",
"215 63 LINE",
"155 63 LINE",
"155 -124 LINE"
);
},
{
closed = 1;
nodes = (
"332 -124 LINE",
"332 63 LINE",
"273 63 LINE",
"273 -124 LINE"
);
}
);
width = 515;
}
);
unicode = 20BF;
},
{
color = (255,89,232,255);
glyphname = aogonekcmb;
layers = (
{
layerId = master01;
paths = (
{
closed = 1;
nodes = (
"0 -153 LINE",
"-49 -153 OFFCURVE",
"-76 -130 OFFCURVE",
"-76 -95 CURVE SMOOTH",
"-76 -55 OFFCURVE",
"-49 -23 OFFCURVE",
"0 0 CURVE",
"-15 35 LINE",
"-101 -7 OFFCURVE",
"-146 -54 OFFCURVE",
"-146 -116 CURVE SMOOTH",
"-146 -186 OFFCURVE",
"-92 -220 OFFCURVE",
"0 -220 CURVE"
);
}
);
userData = {
tnScalarpolator = {
scalarpolatorPrefs = {
LSB = "4";
RSB = 0;
baseline = -142.312;
interpolateX = 130.541;
interpolateY = 130.541;
lockScaleXY = 1;
scaleX = 72.537;
scaleY = 72.537;
};
};
};
width = 40;
}
);
},
{
color = (255,89,232,255);
glyphname = dotaccentcmb;
layers = (
{
layerId = master01;
paths = (
{
closed = 1;
nodes = (
"44 532 LINE",
"44 620 LINE",
"-44 620 LINE",
"-44 532 LINE"
);
}
);
userData = {
tnScalarpolator = {
scalarpolatorPrefs = {
LSB = "4";
RSB = 0;
baseline = -142.312;
interpolateX = 130.541;
interpolateY = 130.541;
lockScaleXY = 1;
scaleX = 72.537;
scaleY = 72.537;
};
};
};
width = 84;
}
);
},
{
color = (255,89,232,255);
glyphname = periodcmb;
layers = (
{
layerId = master01;
paths = (
{
closed = 1;
nodes = (
"42 0 LINE",
"42 84 LINE",
"-42 84 LINE",
"-42 0 LINE"
);
}
);
userData = {
tnScalarpolator = {
scalarpolatorPrefs = {
LSB = "4";
RSB = 0;
baseline = -142.312;
interpolateX = 130.541;
interpolateY = 130.541;
lockScaleXY = 1;
scaleX = 72.537;
scaleY = 72.537;
};
};
};
width = 82;
}
);
},
{
color = (255,255,0,255);
glyphname = Oslash_AT_weight800;
layers = (
{
components = (
{
name = O;
}
);
layerId = master01;
paths = (
{
closed = 1;
nodes = (
"575 566 LINE",
"661 706 LINE",
"579 706 LINE",
"518 607 LINE"
);
},
{
closed = 1;
nodes = (
"198 -48 LINE",
"259 52 LINE",
"200 88 LINE",
"116 -48 LINE"
);
}
);
userData = {
axes = {
wdth = {
defaultValue = 500;
enabled = 1;
maxValue = 1000;
minValue = 0;
name = wdth;
tag = wdth;
value = 500;
};
wght = {
defaultValue = 500;
enabled = 1;
maxValue = 1000;
minValue = 0;
name = wght;
tag = wght;
value = 500;
};
};
tnScalarpolator = {
scalarpolatorPrefs = {
LSB = "4";
RSB = 0;
baseline = -142.312;
interpolateX = 130.541;
interpolateY = 130.541;
lockScaleXY = 1;
scaleX = 72.537;
scaleY = 72.537;
};
};
};
width = 767;
}
);
},
{
color = (0,0,0,128);
glyphname = Oslashacute_AT_weight800;
layers = (
{
components = (
{
name = O;
},
{
name = acutecmb.uc;
transform = "{1, 0, 0, 1, 392, 12}";
}
);
layerId = master01;
paths = (
{
closed = 1;
nodes = (
"580 573 LINE",
"661 706 LINE",
"579 706 LINE",
"519 608 LINE"
);
},
{
closed = 1;
nodes = (
"198 -48 LINE",
"260 53 LINE",
"199 87 LINE",
"116 -48 LINE"
);
}
);
userData = {
axes = {
wdth = {
defaultValue = 500;
enabled = 1;
maxValue = 1000;
minValue = 0;
name = wdth;
tag = wdth;
value = 500;
};
wght = {
defaultValue = 500;
enabled = 1;
maxValue = 1000;
minValue = 0;
name = wght;
tag = wght;
value = 500;
};
};
com.typenetwork.accentbuilder.locked = 0;
tnScalarpolator = {
scalarpolatorPrefs = {
LSB = "4";
RSB = 0;
baseline = -142.312;
interpolateX = 130.541;
interpolateY = 130.541;
lockScaleXY = 1;
scaleX = 72.537;
scaleY = 72.537;
};
};
};
width = 767;
}
);
},
{
color = (255,255,0,255);
glyphname = oslash_AT_weight800;
layers = (
{
components = (
{
name = o;
}
);
layerId = master01;
paths = (
{
closed = 1;
nodes = (
"410 395 LINE",
"482 514 LINE",
"410 514 LINE",
"356 424 LINE"
);
},
{
closed = 1;
nodes = (
"143 -48 LINE",
"199 44 LINE",
"146 77 LINE",
"71 -48 LINE"
);
}
);
userData = {
tnScalarpolator = {
scalarpolatorPrefs = {
LSB = "4";
RSB = 0;
baseline = -142.312;
interpolateX = 130.541;
interpolateY = 130.541;
lockScaleXY = 1;
scaleX = 72.537;
scaleY = 72.537;
};
};
};
width = 554;
}
);
},
{
color = (0,0,0,128);
glyphname = oslashacute_AT_weight800;
layers = (
{
components = (
{
name = o;
},
{
name = acutecmb;
transform = "{1, 0, 0, 1, 283, -1}";
}
);
layerId = master01;
paths = (
{
closed = 1;
nodes = (
"412 398 LINE",
"482 514 LINE",
"410 514 LINE",
"358 427 LINE"
);
},
{
closed = 1;
nodes = (
"143 -48 LINE",
"198 43 LINE",
"147 77 LINE",
"71 -48 LINE"
);
}
);
userData = {
com.typemytype.robofont.Image.Brightness = 0;
com.typemytype.robofont.Image.Contrast = 1;
com.typemytype.robofont.Image.Saturation = 1;
com.typemytype.robofont.Image.Sharpness = 0.4;
com.typenetwork.accentbuilder.locked = 0;
tnScalarpolator = {
scalarpolatorPrefs = {
LSB = "4";
RSB = 0;
baseline = -142.312;
interpolateX = 130.541;
interpolateY = 130.541;
lockScaleXY = 1;
scaleX = 72.537;
scaleY = 72.537;
};
};
};
width = 554;
}
);
},
{
color = (255,89,232,255);
glyphname = ringcmb_acutecmb;
layers = (
{
layerId = master01;
paths = (
{
closed = 1;
nodes = (
"55 435 OFFCURVE",
"92 474 OFFCURVE",
"92 524 CURVE SMOOTH",
"92 574 OFFCURVE",
"55 612 OFFCURVE",
"2 612 CURVE SMOOTH",
"-52 612 OFFCURVE",
"-88 574 OFFCURVE",
"-88 524 CURVE SMOOTH",
"-88 474 OFFCURVE",
"-52 435 OFFCURVE",
"2 435 CURVE SMOOTH"
);
},
{
closed = 1;
nodes = (
"-21 483 OFFCURVE",
"-39 499 OFFCURVE",
"-39 524 CURVE SMOOTH",
"-39 548 OFFCURVE",
"-21 565 OFFCURVE",
"2 565 CURVE SMOOTH",
"25 565 OFFCURVE",
"43 548 OFFCURVE",
"43 524 CURVE SMOOTH",
"43 499 OFFCURVE",
"25 483 OFFCURVE",
"2 483 CURVE SMOOTH"
);
},
{
closed = 1;
nodes = (
"33 637 LINE",
"97 721 LINE",
"30 721 LINE",
"-31 637 LINE"
);
}
);
userData = {
tnScalarpolator = {
scalarpolatorPrefs = {
LSB = "4";
RSB = 0;
baseline = -142.312;
interpolateX = 130.541;
interpolateY = 130.541;
lockScaleXY = 1;
scaleX = 72.537;
scaleY = 72.537;
};
};
};
width = 137;
}
);
},
{
color = (255,51,51,102);
glyphname = dollar_AT_weight800;
layers = (
{
components = (
{
name = S;
}
);
layerId = master01;
paths = (
{
closed = 1;
nodes = (
"297 636 LINE",
"297 755 LINE",
"223 755 LINE",
"223 636 LINE"
);
},
{
closed = 1;
nodes = (
"297 -96 LINE",
"297 25 LINE",
"223 25 LINE",
"223 -96 LINE"
);
}
);
userData = {
tnScalarpolator = {
scalarpolatorPrefs = {
LSB = "4";
RSB = 0;
baseline = -142.312;
interpolateX = 130.541;
interpolateY = 130.541;
lockScaleXY = 1;
scaleX = 72.537;
scaleY = 72.537;
};
};
};
width = 489;
}
);
leftKerningGroup = "@MMK_R_dollar";
rightKerningGroup = "@MMK_L_dollar";
},
{
glyphname = cent_AT_weight800;
layers = (
{
components = (
{
name = c;
}
);
layerId = master01;
paths = (
{
closed = 1;
nodes = (
"302 450 LINE",
"302 575 LINE",
"231 575 LINE",
"231 450 LINE"
);
},
{
closed = 1;
nodes = (
"302 -109 LINE",
"302 16 LINE",
"231 16 LINE",
"231 -109 LINE"
);
}
);
userData = {
tnScalarpolator = {
scalarpolatorPrefs = {
LSB = "4";
RSB = 0;
baseline = -142.182;
baselineMax = "-100";
baselineMin = "-250";
interpolateX = 130.541;
interpolateXMax = "300";
interpolateXMin = "0";
interpolateY = 130.541;
interpolateYMax = "300";
interpolateYMin = "0";
lockScaleXY = 1;
scaleX = 72.537;
scaleXMax = "200";
scaleXMin = "0";
scaleY = 72.537;
scaleYMax = "200";
scaleYMin = "0";
};
};
};
width = 462;
}
);
leftKerningGroup = "@MMK_R_cent";
rightKerningGroup = "@MMK_L_cent";
},
{
glyphname = caroncmb.vert;
layers = (
{
layerId = master01;
paths = (
{
closed = 1;
nodes = (
"20 319 OFFCURVE",
"37 371 OFFCURVE",
"37 424 CURVE SMOOTH",
"37 466 LINE",
"-36 466 LINE",
"-36 424 LINE SMOOTH",
"-36 377 OFFCURVE",
"-46 343 OFFCURVE",
"-75 301 CURVE",
"-17 274 LINE"
);
}
);
width = 77;
}
);
},
{
glyphname = caroncmb.vert.uc;
layers = (
{
layerId = master01;
paths = (
{
closed = 1;
nodes = (
"20 512 OFFCURVE",
"37 563 OFFCURVE",
"37 616 CURVE SMOOTH",
"37 658 LINE",
"-36 658 LINE",
"-36 616 LINE SMOOTH",
"-36 570 OFFCURVE",
"-46 536 OFFCURVE",
"-75 493 CURVE",
"-17 466 LINE"
);
}
);
width = 77;
}
);
},
{
color = (255,89,232,255);
glyphname = gravecmb.uc;
layers = (
{
layerId = master01;
paths = (
{
closed = 1;
nodes = (
"48 715 LINE",
"-46 845 LINE",
"-131 845 LINE",
"-28 715 LINE"
);
}
);
userData = {
tnScalarpolator = {
scalarpolatorPrefs = {
LSB = "4";
RSB = 0;
baseline = -142.312;
interpolateX = 130.541;
interpolateY = 130.541;
lockScaleXY = 1;
scaleX = 72.537;
scaleY = 72.537;
};
};
};
width = 88;
}
);
},
{
color = (255,89,232,255);
glyphname = acutecmb.uc;
layers = (
{
layerId = master01;
paths = (
{
closed = 1;
nodes = (
"134 845 LINE",
"49 845 LINE",
"-45 715 LINE",
"30 715 LINE"
);
}
);
userData = {
tnScalarpolator = {
scalarpolatorPrefs = {
LSB = "4";
RSB = 0;
baseline = -142.312;
interpolateX = 130.541;
interpolateY = 130.541;
lockScaleXY = 1;
scaleX = 72.537;
scaleY = 72.537;
};
};
};
width = 174;
}
);
},
{
color = (255,89,232,255);
glyphname = circumflexcmb.uc;
layers = (
{
layerId = master01;
paths = (
{
closed = 1;
nodes = (
"10 800 LINE",
"-8 800 LINE",
"60 715 LINE",
"127 715 LINE",
"32 842 LINE",
"-30 842 LINE",
"-125 715 LINE",
"-58 715 LINE"
);
}
);
userData = {
tnScalarpolator = {
scalarpolatorPrefs = {
LSB = "4";
RSB = 0;
baseline = -142.312;
interpolateX = 130.541;
interpolateY = 130.541;
lockScaleXY = 1;
scaleX = 72.537;
scaleY = 72.537;
};
};
};
width = 167;
}
);
},
{
color = (255,89,232,255);
glyphname = tildecmb.uc;
layers = (
{
layerId = master01;
paths = (
{
closed = 1;
nodes = (
"-92 744 OFFCURVE",
"-77 760 OFFCURVE",
"-56 760 CURVE SMOOTH",
"-41 760 OFFCURVE",
"-27 752 OFFCURVE",
"-9 737 CURVE SMOOTH",
"15 718 OFFCURVE",
"34 709 OFFCURVE",
"59 709 CURVE SMOOTH",
"104 709 OFFCURVE",
"139 744 OFFCURVE",
"143 811 CURVE",
"95 811 LINE",
"92 782 OFFCURVE",
"77 766 OFFCURVE",
"57 766 CURVE SMOOTH",
"41 766 OFFCURVE",
"28 776 OFFCURVE",
"10 789 CURVE SMOOTH",
"-17 809 OFFCURVE",
"-36 817 OFFCURVE",
"-58 817 CURVE SMOOTH",
"-106 817 OFFCURVE",
"-138 781 OFFCURVE",
"-142 715 CURVE",
"-94 715 LINE"
);
}
);
userData = {
tnScalarpolator = {
scalarpolatorPrefs = {
LSB = "4";
RSB = 0;
baseline = -142.312;
interpolateX = 130.541;
interpolateY = 130.541;
lockScaleXY = 1;
scaleX = 72.537;
scaleY = 72.537;
};
};
};
width = 183;
}
);
},
{
color = (255,89,232,255);
glyphname = macroncmb.uc;
layers = (
{
layerId = master01;
paths = (
{
closed = 1;
nodes = (
"110 715 LINE",
"110 776 LINE",
"-105 776 LINE",
"-105 715 LINE"
);
}
);
userData = {
tnScalarpolator = {
scalarpolatorPrefs = {
LSB = "4";
RSB = 0;
baseline = -142.312;
interpolateX = 130.541;
interpolateY = 130.541;
lockScaleXY = 1;
scaleX = 72.537;
scaleY = 72.537;
};
};
};
width = 150;
}
);
},
{
color = (255,89,232,255);
glyphname = brevecmb.uc;
layers = (
{
layerId = master01;
paths = (
{
closed = 1;
nodes = (
"71 706 OFFCURVE",
"115 754 OFFCURVE",
"115 833 CURVE",
"63 833 LINE",
"63 788 OFFCURVE",
"39 760 OFFCURVE",
"1 760 CURVE SMOOTH",
"-35 760 OFFCURVE",
"-59 788 OFFCURVE",
"-59 833 CURVE",
"-112 833 LINE",
"-112 754 OFFCURVE",
"-67 706 OFFCURVE",
"1 706 CURVE SMOOTH"
);
}
);
userData = {
tnScalarpolator = {
scalarpolatorPrefs = {
LSB = "4";
RSB = 0;
baseline = -142.312;
interpolateX = 130.541;
interpolateY = 130.541;
lockScaleXY = 1;
scaleX = 72.537;
scaleY = 72.537;
};
};
};
width = 155;
}
);
},
{
color = (255,89,232,255);
glyphname = dieresiscmb.uc;
layers = (
{
layerId = master01;
paths = (
{
closed = 1;
nodes = (
"-38 715 LINE",
"-38 791 LINE",
"-113 791 LINE",
"-113 715 LINE"
);
},
{
closed = 1;
nodes = (
"113 715 LINE",
"113 791 LINE",
"38 791 LINE",
"38 715 LINE"
);
}
);
userData = {
tnScalarpolator = {
scalarpolatorPrefs = {
LSB = "4";
RSB = 0;
baseline = -142.312;
interpolateX = 130.541;
interpolateY = 130.541;
lockScaleXY = 1;
scaleX = 72.537;
scaleY = 72.537;
};
};
};
width = 153;
}
);
},
{
color = (255,89,232,255);
glyphname = ringcmb.uc;
layers = (
{
layerId = master01;
paths = (
{
closed = 1;
nodes = (
"54 620 OFFCURVE",
"87 658 OFFCURVE",
"87 705 CURVE SMOOTH",
"87 752 OFFCURVE",
"54 791 OFFCURVE",
"2 791 CURVE SMOOTH",
"-50 791 OFFCURVE",
"-83 752 OFFCURVE",
"-83 705 CURVE SMOOTH",
"-83 658 OFFCURVE",
"-50 620 OFFCURVE",
"2 620 CURVE SMOOTH"
);
},
{
closed = 1;
nodes = (
"-20 664 OFFCURVE",
"-37 680 OFFCURVE",
"-37 705 CURVE SMOOTH",
"-37 730 OFFCURVE",
"-20 747 OFFCURVE",
"2 747 CURVE SMOOTH",
"24 747 OFFCURVE",
"41 730 OFFCURVE",
"41 705 CURVE SMOOTH",
"41 680 OFFCURVE",
"24 664 OFFCURVE",
"2 664 CURVE SMOOTH"
);
}
);
userData = {
tnScalarpolator = {
scalarpolatorPrefs = {
LSB = "4";
RSB = 0;
baseline = -142.312;
interpolateX = 130.541;
interpolateY = 130.541;
lockScaleXY = 1;
scaleX = 72.537;
scaleY = 72.537;
};
};
};
width = 127;
}
);
},
{
color = (255,89,232,255);
glyphname = hungarumlautcmb.uc;
layers = (
{
layerId = master01;
paths = (
{
closed = 1;
nodes = (
"-35 715 LINE",
"60 844 LINE",
"-15 844 LINE",
"-102 715 LINE"
);
},
{
closed = 1;
nodes = (
"99 715 LINE",
"199 844 LINE",
"125 844 LINE",
"32 715 LINE"
);
}
);
userData = {
tnScalarpolator = {
scalarpolatorPrefs = {
LSB = "4";
RSB = 0;
baseline = -142.312;
interpolateX = 130.541;
interpolateY = 130.541;
lockScaleXY = 1;
scaleX = 72.537;
scaleY = 72.537;
};
};
};
width = 239;
}
);
},
{
color = (255,89,232,255);
glyphname = caroncmb.uc;
layers = (
{
layerId = master01;
paths = (
{
closed = 1;
nodes = (
"32 710 LINE",
"127 837 LINE",
"60 837 LINE",
"-8 751 LINE",
"10 751 LINE",
"-58 837 LINE",
"-125 837 LINE",
"-30 710 LINE"
);
}
);
userData = {
tnScalarpolator = {
scalarpolatorPrefs = {
LSB = "4";
RSB = 0;
baseline = -142.312;
interpolateX = 130.541;
interpolateY = 130.541;
lockScaleXY = 1;
scaleX = 72.537;
scaleY = 72.537;
};
};
};
width = 167;
}
);
},
{
glyphname = commaaccentcmb.uc;
layers = (
{
layerId = master01;
paths = (
{
closed = 1;
nodes = (
"18 -186 OFFCURVE",
"34 -138 OFFCURVE",
"34 -88 CURVE SMOOTH",
"34 -48 LINE",
"-34 -48 LINE",
"-34 -88 LINE SMOOTH",
"-34 -132 OFFCURVE",
"-43 -164 OFFCURVE",
"-71 -204 CURVE",
"-17 -229 LINE"
);
}
);
width = 74;
}
);
},
{
color = (255,89,232,255);
glyphname = cedillacmb.uc;
layers = (
{
layerId = master01;
paths = (
{
closed = 1;
nodes = (
"62 -202 OFFCURVE",
"94 -171 OFFCURVE",
"94 -123 CURVE SMOOTH",
"94 -75 OFFCURVE",
"57 -44 OFFCURVE",
"-1 -44 CURVE SMOOTH",
"-8 -44 LINE",
"-8 -89 LINE",
"-1 -89 LINE SMOOTH",
"22 -89 OFFCURVE",
"38 -102 OFFCURVE",
"38 -123 CURVE SMOOTH",
"38 -143 OFFCURVE",
"24 -157 OFFCURVE",
"3 -157 CURVE SMOOTH",
"-14 -157 OFFCURVE",
"-33 -151 OFFCURVE",
"-49 -140 CURVE",
"-49 -188 LINE",
"-30 -197 OFFCURVE",
"-8 -202 OFFCURVE",
"13 -202 CURVE SMOOTH"
);
}
);
userData = {
tnScalarpolator = {
scalarpolatorPrefs = {
LSB = "4";
RSB = 0;
baseline = -142.312;
interpolateX = 130.541;
interpolateY = 130.541;
lockScaleXY = 1;
scaleX = 72.537;
scaleY = 72.537;
};
};
};
width = 134;
}
);
},
{
color = (255,89,232,255);
glyphname = ogonekcmb.uc;
layers = (
{
layerId = master01;
paths = (
{
closed = 1;
nodes = (
"10 -153 LINE",
"-46 -153 OFFCURVE",
"-81 -122 OFFCURVE",
"-81 -77 CURVE SMOOTH",
"-81 -29 OFFCURVE",
"-47 0 OFFCURVE",
"0 0 CURVE",
"-10 36 LINE",
"-89 36 OFFCURVE",
"-151 -14 OFFCURVE",
"-151 -93 CURVE SMOOTH",
"-151 -168 OFFCURVE",
"-88 -220 OFFCURVE",
"10 -220 CURVE"
);
}
);
userData = {
tnScalarpolator = {
scalarpolatorPrefs = {
LSB = "4";
RSB = 0;
baseline = -142.312;
interpolateX = 130.541;
interpolateY = 130.541;
lockScaleXY = 1;
scaleX = 72.537;
scaleY = 72.537;
};
};
};
width = 50;
}
);
},
{
color = (255,255,0,255);
glyphname = parenleft.uc;
layers = (
{
layerId = master01;
paths = (
{
closed = 1;
nodes = (
"304 -61 LINE",
"211 32 OFFCURVE",
"141 190 OFFCURVE",
"141 330 CURVE SMOOTH",
"141 471 OFFCURVE",
"211 629 OFFCURVE",
"304 720 CURVE",
"208 720 LINE",
"117 631 OFFCURVE",
"58 469 OFFCURVE",
"58 330 CURVE SMOOTH",
"58 190 OFFCURVE",
"117 30 OFFCURVE",
"208 -61 CURVE"
);
}
);
userData = {
tnScalarpolator = {
scalarpolatorPrefs = {
LSB = "4";
RSB = 0;
baseline = -142.312;
interpolateX = 130.541;
interpolateY = 130.541;
lockScaleXY = 1;
scaleX = 72.537;
scaleY = 72.537;
};
};
};
width = 344;
}
);
leftKerningGroup = "@MMK_R_parenleft_uc";
rightKerningGroup = "@MMK_L_parenleft_uc";
},
{
color = (204,255,204,255);
glyphname = parenright.uc;
layers = (
{
layerId = master01;
paths = (
{
closed = 1;
nodes = (
"210 31 OFFCURVE",
"268 192 OFFCURVE",
"268 330 CURVE SMOOTH",
"268 470 OFFCURVE",
"210 631 OFFCURVE",
"119 720 CURVE",
"22 720 LINE",
"116 629 OFFCURVE",
"186 470 OFFCURVE",
"186 329 CURVE SMOOTH",
"186 190 OFFCURVE",
"116 32 OFFCURVE",
"22 -61 CURVE",
"119 -61 LINE"
);
}
);
userData = {
tnScalarpolator = {
scalarpolatorPrefs = {
LSB = "4";
RSB = 0;
baseline = -142.312;
interpolateX = 130.541;
interpolateY = 130.541;
lockScaleXY = 1;
scaleX = 72.537;
scaleY = 72.537;
};
};
};
width = 308;
}
);
leftKerningGroup = "@MMK_R_parenright_uc";
rightKerningGroup = "@MMK_L_parenright_uc";
},
{
color = (255,255,0,255);
glyphname = bracketleft.uc;
layers = (
{
layerId = master01;
paths = (
{
closed = 1;
nodes = (
"302 -61 LINE",
"302 9 LINE",
"171 9 LINE",
"171 650 LINE",
"302 650 LINE",
"302 720 LINE",
"90 720 LINE",
"90 -61 LINE"
);
}
);
userData = {
tnScalarpolator = {
scalarpolatorPrefs = {
LSB = "4";
RSB = 0;
baseline = -142.312;
interpolateX = 130.541;
interpolateY = 130.541;
lockScaleXY = 1;
scaleX = 72.537;
scaleY = 72.537;
};
};
};
width = 342;
}
);
leftKerningGroup = "@MMK_R_bracketleft_uc";
rightKerningGroup = "@MMK_L_bracketleft_uc";
},
{
color = (204,255,204,255);
glyphname = bracketright.uc;
layers = (
{
layerId = master01;
paths = (
{
closed = 1;
nodes = (
"261 -61 LINE",
"261 720 LINE",
"50 720 LINE",
"50 650 LINE",
"181 650 LINE",
"181 9 LINE",
"50 9 LINE",
"50 -61 LINE"
);
}
);
userData = {
tnScalarpolator = {
scalarpolatorPrefs = {
LSB = "4";
RSB = 0;
baseline = -142.312;
interpolateX = 130.541;
interpolateY = 130.541;
lockScaleXY = 1;
scaleX = 72.537;
scaleY = 72.537;
};
};
};
width = 301;
}
);
leftKerningGroup = "@MMK_R_bracketright_uc";
rightKerningGroup = "@MMK_L_bracketright_uc";
},
{
color = (255,255,0,255);
glyphname = braceleft.uc;
layers = (
{
layerId = master01;
paths = (
{
closed = 1;
nodes = (
"386 -61 LINE",
"386 9 LINE",
"361 9 LINE SMOOTH",
"291 9 OFFCURVE",
"249 50 OFFCURVE",
"256 125 CURVE SMOOTH",
"262 188 LINE SMOOTH",
"267 248 OFFCURVE",
"227 306 OFFCURVE",
"147 329 CURVE",
"147 330 LINE",
"227 348 OFFCURVE",
"267 407 OFFCURVE",
"262 470 CURVE SMOOTH",
"256 534 LINE SMOOTH",
"249 604 OFFCURVE",
"292 650 OFFCURVE",
"361 650 CURVE SMOOTH",
"386 650 LINE",
"386 720 LINE",
"362 720 LINE SMOOTH",
"228 720 OFFCURVE",
"163 646 OFFCURVE",
"171 552 CURVE SMOOTH",
"177 485 LINE SMOOTH",
"183 420 OFFCURVE",
"132 375 OFFCURVE",
"58 365 CURVE",
"58 294 LINE",
"132 283 OFFCURVE",
"183 240 OFFCURVE",
"178 180 CURVE SMOOTH",
"172 112 LINE SMOOTH",
"163 10 OFFCURVE",
"227 -61 OFFCURVE",
"362 -61 CURVE SMOOTH"
);
}
);
userData = {
tnScalarpolator = {
scalarpolatorPrefs = {
LSB = "4";
RSB = 0;
baseline = -142.312;
interpolateX = 130.541;
interpolateY = 130.541;
lockScaleXY = 1;
scaleX = 72.537;
scaleY = 72.537;
};
};
};
width = 426;
}
);
leftKerningGroup = "@MMK_R_braceleft_uc";
rightKerningGroup = "@MMK_L_braceleft_uc";
},
{
color = (204,255,204,255);
glyphname = braceright.uc;
layers = (
{
layerId = master01;
paths = (
{
closed = 1;
nodes = (
"63 -61 LINE SMOOTH",
"198 -61 OFFCURVE",
"262 13 OFFCURVE",
"254 107 CURVE SMOOTH",
"248 174 LINE SMOOTH",
"243 239 OFFCURVE",
"293 284 OFFCURVE",
"368 294 CURVE",
"368 365 LINE",
"293 376 OFFCURVE",
"242 419 OFFCURVE",
"248 479 CURVE SMOOTH",
"254 547 LINE SMOOTH",
"263 649 OFFCURVE",
"199 720 OFFCURVE",
"63 720 CURVE SMOOTH",
"40 720 LINE",
"40 650 LINE",
"64 650 LINE SMOOTH",
"134 650 OFFCURVE",
"177 609 OFFCURVE",
"170 534 CURVE SMOOTH",
"164 471 LINE SMOOTH",
"158 411 OFFCURVE",
"199 353 OFFCURVE",
"278 330 CURVE",
"278 329 LINE",
"199 311 OFFCURVE",
"158 252 OFFCURVE",
"164 189 CURVE SMOOTH",
"170 125 LINE SMOOTH",
"176 55 OFFCURVE",
"133 9 OFFCURVE",
"64 9 CURVE SMOOTH",
"40 9 LINE",
"40 -61 LINE"
);
}
);
userData = {
tnScalarpolator = {
scalarpolatorPrefs = {
LSB = "4";
RSB = 0;
baseline = -142.312;
interpolateX = 130.541;
interpolateY = 130.541;
lockScaleXY = 1;
scaleX = 72.537;
scaleY = 72.537;
};
};
};
width = 408;
}
);
leftKerningGroup = "@MMK_R_braceright_uc";
rightKerningGroup = "@MMK_L_braceright_uc";
},
{
color = (255,229,128,255);
glyphname = guilsinglleft.uc;
layers = (
{
layerId = master01;
paths = (
{
closed = 1;
nodes = (
"293 147 LINE",
"138 306 LINE SMOOTH",
"293 466 LINE",
"195 466 LINE",
"40 306 LINE",
"195 147 LINE"
);
}
);
userData = {
tnScalarpolator = {
scalarpolatorPrefs = {
LSB = "4";
RSB = 0;
baseline = -142.312;
interpolateX = 130.541;
interpolateY = 130.541;
lockScaleXY = 1;
scaleX = 72.537;
scaleY = 72.537;
};
};
};
width = 333;
}
);
leftKerningGroup = "@MMK_R_guillemotleft_uc";
rightKerningGroup = "@MMK_L_guillemotleft_uc";
},
{
color = (255,229,128,255);
glyphname = guilsinglright.uc;
layers = (
{
layerId = master01;
paths = (
{
closed = 1;
nodes = (
"138 147 LINE",
"293 306 LINE",
"138 466 LINE",
"40 466 LINE",
"194 306 LINE SMOOTH",
"40 147 LINE"
);
}
);
userData = {
tnScalarpolator = {
scalarpolatorPrefs = {
LSB = "4";
RSB = 0;
baseline = -142.312;
interpolateX = 130.541;
interpolateY = 130.541;
lockScaleXY = 1;
scaleX = 72.537;
scaleY = 72.537;
};
};
};
width = 333;
}
);
leftKerningGroup = "@MMK_R_guillemotright_uc";
rightKerningGroup = "@MMK_L_guillemotright_uc";
},
{
color = (255,229,128,255);
glyphname = guillemotleft.uc;
layers = (
{
layerId = master01;
paths = (
{
closed = 1;
nodes = (
"293 147 LINE",
"138 306 LINE SMOOTH",
"293 466 LINE",
"195 466 LINE",
"40 306 LINE",
"195 147 LINE"
);
},
{
closed = 1;
nodes = (
"481 147 LINE",
"326 306 LINE SMOOTH",
"481 466 LINE",
"383 466 LINE",
"228 306 LINE",
"383 147 LINE"
);
}
);
userData = {
tnScalarpolator = {
scalarpolatorPrefs = {
LSB = "4";
RSB = 0;
baseline = -142.312;
interpolateX = 130.541;
interpolateY = 130.541;
lockScaleXY = 1;
scaleX = 72.537;
scaleY = 72.537;
};
};
};
width = 521;
}
);
leftKerningGroup = "@MMK_R_guillemotleft_uc";
rightKerningGroup = "@MMK_L_guillemotleft_uc";
},
{
color = (255,229,128,255);
glyphname = guillemotright.uc;
layers = (
{
layerId = master01;
paths = (
{
closed = 1;
nodes = (
"138 147 LINE",
"293 306 LINE",
"138 466 LINE",
"40 466 LINE",
"194 306 LINE SMOOTH",
"40 147 LINE"
);
},
{
closed = 1;
nodes = (
"326 147 LINE",
"481 306 LINE",
"326 466 LINE",
"228 466 LINE",
"382 306 LINE SMOOTH",
"228 147 LINE"
);
}
);
userData = {
tnScalarpolator = {
scalarpolatorPrefs = {
LSB = "4";
RSB = 0;
baseline = -142.312;
interpolateX = 130.541;
interpolateY = 130.541;
lockScaleXY = 1;
scaleX = 72.537;
scaleY = 72.537;
};
};
};
width = 521;
}
);
leftKerningGroup = "@MMK_R_guillemotright_uc";
rightKerningGroup = "@MMK_L_guillemotright_uc";
},
{
color = (255,89,232,255);
glyphname = dotaccentcmb.uc;
layers = (
{
layerId = master01;
paths = (
{
closed = 1;
nodes = (
"42 715 LINE",
"42 796 LINE",
"-39 796 LINE",
"-39 715 LINE"
);
}
);
userData = {
tnScalarpolator = {
scalarpolatorPrefs = {
LSB = "4";
RSB = 0;
baseline = -142.312;
interpolateX = 130.541;
interpolateY = 130.541;
lockScaleXY = 1;
scaleX = 72.537;
scaleY = 72.537;
};
};
};
width = 82;
}
);
},
{
color = (255,89,232,255);
glyphname = ringcmb_acutecmb.uc;
layers = (
{
layerId = master01;
paths = (
{
closed = 1;
nodes = (
"52 620 OFFCURVE",
"86 657 OFFCURVE",
"86 703 CURVE SMOOTH",
"86 751 OFFCURVE",
"52 787 OFFCURVE",
"1 787 CURVE SMOOTH",
"-49 787 OFFCURVE",
"-83 751 OFFCURVE",
"-83 703 CURVE SMOOTH",
"-83 657 OFFCURVE",
"-49 620 OFFCURVE",
"1 620 CURVE SMOOTH"
);
},
{
closed = 1;
nodes = (
"-21 664 OFFCURVE",
"-37 680 OFFCURVE",
"-37 703 CURVE SMOOTH",
"-37 727 OFFCURVE",
"-21 743 OFFCURVE",
"1 743 CURVE SMOOTH",
"24 743 OFFCURVE",
"40 727 OFFCURVE",
"40 703 CURVE SMOOTH",
"40 680 OFFCURVE",
"24 664 OFFCURVE",
"1 664 CURVE SMOOTH"
);
},
{
closed = 1;
nodes = (
"31 810 LINE",
"91 890 LINE",
"29 890 LINE",
"-29 810 LINE"
);
}
);
userData = {
tnScalarpolator = {
scalarpolatorPrefs = {
LSB = "4";
RSB = 0;
baseline = -142.312;
interpolateX = 130.541;
interpolateY = 130.541;
lockScaleXY = 1;
scaleX = 72.537;
scaleY = 72.537;
};
};
};
width = 131;
}
);
},
{
color = (255,51,51,102);
glyphname = dollar.lc_AT_weight800;
layers = (
{
components = (
{
name = s;
transform = "{1, 0, 0, 1, 10, 0}";
}
);
layerId = master01;
paths = (
{
closed = 1;
nodes = (
"242 456 LINE",
"242 582 LINE",
"172 582 LINE",
"172 456 LINE"
);
},
{
closed = 1;
nodes = (
"242 -114 LINE",
"242 4 LINE",
"172 4 LINE",
"172 -114 LINE"
);
}
);
userData = {
tnScalarpolator = {
scalarpolatorPrefs = {
LSB = "4";
RSB = 0;
baseline = -142.312;
interpolateX = 130.541;
interpolateY = 130.541;
lockScaleXY = 1;
scaleX = 72.537;
scaleY = 72.537;
};
};
};
width = 398;
}
);
leftKerningGroup = "@MMK_R_dollar_lc";
rightKerningGroup = "@MMK_L_dollar_lc";
},
{
color = (255,255,0,255);
glyphname = zero.dnom;
layers = (
{
layerId = master01;
paths = (
{
closed = 1;
nodes = (
"299 -8 OFFCURVE",
"362 66 OFFCURVE",
"362 181 CURVE SMOOTH",
"362 295 OFFCURVE",
"299 368 OFFCURVE",
"197 368 CURVE SMOOTH",
"96 368 OFFCURVE",
"33 294 OFFCURVE",
"33 180 CURVE SMOOTH",
"33 65 OFFCURVE",
"96 -8 OFFCURVE",
"197 -8 CURVE SMOOTH"
);
},
{
closed = 1;
nodes = (
"140 55 OFFCURVE",
"102 105 OFFCURVE",
"102 181 CURVE SMOOTH",
"102 256 OFFCURVE",
"140 305 OFFCURVE",
"197 305 CURVE SMOOTH",
"255 305 OFFCURVE",
"293 255 OFFCURVE",
"293 180 CURVE SMOOTH",
"293 104 OFFCURVE",
"255 55 OFFCURVE",
"197 55 CURVE SMOOTH"
);
}
);
userData = {
tnScalarpolator = {
scalarpolatorPrefs = {
LSB = "4";
RSB = 0;
baseline = -142.182;
baselineMax = "-100";
baselineMin = "-250";
interpolateX = 130.541;
interpolateXMax = "300";
interpolateXMin = "0";
interpolateY = 130.541;
interpolateYMax = "300";
interpolateYMin = "0";
lockScaleXY = 1;
scaleX = 72.537;
scaleXMax = "200";
scaleXMin = "0";
scaleY = 72.537;
scaleYMax = "200";
scaleYMin = "0";
};
};
};
width = 402;
}
);
leftKerningGroup = "@MMK_R_zero_dnom";
rightKerningGroup = "@MMK_L_zero_dnom";
},
{
color = (255,255,0,255);
glyphname = one.dnom;
layers = (
{
layerId = master01;
paths = (
{
closed = 1;
nodes = (
"270 0 LINE",
"270 60 LINE",
"189 60 LINE",
"189 372 LINE",
"31 347 LINE",
"31 286 LINE",
"119 299 LINE",
"119 60 LINE",
"40 60 LINE",
"40 0 LINE"
);
}
);
userData = {
tnScalarpolator = {
scalarpolatorPrefs = {
LSB = "4";
RSB = 0;
baseline = -142.182;
baselineMax = "-100";
baselineMin = "-250";
interpolateX = 130.541;
interpolateXMax = "300";
interpolateXMin = "0";
interpolateY = 130.541;
interpolateYMax = "300";
interpolateYMin = "0";
lockScaleXY = 1;
scaleX = 72.537;
scaleXMax = "200";
scaleXMin = "0";
scaleY = 72.537;
scaleYMax = "200";
scaleYMin = "0";
};
};
};
width = 310;
}
);
leftKerningGroup = "@MMK_R_one_dnom";
rightKerningGroup = "@MMK_L_one_dnom";
},
{
color = (255,255,0,255);
glyphname = two.dnom;
layers = (
{
layerId = master01;
paths = (
{
closed = 1;
nodes = (
"280 0 LINE",
"280 63 LINE",
"60 63 LINE",
"63 52 LINE",
"205 112 OFFCURVE",
"278 172 OFFCURVE",
"278 255 CURVE SMOOTH",
"278 324 OFFCURVE",
"227 368 OFFCURVE",
"147 368 CURVE SMOOTH",
"104 368 OFFCURVE",
"70 360 OFFCURVE",
"36 344 CURVE",
"36 274 LINE",
"66 295 OFFCURVE",
"99 306 OFFCURVE",
"131 306 CURVE SMOOTH",
"175 306 OFFCURVE",
"206 282 OFFCURVE",
"206 242 CURVE SMOOTH",
"206 189 OFFCURVE",
"147 143 OFFCURVE",
"31 80 CURVE",
"31 0 LINE"
);
}
);
userData = {
tnScalarpolator = {
scalarpolatorPrefs = {
LSB = "4";
RSB = 0;
baseline = -142.182;
baselineMax = "-100";
baselineMin = "-250";
interpolateX = 130.541;
interpolateXMax = "300";
interpolateXMin = "0";
interpolateY = 130.541;
interpolateYMax = "300";
interpolateYMin = "0";
lockScaleXY = 1;
scaleX = 72.537;
scaleXMax = "200";
scaleXMin = "0";
scaleY = 72.537;
scaleYMax = "200";
scaleYMin = "0";
};
};
};
width = 320;
}
);
leftKerningGroup = "@MMK_R_two_dnom";
rightKerningGroup = "@MMK_L_two_dnom";
},
{
color = (255,255,0,255);
glyphname = three.dnom;
layers = (
{
layerId = master01;
paths = (
{
closed = 1;
nodes = (
"230 -8 OFFCURVE",
"277 34 OFFCURVE",
"277 96 CURVE SMOOTH",
"277 145 OFFCURVE",
"243 180 OFFCURVE",
"183 186 CURVE",
"183 182 LINE",
"239 192 OFFCURVE",
"270 228 OFFCURVE",
"270 275 CURVE SMOOTH",
"270 332 OFFCURVE",
"224 368 OFFCURVE",
"150 368 CURVE SMOOTH",
"112 368 OFFCURVE",
"79 359 OFFCURVE",
"45 343 CURVE",
"45 277 LINE",
"73 298 OFFCURVE",
"102 307 OFFCURVE",
"136 307 CURVE SMOOTH",
"175 307 OFFCURVE",
"198 291 OFFCURVE",
"198 264 CURVE SMOOTH",
"198 231 OFFCURVE",
"171 213 OFFCURVE",
"117 213 CURVE SMOOTH",
"99 213 LINE",
"99 154 LINE",
"120 154 LINE SMOOTH",
"177 154 OFFCURVE",
"205 134 OFFCURVE",
"205 102 CURVE SMOOTH",
"205 72 OFFCURVE",
"180 53 OFFCURVE",
"138 53 CURVE SMOOTH",
"98 53 OFFCURVE",
"64 65 OFFCURVE",
"31 90 CURVE",
"31 22 LINE",
"70 1 OFFCURVE",
"107 -8 OFFCURVE",
"149 -8 CURVE SMOOTH"
);
}
);
userData = {
tnScalarpolator = {
scalarpolatorPrefs = {
LSB = "4";
RSB = 0;
baseline = -142.182;
baselineMax = "-100";
baselineMin = "-250";
interpolateX = 130.541;
interpolateXMax = "300";
interpolateXMin = "0";
interpolateY = 130.541;
interpolateYMax = "300";
interpolateYMin = "0";
lockScaleXY = 1;
scaleX = 72.537;
scaleXMax = "200";
scaleXMin = "0";
scaleY = 72.537;
scaleYMax = "200";
scaleYMin = "0";
};
};
};
width = 317;
}
);
leftKerningGroup = "@MMK_R_three_dnom";
rightKerningGroup = "@MMK_L_three_dnom";
},
{
color = (255,255,0,255);
glyphname = four.dnom;
layers = (
{
layerId = master01;
paths = (
{
closed = 1;
nodes = (
"256 0 LINE",
"256 84 LINE",
"309 84 LINE",
"309 142 LINE",
"256 142 LINE",
"256 363 LINE",
"162 363 LINE",
"22 132 LINE",
"22 84 LINE",
"189 84 LINE",
"189 0 LINE"
);
},
{
closed = 1;
nodes = (
"89 142 LINE",
"189 302 LINE",
"189 142 LINE"
);
}
);
userData = {
tnScalarpolator = {
scalarpolatorPrefs = {
LSB = "4";
RSB = 0;
baseline = -142.182;
baselineMax = "-100";
baselineMin = "-250";
interpolateX = 130.541;
interpolateXMax = "300";
interpolateXMin = "0";
interpolateY = 130.541;
interpolateYMax = "300";
interpolateYMin = "0";
lockScaleXY = 1;
scaleX = 72.537;
scaleXMax = "200";
scaleXMin = "0";
scaleY = 72.537;
scaleYMax = "200";
scaleYMin = "0";
};
};
};
width = 349;
}
);
leftKerningGroup = "@MMK_R_four_dnom";
rightKerningGroup = "@MMK_L_four_dnom";
},
{
color = (255,255,0,255);
glyphname = five.dnom;
layers = (
{
layerId = master01;
paths = (
{
closed = 1;
nodes = (
"224 -8 OFFCURVE",
"275 40 OFFCURVE",
"275 113 CURVE SMOOTH",
"275 179 OFFCURVE",
"230 223 OFFCURVE",
"144 223 CURVE SMOOTH",
"126 223 OFFCURVE",
"105 220 OFFCURVE",
"84 216 CURVE",
"92 203 LINE",
"99 297 LINE",
"255 297 LINE",
"255 360 LINE",
"49 360 LINE",
"35 156 LINE",
"62 162 OFFCURVE",
"96 167 OFFCURVE",
"126 167 CURVE SMOOTH",
"174 167 OFFCURVE",
"204 146 OFFCURVE",
"204 111 CURVE SMOOTH",
"204 74 OFFCURVE",
"177 52 OFFCURVE",
"135 52 CURVE SMOOTH",
"96 52 OFFCURVE",
"63 64 OFFCURVE",
"31 89 CURVE",
"31 21 LINE",
"67 2 OFFCURVE",
"104 -8 OFFCURVE",
"145 -8 CURVE SMOOTH"
);
}
);
userData = {
tnScalarpolator = {
scalarpolatorPrefs = {
LSB = "4";
RSB = 0;
baseline = -142.182;
baselineMax = "-100";
baselineMin = "-250";
interpolateX = 130.541;
interpolateXMax = "300";
interpolateXMin = "0";
interpolateY = 130.541;
interpolateYMax = "300";
interpolateYMin = "0";
lockScaleXY = 1;
scaleX = 72.537;
scaleXMax = "200";
scaleXMin = "0";
scaleY = 72.537;
scaleYMax = "200";
scaleYMin = "0";
};
};
};
width = 315;
}
);
leftKerningGroup = "@MMK_R_five_dnom";
rightKerningGroup = "@MMK_L_five_dnom";
},
{
color = (255,255,0,255);
glyphname = six.dnom;
layers = (
{
layerId = master01;
paths = (
{
closed = 1;
nodes = (
"248 -8 OFFCURVE",
"308 45 OFFCURVE",
"308 123 CURVE SMOOTH",
"308 187 OFFCURVE",
"262 236 OFFCURVE",
"188 236 CURVE SMOOTH",
"136 236 OFFCURVE",
"94 210 OFFCURVE",
"84 154 CURVE",
"97 169 LINE",
"98 257 OFFCURVE",
"129 308 OFFCURVE",
"202 308 CURVE SMOOTH",
"231 308 OFFCURVE",
"260 300 OFFCURVE",
"286 289 CURVE",
"286 353 LINE",
"259 363 OFFCURVE",
"229 368 OFFCURVE",
"198 368 CURVE SMOOTH",
"95 368 OFFCURVE",
"31 295 OFFCURVE",
"31 153 CURVE SMOOTH",
"31 53 OFFCURVE",
"96 -8 OFFCURVE",
"171 -8 CURVE SMOOTH"
);
},
{
closed = 1;
nodes = (
"127 50 OFFCURVE",
"100 87 OFFCURVE",
"100 138 CURVE",
"109 165 OFFCURVE",
"137 184 OFFCURVE",
"174 184 CURVE SMOOTH",
"215 184 OFFCURVE",
"240 154 OFFCURVE",
"240 119 CURVE SMOOTH",
"240 79 OFFCURVE",
"216 50 OFFCURVE",
"172 50 CURVE SMOOTH"
);
}
);
userData = {
tnScalarpolator = {
scalarpolatorPrefs = {
LSB = "4";
RSB = 0;
baseline = -142.182;
baselineMax = "-100";
baselineMin = "-250";
interpolateX = 130.541;
interpolateXMax = "300";
interpolateXMin = "0";
interpolateY = 130.541;
interpolateYMax = "300";
interpolateYMin = "0";
lockScaleXY = 1;
scaleX = 72.537;
scaleXMax = "200";
scaleXMin = "0";
scaleY = 72.537;
scaleYMax = "200";
scaleYMin = "0";
};
};
};
width = 348;
}
);
leftKerningGroup = "@MMK_R_six_dnom";
rightKerningGroup = "@MMK_L_six_dnom";
},
{
color = (255,255,0,255);
glyphname = seven.dnom;
layers = (
{
layerId = master01;
paths = (
{
closed = 1;
nodes = (
"149 0 LINE",
"281 305 LINE",
"281 360 LINE",
"28 360 LINE",
"28 295 LINE",
"236 295 LINE",
"221 329 LINE",
"72 0 LINE"
);
}
);
userData = {
tnScalarpolator = {
scalarpolatorPrefs = {
LSB = "4";
RSB = 0;
baseline = -142.182;
baselineMax = "-100";
baselineMin = "-250";
interpolateX = 130.541;
interpolateXMax = "300";
interpolateXMin = "0";
interpolateY = 130.541;
interpolateYMax = "300";
interpolateYMin = "0";
lockScaleXY = 1;
scaleX = 72.537;
scaleXMax = "200";
scaleXMin = "0";
scaleY = 72.537;
scaleYMax = "200";
scaleYMin = "0";
};
};
};
width = 321;
}
);
leftKerningGroup = "@MMK_R_seven_dnom";
rightKerningGroup = "@MMK_L_seven_dnom";
},
{
color = (255,255,0,255);
glyphname = eight.dnom;
layers = (
{
layerId = master01;
paths = (
{
closed = 1;
nodes = (
"247 -8 OFFCURVE",
"295 31 OFFCURVE",
"295 96 CURVE SMOOTH",
"295 157 OFFCURVE",
"247 188 OFFCURVE",
"176 209 CURVE SMOOTH",
"164 212 LINE SMOOTH",
"131 221 OFFCURVE",
"106 240 OFFCURVE",
"106 268 CURVE SMOOTH",
"106 296 OFFCURVE",
"131 318 OFFCURVE",
"164 318 CURVE SMOOTH",
"198 318 OFFCURVE",
"221 297 OFFCURVE",
"221 269 CURVE SMOOTH",
"221 241 OFFCURVE",
"197 216 OFFCURVE",
"165 207 CURVE SMOOTH",
"157 205 LINE",
"176 171 LINE",
"184 173 LINE SMOOTH",
"252 194 OFFCURVE",
"290 227 OFFCURVE",
"290 272 CURVE SMOOTH",
"290 330 OFFCURVE",
"238 368 OFFCURVE",
"164 368 CURVE SMOOTH",
"88 368 OFFCURVE",
"37 327 OFFCURVE",
"37 267 CURVE SMOOTH",
"37 215 OFFCURVE",
"82 179 OFFCURVE",
"153 160 CURVE SMOOTH",
"164 157 LINE SMOOTH",
"200 148 OFFCURVE",
"225 128 OFFCURVE",
"225 96 CURVE SMOOTH",
"225 64 OFFCURVE",
"200 42 OFFCURVE",
"164 42 CURVE SMOOTH",
"129 42 OFFCURVE",
"103 63 OFFCURVE",
"103 96 CURVE SMOOTH",
"103 127 OFFCURVE",
"126 151 OFFCURVE",
"161 161 CURVE SMOOTH",
"168 163 LINE",
"148 197 LINE",
"141 195 LINE SMOOTH",
"71 175 OFFCURVE",
"33 141 OFFCURVE",
"33 89 CURVE SMOOTH",
"33 30 OFFCURVE",
"82 -8 OFFCURVE",
"164 -8 CURVE SMOOTH"
);
}
);
userData = {
tnScalarpolator = {
scalarpolatorPrefs = {
LSB = "4";
RSB = 0;
baseline = -142.182;
baselineMax = "-100";
baselineMin = "-250";
interpolateX = 130.541;
interpolateXMax = "300";
interpolateXMin = "0";
interpolateY = 130.541;
interpolateYMax = "300";
interpolateYMin = "0";
lockScaleXY = 1;
scaleX = 72.537;
scaleXMax = "200";
scaleXMin = "0";
scaleY = 72.537;
scaleYMax = "200";
scaleYMin = "0";
};
};
};
width = 335;
}
);
leftKerningGroup = "@MMK_R_eight_dnom";
rightKerningGroup = "@MMK_L_eight_dnom";
},
